<?xml version="1.0" encoding="UTF-8" standalone="no"?>
<!-- Created with Inkscape (http://www.inkscape.org/) -->

<svg
   xmlns:dc="http://purl.org/dc/elements/1.1/"
   xmlns:cc="http://creativecommons.org/ns#"
   xmlns:rdf="http://www.w3.org/1999/02/22-rdf-syntax-ns#"
   xmlns:svg="http://www.w3.org/2000/svg"
   xmlns="http://www.w3.org/2000/svg"
   xmlns:sodipodi="http://sodipodi.sourceforge.net/DTD/sodipodi-0.dtd"
   xmlns:inkscape="http://www.inkscape.org/namespaces/inkscape"
   width="106.29922"
   height="106.29922"
   id="svg3022"
   version="1.1"
   inkscape:version="0.47 r22583"
   sodipodi:docname="New document 2">
  <defs
     id="defs3024">
    <inkscape:perspective
       sodipodi:type="inkscape:persp3d"
       inkscape:vp_x="0 : 526.18109 : 1"
       inkscape:vp_y="0 : 1000 : 0"
       inkscape:vp_z="744.09448 : 526.18109 : 1"
       inkscape:persp3d-origin="372.04724 : 350.78739 : 1"
       id="perspective3030" />
    <inkscape:perspective
       id="perspective3002"
       inkscape:persp3d-origin="0.5 : 0.33333333 : 1"
       inkscape:vp_z="1 : 0.5 : 1"
       inkscape:vp_y="0 : 1000 : 0"
       inkscape:vp_x="0 : 0.5 : 1"
       sodipodi:type="inkscape:persp3d" />
  </defs>
  <sodipodi:namedview
     id="base"
     pagecolor="#ffffff"
     bordercolor="#666666"
     borderopacity="1.0"
     inkscape:pageopacity="0.0"
     inkscape:pageshadow="2"
     inkscape:zoom="0.35"
     inkscape:cx="213.8639"
     inkscape:cy="16.006753"
     inkscape:document-units="px"
     inkscape:current-layer="layer1"
     showgrid="false"
     inkscape:window-width="551"
     inkscape:window-height="483"
     inkscape:window-x="156"
     inkscape:window-y="156"
     inkscape:window-maximized="0" />
  <metadata
     id="metadata3027">
    <rdf:RDF>
      <cc:Work
         rdf:about="">
        <dc:format>image/svg+xml</dc:format>
        <dc:type
           rdf:resource="http://purl.org/dc/dcmitype/StillImage" />
        <dc:title></dc:title>
      </cc:Work>
    </rdf:RDF>
  </metadata>
  <g
     inkscape:label="Layer 1"
     inkscape:groupmode="layer"
     id="layer1"
     transform="translate(-161.1361,-442.06971)">
    <path
       inkscape:connector-curvature="0"
       id="path3104"
       d="m 220.14257,528.49694 24.58446,0"
       style="fill:none;stroke:#000000;stroke-width:1.44566929;stroke-miterlimit:4;stroke-dasharray:none;display:inline" />
    <path
       inkscape:connector-curvature="0"
       id="path3106"
       d="m 226.81201,477.67039 -0.12176,0.55961 -0.63287,1.45978 -1.53348,2.57904 -4.38139,6.73974 -2.50713,3.69823 -2.0203,3.60091 -1.02233,2.65203 1.02233,1.58147 0.97363,-1.99509 3.62682,-6.95852 3.67549,-6.13128 1.5335,-2.99281 1.26573,-2.48175 0.34077,-0.85156 0.0731,-0.82721 -0.14605,-0.63259 -0.14604,0 z"
       style="fill:#009000;stroke:none;display:inline" />
    <path
       inkscape:connector-curvature="0"
       id="path3108"
       d="m 232.6782,464.8239 0.97364,0.97318 0.53551,1.04625 0.21906,1.16786 -0.0731,1.4598 -0.19474,0.90026 -0.55983,1.53278 -4.52744,8.97794 -2.77489,5.20694 -2.31239,4.86609 -1.72822,3.62524 -3.21302,6.73955 -1.16837,2.70069 -1.67953,3.77122 -0.55984,1.72746 -0.53551,1.87345 -0.14604,2.01943 -0.82759,-6.73955 1.24139,-0.90023 0.70588,-1.6788 2.77489,-7.15315 3.33472,-6.81255 3.96759,-7.85894 3.11566,-5.83928 3.06696,-5.49869 0.77891,-1.80046 0.60854,-1.6788 -0.0487,-0.82727 -0.43814,-1.04617 -0.48682,-0.48665 -0.0487,-0.2676 z"
       style="fill:#009000;stroke:none;display:inline" />
    <path
       inkscape:connector-curvature="0"
       id="path3110"
       d="m 225.18115,511.44127 0.65721,-4.20917 0.70589,-3.81989 1.31442,-3.89288 1.19272,-2.99265 1.19271,-4.03886 0.41379,-2.43305 -0.073,2.91966 -0.63286,4.03886 -1.38745,5.4257 -0.63286,3.04131 -0.26776,2.16542 -0.0974,1.24085 -2.142,2.09242 -0.24342,0.46228 z"
       style="fill:#009000;stroke:none;display:inline" />
    <path
       inkscape:connector-curvature="0"
       id="path3112"
       d="m 231.48549,463.21809 -1.94729,12.91945 -0.97365,3.84421 -1.26572,5.35292 -2.28806,9.17258 -1.1197,5.20672 -1.16836,6.3016 -1.41179,4.47681 1.72823,3.26028 0.80325,-1.04621 1.31442,-10.21881 2.8479,-13.8197 2.0203,-10.29196 1.53349,-11.41104 0.26775,-3.6739 -0.34077,-0.0729 z"
       style="fill:#009000;stroke:none;display:inline" />
    <path
       inkscape:connector-curvature="0"
       id="path3114"
       d="m 196.99401,470.39558 1.65519,2.31135 7.2293,10.82728 6.62076,10.51076 4.64935,7.93174 3.82154,7.08017 1.11969,2.57903 1.09535,1.94644 -1.99596,2.04377 -0.51117,-2.36007 -1.92295,-3.50358 -2.16635,-3.62524 -3.33493,-5.57168 -4.72215,-7.4938 -3.5538,-5.64467 -1.72821,-2.99264 -1.38744,-2.48187 -2.31241,-4.9391 -1.3144,-2.99265 -0.90062,-2.23844 -0.48683,-1.3868 0.14604,0 z"
       style="fill:#009000;stroke:none;display:inline" />
    <path
       inkscape:connector-curvature="0"
       id="path3116"
       d="m 214.10598,515.45579 -1.85012,-12.67618 -0.53551,-4.91475 -1.53348,-11.9706 -0.4138,-5.88817 -0.0974,-7.1288 1.19271,7.81008 0.99799,8.41852 1.53348,10.29179 0.8278,7.49379 1.82558,13.77105 -1.46046,-2.57903 -0.48681,-2.6277 z"
       style="fill:#009000;stroke:none;display:inline" />
    <path
       inkscape:connector-curvature="0"
       id="path3118"
       d="m 214.30071,507.32942 0.29209,-5.15807 1.26573,-10.38912 0.4138,-4.67145 0.7059,-8.07788 0.0487,-7.56682 0.51116,0 -0.17038,9.3916 -0.38945,4.45264 -1.16838,11.58132 -0.87628,10.19447"
       style="fill:#009000;stroke:none;display:inline" />
    <path
       inkscape:connector-curvature="0"
       id="path3120"
       d="m 215.61513,523.97147 30.03686,-30.24279 0.80325,1.04621 -8.90883,8.80764 1.02233,1.28951 -9.03053,9.02661 1.38744,1.38683 -15.40788,15.64451 -15.55414,-15.64451 1.41178,-1.26518 -9.39564,-9.14826 1.38743,-1.28951 -9.03053,-8.9293 0.92496,-0.68124 30.3535,29.99948 z"
       style="fill:#000000;stroke:#000000;stroke-width:0.35433072;stroke-miterlimit:4;stroke-dasharray:none;display:inline" />
    <path
       inkscape:connector-curvature="0"
       id="path3122"
       d="m 185.13994,528.42396 25.50941,0"
       style="fill:none;stroke:#000000;stroke-width:1.44566929;stroke-miterlimit:4;stroke-dasharray:none;display:inline" />
    <path
       inkscape:connector-curvature="0"
       id="path3124"
       d="m 195.87433,492.65813 0.97364,0.97323 1.04666,1.45982 1.94729,2.96832 2.09333,3.4306 2.96961,5.3527 2.09333,4.01454 0.97364,1.82478 0.34077,1.09487 5.35524,5.15807 -0.41401,-1.67881 -1.80123,-5.49869 -2.99395,-7.78575 -2.8479,-7.37214 -1.46046,-3.52792 -1.19271,-2.65202 -1.16838,-2.14108 -1.33876,-2.31139 -0.82759,-1.31385 -0.68155,-1.1922 -1.04667,-1.16806 -1.75255,-1.80046 -1.09535,-1.33817 2.62884,2.43304 1.60651,1.60601 2.0203,2.65203 3.96759,6.44758 2.99395,6.20427 3.74852,9.24558 1.72842,5.35271 2.23938,7.56678 -0.29209,0.21898 -2.069,-1.94644 -10.83196,-10.43778 -0.92496,-2.84667 -0.92497,-2.09241 -2.06898,-4.72012 -1.38744,-3.21162 -1.53349,-2.91967 -0.073,-0.0487 z"
       style="fill:#009000;stroke:none;display:inline" />
    <path
       inkscape:connector-curvature="0"
       id="path3126"
       d="m 216.41838,471.17412 -0.34077,-1.72747 0.12163,-0.34059 0.12176,-0.292 -0.0487,-0.68125 -0.12176,-0.24327 -0.21906,-0.0973 -0.24342,-0.53522 0.17039,-0.58393 -0.17039,-0.34067 -0.21906,-0.17027 -0.19474,-0.41366 0.0731,-0.29193 -0.0731,-0.17035 -0.21906,-0.0487 -0.24342,-0.34059 0.0731,-0.36499 -0.12176,-0.21894 -0.17038,-0.19468 -0.17039,-0.21897 0,-0.29193 -0.24341,-0.292 -0.17039,-0.36497 0.0731,-0.34058 0.38946,-0.46232 -0.12176,-0.46228 -0.21906,-0.21898 -0.36512,-0.24326 -0.0487,-0.46227 0.12176,-0.17032 0.2434,-0.21902 0.0974,-0.31625 -0.0487,-0.21901 -0.29209,-0.24331 -0.21908,-0.26764 -0.24361,-0.29196 -0.0731,-0.29193 -0.0487,-0.29201 0.2923,-0.36495 -0.12189,-0.34058 0.2923,-0.21899 -0.0731,-0.36499 -0.0974,-0.14594 -0.24361,-0.31633 -0.12175,-0.38926 -0.14605,-0.292 0,-0.36496 0.0487,-0.21898 -0.073,-0.97321 0.17039,0.26764 0.2434,-0.80287 0.0731,-0.51094 0.14625,-0.46232 0.36512,-0.24327 0.17038,0.36492 0.24342,0.34067 0.46248,0.17027 0.51116,0.0973 0.29209,0.48661 0.0487,0.5596 -0.0487,0.53531 0.26775,0.48662 0.43814,0.21893 0.19473,0.34066 0.38946,0.29193 0.0974,0.63259 0.12176,1.09492 0,0.4136 -0.0243,0.36493 0.26776,0.24335 0.26774,0.4379 0,0.38933 0.24341,0.46228 0.58419,0.1946 -0.4138,0.68126 0.29209,0.87594 0.48682,0.34058 -0.31643,0.58393 0.36512,0.58394 -0.19474,0.46232 -0.26774,0.87584 -0.12176,0.38933 0,0.70555 0.14605,0.9246 -0.34078,0.63259 0.0731,0.97319 0,0.77857 -0.21907,0.38928 -0.19473,0.53528 -0.24341,0.58393 -0.14604,0.68125"
       style="fill:#009000;stroke:none;display:inline" />
    <path
       inkscape:connector-curvature="0"
       id="path3128"
       d="m 176.79096,483.63153 38.89719,37.49327 37.36351,-37.80957 -38.04506,-37.54213 -38.09393,38.15039"
       style="fill:none;stroke:#000000;stroke-width:1.41732287;stroke-miterlimit:4;stroke-dasharray:none;display:inline" />
    <text
       xml:space="preserve"
       style="font-size:10px;font-style:normal;font-variant:normal;font-weight:normal;font-stretch:normal;text-align:center;line-height:125%;letter-spacing:0px;word-spacing:0px;text-anchor:middle;fill:#000000;fill-opacity:1;stroke:none;display:inline;font-family:LMSans17;-inkscape-font-specification:LMSans17"
       x="214.45155"
       y="541.3335"
       id="text3025"
       sodipodi:linespacing="125%"><tspan
         sodipodi:role="line"
         id="tspan3027"
         x="214.45155"
         y="541.3335">http://grass.osgeo.org</tspan></text>
    <rect
       style="fill:none;stroke:#000000;stroke-width:1.77165353;stroke-miterlimit:4;stroke-opacity:1;stroke-dasharray:none;display:inline"
       id="rect2999-5-6-0"
       width="104.52757"
       height="104.52757"
       x="162.02193"
       y="442.95554" />
  </g>
</svg>
