<?xml version="1.0" encoding="UTF-8" standalone="no"?>
<!-- Created with Inkscape (http://www.inkscape.org/) -->

<svg
   xmlns:dc="http://purl.org/dc/elements/1.1/"
   xmlns:cc="http://creativecommons.org/ns#"
   xmlns:rdf="http://www.w3.org/1999/02/22-rdf-syntax-ns#"
   xmlns:svg="http://www.w3.org/2000/svg"
   xmlns="http://www.w3.org/2000/svg"
   xmlns:sodipodi="http://sodipodi.sourceforge.net/DTD/sodipodi-0.dtd"
   xmlns:inkscape="http://www.inkscape.org/namespaces/inkscape"
   width="76.890549mm"
   height="22.093281mm"
   viewBox="0 0 272.44683 78.283278"
   id="svg2"
   version="1.1"
   inkscape:version="0.91 r13725"
   sodipodi:docname="logo.svg">
  <defs
     id="defs4" />
  <sodipodi:namedview
     id="base"
     pagecolor="#ffffff"
     bordercolor="#666666"
     borderopacity="1.0"
     inkscape:pageopacity="0.0"
     inkscape:pageshadow="2"
     inkscape:zoom="2.8"
     inkscape:cx="164.25424"
     inkscape:cy="51.30605"
     inkscape:document-units="px"
     inkscape:current-layer="layer1"
     showgrid="false"
     inkscape:window-width="1600"
     inkscape:window-height="853"
     inkscape:window-x="-2"
     inkscape:window-y="-3"
     inkscape:window-maximized="1"
     fit-margin-top="0"
     fit-margin-left="0"
     fit-margin-right="0"
     fit-margin-bottom="0" />
  <metadata
     id="metadata7">
    <rdf:RDF>
      <cc:Work
         rdf:about="">
        <dc:format>image/svg+xml</dc:format>
        <dc:type
           rdf:resource="http://purl.org/dc/dcmitype/StillImage" />
        <dc:title></dc:title>
      </cc:Work>
    </rdf:RDF>
  </metadata>
  <g
     inkscape:label="Layer 1"
     inkscape:groupmode="layer"
     id="layer1"
     transform="translate(-114.59288,-315.17977)">
    <g
       id="g4221">
      <path
         style="fill:#999999"
         d="m 254.84287,393.04258 c -2.76691,-0.87506 -4.46064,-2.33356 -5.60941,-4.83035 -0.96188,-2.09062 -0.9924,-6.54651 -0.0587,-8.56525 1.50886,-3.26213 4.1902,-5.08154 7.84174,-5.32096 2.65631,-0.17417 4.27574,0.2457 6.12433,1.58784 1.91576,1.39091 3.27426,4.13963 3.48219,7.04569 l 0.15044,2.10268 -6.64031,0 c -6.47529,0 -6.64031,0.0152 -6.64031,0.60963 0,0.3353 0.19438,1.07485 0.43195,1.64343 1.13631,2.71958 5.66268,3.07821 7.60974,0.60293 0.53589,-0.68128 0.80535,-0.75599 2.72649,-0.75599 1.1725,0 2.13182,0.069 2.13182,0.15327 0,0.68717 -1.49595,3.04311 -2.54811,4.01296 -2.10543,1.94071 -5.96286,2.67524 -9.00189,1.71412 z m 6.74507,-11.65535 c -0.003,-0.20625 -0.31024,-0.915 -0.68338,-1.575 -1.06052,-1.87578 -3.36564,-2.36148 -5.63587,-1.1875 -0.73197,0.37852 -1.77582,2.02899 -1.77582,2.80784 0,0.22327 1.30707,0.32966 4.05,0.32966 3.04264,0 4.04878,-0.0933 4.04507,-0.375 z m 12.79345,11.49932 c -0.96881,-0.32008 -2.16708,-0.96275 -2.66283,-1.42815 -1.00642,-0.94482 -2.00905,-2.89197 -2.0191,-3.92117 -0.006,-0.64048 0.10828,-0.675 2.23939,-0.675 l 2.24597,0 0.42897,1.02666 c 0.53676,1.28465 1.49013,1.92184 3.19857,2.13775 1.68925,0.21349 3.29838,-0.55217 3.72119,-1.77064 0.25875,-0.74566 0.19551,-0.94362 -0.48968,-1.533 -0.43273,-0.37222 -1.71249,-0.91294 -2.84389,-1.20161 -4.38054,-1.11764 -5.12787,-1.36531 -6.12596,-2.03018 -3.08559,-2.05547 -2.51002,-6.53881 1.06929,-8.32898 1.33879,-0.66959 1.86945,-0.75 4.94956,-0.75 3.02379,0 3.62849,0.0879 4.8948,0.71134 1.56463,0.77035 2.7683,2.27916 3.08618,3.86856 l 0.19402,0.9701 -2.36426,0 c -2.31016,0 -2.37292,-0.0196 -2.7423,-0.85403 -0.45391,-1.02546 -1.4852,-1.54597 -3.06302,-1.54597 -2.27415,0 -3.4496,1.00947 -2.7335,2.34752 0.38562,0.72054 1.21957,1.04468 5.10297,1.9834 5.00998,1.21105 6.60123,2.74337 6.21709,5.98685 -0.40715,3.43768 -3.03552,5.28784 -7.78208,5.47796 -2.14954,0.0861 -3.14945,-0.0181 -4.52138,-0.47141 z m 21.86148,0.15603 c -2.66219,-0.84194 -4.29939,-2.21207 -5.59266,-4.68035 -0.98829,-1.88621 -1.02966,-6.65339 -0.0756,-8.71525 1.58549,-3.4266 4.19987,-5.11821 8.2183,-5.31754 2.42707,-0.1204 2.64272,-0.0781 4.47322,0.87814 2.98369,1.55861 4.82678,4.7696 4.82678,8.4091 l 0,1.44555 -6.63925,0 -6.63925,0 0.18142,1.11796 c 0.35881,2.21107 1.79578,3.37027 4.18698,3.37762 1.63826,0.005 2.8876,-0.54095 3.75179,-1.63959 0.53589,-0.68128 0.80535,-0.75599 2.72649,-0.75599 1.1725,0 2.13182,0.072 2.13182,0.15997 0,0.63792 -1.66986,3.22367 -2.65882,4.11713 -2.02743,1.83167 -5.93881,2.53696 -8.89118,1.60325 z m 6.58221,-11.95535 c -0.64665,-2.09627 -1.29368,-2.72175 -3.18202,-3.076 -1.49112,-0.27974 -3.64339,0.68089 -4.27889,1.90981 -0.93884,1.81551 -0.88865,1.84119 3.59892,1.84119 l 4.07022,0 -0.20823,-0.675 z m 11.76435,11.95724 c -3.11663,-1.16484 -4.37458,-4.47905 -2.87549,-7.57577 0.85065,-1.75721 2.72111,-2.62607 6.97774,-3.24129 3.70927,-0.53611 4.31853,-0.78136 4.58572,-1.84597 0.43826,-1.74614 -0.84717,-2.81921 -3.37713,-2.81921 -1.09603,0 -1.52039,0.16684 -2.23047,0.87692 -0.48231,0.48231 -0.87693,1.08981 -0.87693,1.35 0,0.39366 -0.42805,0.47308 -2.55,0.47308 -2.89757,0 -2.97368,-0.088 -1.97606,-2.28483 1.20477,-2.653 4.0647,-3.84526 8.79967,-3.66845 2.52807,0.0944 3.34096,0.24752 4.5608,0.85908 2.68146,1.34433 2.69387,1.3863 2.86559,9.6904 0.0825,3.98959 0.26257,7.42797 0.40015,7.64085 0.19899,0.30788 -0.29191,0.36924 -2.4,0.3 -2.47871,-0.0814 -2.65628,-0.13016 -2.74489,-0.75348 -0.0944,-0.66387 -0.10097,-0.6629 -1.72446,0.25334 -1.32787,0.7494 -2.06043,0.94352 -3.95526,1.04809 -1.57198,0.0868 -2.69929,-0.0113 -3.47898,-0.30276 z m 7.23401,-3.65745 c 0.94493,-0.61914 1.56943,-2.16991 1.56943,-3.89725 0,-1.20962 -0.0687,-1.36283 -0.525,-1.17081 -0.28875,0.12151 -1.52154,0.40209 -2.73955,0.62351 -1.218,0.22142 -2.53211,0.61065 -2.92024,0.86496 -1.45416,0.95281 -1.2982,3.21982 0.27025,3.92816 1.14409,0.5167 3.2869,0.3448 4.34511,-0.34857 z m 31.86943,3.59713 c -4.21321,-1.52594 -6.19179,-4.75285 -5.9353,-9.68005 0.2965,-5.69598 3.70539,-9.04187 9.2121,-9.04187 4.62621,0 7.86804,2.2492 8.61341,5.97604 l 0.18479,0.92396 -2.52546,0 -2.52546,0 -0.28704,-0.95058 c -0.39693,-1.3145 -1.61555,-2.13474 -3.22433,-2.17025 -2.83307,-0.0625 -4.15499,1.57702 -4.35577,5.40242 -0.10909,2.07849 -0.0285,2.68778 0.50013,3.77972 0.77351,1.59785 1.95862,2.33869 3.7412,2.33869 1.63753,0 2.98492,-0.98406 3.50497,-2.55982 l 0.34329,-1.04018 2.41012,0 2.41012,0 -0.2091,1.11463 c -0.43538,2.32076 -1.93116,4.25779 -4.16009,5.38727 -1.98272,1.00472 -5.67128,1.25391 -7.69758,0.52002 z m -119.4,-9.27192 0,-9.15 2.4,0 2.4,0 0,1.71964 0,1.71964 0.71575,-1.05332 c 0.9819,-1.445 3.33814,-2.68596 5.09985,-2.68596 l 1.3844,0 0,2.33 0,2.33 -1.72742,0 c -2.07808,0 -3.5227,0.73692 -4.41196,2.25061 -0.53974,0.91875 -0.62214,1.65745 -0.70991,6.36439 l -0.0993,5.325 -2.5257,0 -2.52571,0 0,-9.15 z m 99.0706,0.075 0.0794,-9.075 2.325,-0.0876 2.325,-0.0876 0,1.71662 0,1.71662 1.10826,-1.29476 c 1.30794,-1.52803 3.04815,-2.39751 4.81674,-2.40666 l 1.275,-0.007 0,2.33 0,2.33 -1.725,0.0104 c -2.21791,0.0133 -3.4817,0.68652 -4.33807,2.31081 -0.60053,1.13902 -0.6806,1.79823 -0.78264,6.44382 l -0.11366,5.175 -2.52471,0 -2.52472,0 0.0794,-9.075 z m 36.2294,-3.525 0,-12.6 2.55,0 2.55,0 0,4.67337 0,4.67338 1.24365,-1.06452 c 1.64652,-1.40935 2.9076,-1.78781 5.37027,-1.6116 2.47689,0.17721 3.77592,0.90548 4.79751,2.68954 0.72003,1.25746 0.74103,1.47239 0.837,8.56483 l 0.0984,7.275 -2.57343,0 -2.57343,0 0,-6.02966 c 0,-6.71814 -0.2172,-7.71473 -1.8267,-8.38141 -1.19214,-0.4938 -3.1725,-0.18823 -4.03569,0.62272 -1.02903,0.96672 -1.33761,2.97443 -1.33761,8.70311 l 0,5.08524 -2.55,0 -2.55,0 0,-12.6 z M 247.31489,367.35624 c -2.85654,-0.57381 -5.16992,-2.22446 -6.64488,-4.74129 -0.63093,-1.0766 -0.81563,-1.84219 -0.91885,-3.8086 -0.11562,-2.20295 -0.0417,-2.65616 0.70508,-4.3201 1.59443,-3.55286 5.00489,-5.58558 8.98663,-5.35626 1.155,0.0665 2.6087,0.34262 3.23045,0.61356 0.62174,0.27093 1.20169,0.49245 1.28876,0.49227 0.0871,-1.9e-4 0.74063,0.59881 1.45234,1.33111 4.61563,4.74913 3.47376,12.09729 -2.30914,14.85977 -2.0838,0.99542 -3.96165,1.29688 -5.79039,0.92954 z m -72.77826,-3.79895 c 0.21656,-0.0867 0.47531,-0.076 0.575,0.0237 0.0997,0.0997 -0.0775,0.17059 -0.39375,0.15757 -0.34949,-0.0144 -0.42057,-0.0855 -0.18125,-0.18125 z m 7.79999,0 c 0.21657,-0.0867 0.47532,-0.076 0.57501,0.0237 0.0997,0.0997 -0.0775,0.17059 -0.39375,0.15757 -0.34949,-0.0144 -0.42057,-0.0855 -0.18126,-0.18125 z m 133.65625,0.005 c 0.11,-0.11 0.29,-0.11 0.4,0 0.11,0.11002 0.02,0.20002 -0.2,0.20002 -0.22,0 -0.31,-0.09 -0.2,-0.20001 z m 6.44375,-0.005 c 0.21656,-0.0867 0.47532,-0.076 0.575,0.0237 0.0997,0.0997 -0.0775,0.17059 -0.39375,0.15757 -0.34948,-0.0144 -0.42057,-0.0855 -0.18125,-0.18125 z m -150.14375,-0.29507 c 0.11001,-0.10999 0.29001,-0.10999 0.40001,0 0.10999,0.11001 0.02,0.20001 -0.2,0.20001 -0.22,0 -0.31,-0.09 -0.20001,-0.20001 z m 152.1,0 c 0.11,-0.10999 0.29,-0.10999 0.4,0 0.11,0.11001 0.02,0.20001 -0.2,0.20001 -0.22,0 -0.31,-0.09 -0.2,-0.20001 z m -90.7,-3.39999 c 0,-0.22 0.09,-0.31 0.2,-0.20001 0.11,0.11001 0.11,0.29001 0,0.40001 -0.11,0.10999 -0.2,0.02 -0.2,-0.2 z m 101.4,-1.95 c 0.55973,-0.5775 1.0852,-1.05 1.1677,-1.05 0.0825,0 -0.30797,0.4725 -0.8677,1.05 -0.55973,0.5775 -1.0852,1.05 -1.1677,1.05 -0.0825,0 0.30797,-0.4725 0.8677,-1.05 z m -101.67631,-0.625 c 0.0144,-0.34949 0.0855,-0.42057 0.18125,-0.18125 0.0867,0.21656 0.076,0.47531 -0.0237,0.575 -0.0997,0.0997 -0.1706,-0.0775 -0.15757,-0.39375 z m -0.3,-3.3 c 0.0144,-0.34949 0.0855,-0.42057 0.18125,-0.18125 0.0867,0.21656 0.076,0.47531 -0.0237,0.575 -0.0997,0.0997 -0.1706,-0.0775 -0.15757,-0.39375 z m -49.07369,-2.22501 c 0.10198,-0.165 0.25291,-0.3 0.33541,-0.3 0.0825,0 0.0666,0.135 -0.0354,0.3 -0.10197,0.165 -0.2529,0.3 -0.3354,0.3 -0.0825,0 -0.0666,-0.135 0.0354,-0.3 z m 48.75,0 c 0,-0.21999 0.09,-0.30999 0.2,-0.2 0.11,0.11 0.11,0.29 0,0.40001 -0.11,0.10999 -0.2,0.02 -0.2,-0.20001 z m -47.85,-0.9 c 0.10198,-0.165 0.25291,-0.3 0.33541,-0.3 0.0825,0 0.0666,0.135 -0.0354,0.3 -0.10197,0.165 -0.2529,0.3 -0.3354,0.3 -0.0825,0 -0.0666,-0.135 0.0354,-0.3 z m 126.8715,-0.375 -0.5715,-0.675 0.675,0.5715 c 0.63433,0.53707 0.81157,0.7785 0.5715,0.7785 -0.0569,0 -0.36068,-0.30375 -0.675,-0.675 z m -113.2215,-1.725 c 0,-0.21999 0.09,-0.30999 0.20001,-0.2 0.10999,0.11 0.10999,0.29 0,0.40001 -0.11001,0.10999 -0.20001,0.02 -0.20001,-0.20001 z m -40.47631,-1.97499 c 0.0144,-0.34949 0.0855,-0.42057 0.18125,-0.18126 0.0867,0.21657 0.076,0.47532 -0.0237,0.57501 -0.0997,0.0997 -0.17059,-0.0775 -0.15757,-0.39375 z m 182.37631,0.17499 c 0,-0.21999 0.09,-0.30999 0.2,-0.2 0.11,0.11 0.11,0.29 0,0.40001 -0.11,0.10999 -0.2,0.02 -0.2,-0.20001 z m -170.09999,-0.3 c 0,-0.21999 0.09,-0.30999 0.2,-0.2 0.10999,0.11 0.10999,0.29 0,0.40001 -0.11,0.10999 -0.2,0.02 -0.2,-0.20001 z m 126.29999,0 c 0,-0.21999 0.09,-0.30999 0.2,-0.2 0.11,0.11 0.11,0.29 0,0.40001 -0.11,0.10999 -0.2,0.02 -0.2,-0.20001 z m 31.5,-0.3 c 0,-0.21999 0.09,-0.30999 0.2,-0.2 0.11,0.11 0.11,0.29 0,0.40001 -0.11,0.10999 -0.2,0.02 -0.2,-0.20001 z m -141.57631,-0.47499 c 0.0144,-0.34949 0.0855,-0.42057 0.18125,-0.18126 0.0867,0.21657 0.076,0.47532 -0.0237,0.57501 -0.0997,0.0997 -0.17059,-0.0775 -0.15757,-0.39375 z m 12.34591,-0.42501 c 0,-0.5775 0.0617,-0.81375 0.1372,-0.525 0.0755,0.28875 0.0755,0.76125 0,1.05 -0.0755,0.28875 -0.1372,0.0525 -0.1372,-0.525 z m 28.5304,0.4 c 0.11,-0.10999 0.29,-0.10999 0.4,0 0.11,0.11 0.02,0.2 -0.2,0.2 -0.22,0 -0.31,-0.09 -0.2,-0.2 z m 68.9,-0.4 c 0,-0.21999 0.09,-0.30999 0.2,-0.2 0.11,0.11 0.11,0.29 0,0.40001 -0.11,0.10999 -0.2,0.02 -0.2,-0.20001 z m -28.5,-0.3 c 0,-0.21999 0.09,-0.30999 0.2,-0.2 0.11,0.11 0.11,0.29 0,0.40001 -0.11,0.10999 -0.2,0.02 -0.2,-0.20001 z m 63.69131,-0.52402 c 1.78271,-0.0531 4.61771,-0.0529 6.3,3e-4 1.68228,0.0534 0.22369,0.0968 -3.24131,0.0966 -3.465,-2.5e-4 -4.84141,-0.0439 -3.05869,-0.097 z m -89.66995,-1.02233 c -0.13263,-0.21459 -0.0823,-0.26492 0.13229,-0.13229 0.34583,0.21373 0.4643,0.47864 0.21406,0.47864 -0.0728,0 -0.22862,-0.15585 -0.34635,-0.34635 z m 54.17864,0.0464 c 0,-0.21999 0.09,-0.30999 0.2,-0.2 0.11,0.11 0.11,0.29 0,0.40001 -0.11,0.10999 -0.2,0.02 -0.2,-0.20001 z m -163.57499,-0.2246 c 3.17625,-0.0486 8.37375,-0.0486 11.55,0 3.17625,0.0486 0.5775,0.0883 -5.775,0.0883 -6.3525,0 -8.95125,-0.0398 -5.775,-0.0883 z m 175.87499,-0.0754 c 0,-0.21999 0.09,-0.30999 0.2,-0.2 0.11,0.11 0.11,0.29 0,0.40001 -0.11,0.10999 -0.2,0.02 -0.2,-0.20001 z m -67.67864,-0.94635 c -0.13263,-0.21459 -0.0823,-0.26492 0.13229,-0.13229 0.34583,0.21373 0.4643,0.47864 0.21406,0.47864 -0.0728,0 -0.22862,-0.15585 -0.34635,-0.34635 z m 55.1795,-2.95365 c 0,-1.2375 0.053,-1.74375 0.11768,-1.125 0.0647,0.61875 0.0647,1.63125 0,2.25 -0.0647,0.61875 -0.11768,0.1125 -0.11768,-1.125 z m 12.29516,0 c 0,-1.0725 0.0545,-1.51125 0.121,-0.975 0.0666,0.53625 0.0666,1.41375 0,1.95 -0.0665,0.53625 -0.121,0.0975 -0.121,-0.975 z m -67.14602,-0.3 c 0.10198,-0.165 0.25291,-0.3 0.33541,-0.3 0.0825,0 0.0666,0.135 -0.0354,0.3 -0.10197,0.165 -0.25291,0.3 -0.33541,0.3 -0.0825,0 -0.0666,-0.135 0.0354,-0.3 z m 1.2,-1.2 c 0.10198,-0.165 0.25291,-0.3 0.33541,-0.3 0.0825,0 0.0666,0.135 -0.0354,0.3 -0.10197,0.165 -0.25291,0.3 -0.33541,0.3 -0.0825,0 -0.0666,-0.135 0.0354,-0.3 z m -13.85,-1.7 c 0.11,-0.11 0.29,-0.11 0.4,0 0.11,0.11 0.02,0.2 -0.2,0.2 -0.22,0 -0.31,-0.09 -0.2,-0.2 z m 80,-0.7 c 0,-0.22 0.09,-0.31 0.2,-0.2 0.11,0.11 0.11,0.29 0,0.4 -0.11,0.11 -0.2,0.02 -0.2,-0.2 z m -12.3,-0.3 c 0,-0.22 0.09,-0.31 0.2,-0.2 0.11,0.11 0.11,0.29 0,0.4 -0.11,0.11 -0.2,0.02 -0.2,-0.2 z m 0.3,-1.8 c 0,-0.22 0.09,-0.31 0.2,-0.2 0.11,0.11 0.11,0.29 0,0.4 -0.11,0.11 -0.2,0.02 -0.2,-0.2 z m 0.3,-1.2 c 0,-0.22 0.09,-0.31 0.2,-0.2 0.11,0.11 0.11,0.29 0,0.4 -0.11,0.11 -0.2,0.02 -0.2,-0.2 z m -51.6,-0.6 c 0,-0.22 0.09,-0.31 0.2,-0.2 0.11,0.11 0.11,0.29 0,0.4 -0.11,0.11 -0.2,0.02 -0.2,-0.2 z m 95.4,-1.2 c 0,-0.22 0.09,-0.31 0.2,-0.2 0.11,0.11 0.11,0.29 0,0.4 -0.11,0.11 -0.2,0.02 -0.2,-0.2 z m -67.4,-1.1 c 0.11,-0.11 0.29,-0.11 0.4,0 0.11,0.11 0.02,0.2 -0.2,0.2 -0.22,0 -0.31,-0.09 -0.2,-0.2 z m 38.75,-1 c 0.10198,-0.165 0.25291,-0.3 0.33541,-0.3 0.0825,0 0.0666,0.135 -0.0354,0.3 -0.10197,0.165 -0.25291,0.3 -0.33541,0.3 -0.0825,0 -0.0666,-0.135 0.0354,-0.3 z m -66.75,-1.5 c 0,-0.22 0.09,-0.31 0.2,-0.2 0.11,0.11 0.11,0.29 0,0.4 -0.11,0.11 -0.2,0.02 -0.2,-0.2 z m 71.8,-1.1 c 0.11,-0.11 0.29,-0.11 0.4,0 0.11,0.11 0.02,0.2 -0.2,0.2 -0.22,0 -0.31,-0.09 -0.2,-0.2 z m 4.2,0 c 0.11,-0.11 0.29,-0.11 0.4,0 0.11,0.11 0.02,0.2 -0.2,0.2 -0.22,0 -0.31,-0.09 -0.2,-0.2 z m 15.92135,-2.84635 c -0.13262,-0.21459 -0.0823,-0.26492 0.1323,-0.13229 0.19049,0.11773 0.34635,0.27359 0.34635,0.34635 0,0.25024 -0.26491,0.13176 -0.47865,-0.21406 z m -32.37135,-2.95365 c 0.10198,-0.165 0.25291,-0.3 0.33541,-0.3 0.0825,0 0.0666,0.135 -0.0354,0.3 -0.10197,0.165 -0.25291,0.3 -0.33541,0.3 -0.0825,0 -0.0666,-0.135 0.0354,-0.3 z m -71.45,-3.5 c 0.11,-0.11 0.29,-0.11 0.4,0 0.11,0.11 0.02,0.2 -0.2,0.2 -0.22,0 -0.31,-0.09 -0.2,-0.2 z m -2.575,-0.29868 c 0.20625,-0.0832 0.54375,-0.0832 0.75,0 0.20625,0.0832 0.0375,0.15132 -0.375,0.15132 -0.4125,0 -0.58125,-0.0681 -0.375,-0.15132 z m 94.675,-0.30132 c 0.11,-0.11 0.29,-0.11 0.4,0 0.11,0.11 0.02,0.2 -0.2,0.2 -0.22,0 -0.31,-0.09 -0.2,-0.2 z m -11.1,-0.3 c 0.11,-0.11 0.29,-0.11 0.4,0 0.11,0.11 0.02,0.2 -0.2,0.2 -0.22,0 -0.31,-0.09 -0.2,-0.2 z m 2.1,-0.3 c 0.11,-0.11 0.29,-0.11 0.4,0 0.11,0.11 0.02,0.2 -0.2,0.2 -0.22,0 -0.31,-0.09 -0.2,-0.2 z m 5.7,0 c 0.11,-0.11 0.29,-0.11 0.4,0 0.11,0.11 0.02,0.2 -0.2,0.2 -0.22,0 -0.31,-0.09 -0.2,-0.2 z"
         id="path4214"
         inkscape:connector-curvature="0" />
      <path
         style="fill:#fd1a24"
         d="m 173.55455,363.4491 c -8.03729,-1.26344 -12.58956,-5.15246 -14.62799,-12.49673 -0.6218,-2.24028 -0.65433,-3.03465 -0.76228,-18.61515 l -0.11277,-16.275 6.17068,0 6.17069,0 0,15.13524 c 0,9.63531 0.11686,15.68016 0.3216,16.63481 0.73663,3.4348 3.04083,5.15729 7.1784,5.36615 4.39323,0.22176 6.47974,-0.74569 7.94999,-3.6862 l 0.9,-1.8 0.0898,-15.83116 0.0898,-15.83117 6.06024,0.0812 6.06024,0.0812 0.0885,13.05 c 0.0487,7.1775 -0.0496,14.75481 -0.21834,16.83845 -0.77811,9.60798 -4.58222,14.70743 -12.52594,16.79121 -2.70403,0.70931 -9.8822,1.02101 -12.83251,0.55722 z m 141.68758,0.0265 c -4.98789,-0.91419 -8.78142,-2.83991 -12.12783,-6.15649 -3.5483,-3.51668 -5.54838,-7.29159 -6.58585,-12.43003 -0.69404,-3.43754 -0.47383,-9.71868 0.4528,-12.91529 1.92173,-6.62941 6.46829,-12.03016 12.35772,-14.67947 3.38978,-1.52486 5.6817,-1.96364 10.1539,-1.94392 3.51269,0.0155 4.40672,0.12587 6.73883,0.83201 8.24838,2.49751 13.63591,8.10438 14.45097,15.03929 l 0.19281,1.6405 -6.19131,0 c -5.85709,0 -6.1913,-0.0304 -6.1913,-0.56336 0,-1.9105 -2.21935,-4.71029 -4.57751,-5.77467 -1.33337,-0.60184 -2.05149,-0.70958 -4.72249,-0.70851 -2.69932,0.001 -3.35327,0.10194 -4.57074,0.70494 -4.16588,2.06331 -6.34575,6.50897 -6.34575,12.9416 0,6.45018 2.17349,10.91862 6.27722,12.9052 1.97741,0.95725 5.65138,1.16643 8.08108,0.46009 2.9973,-0.87134 5.85819,-4.42107 5.85819,-7.26873 l 0,-0.69656 6.18457,0 6.18457,0 -0.20923,1.725 c -0.2877,2.37204 -1.50016,5.88354 -2.73117,7.91001 -2.30216,3.78976 -7.00925,7.156 -11.7386,8.39475 -2.61773,0.68566 -8.63341,1.00657 -10.94088,0.58366 z m -200.64925,-24.0134 0,-23.4 18.75,0 18.75,0 0,4.95 0,4.95 -12.6,0 -12.6,0 0,4.05 0,4.05 11.55,0 11.55,0 0,4.65 0,4.65 -11.55,0 -11.55,0 0,4.5 0,4.50001 12.9,0 12.9,0 0,5.25 0,5.25 -19.05,0 -19.05,0 0,-23.40001 z m 90.43802,23.02501 c -0.0787,-0.20625 -0.10824,-10.70251 -0.0656,-23.32501 l 0.0776,-22.95 13.5,0 c 11.99974,0 13.7585,0.0607 15.82608,0.54571 6.67355,1.56562 10.44703,5.48506 10.93981,11.36296 0.42693,5.09244 -1.81601,9.79241 -5.7825,12.11693 l -1.37125,0.80361 1.15059,0.51513 c 1.63532,0.73215 3.05479,2.26729 4.02564,4.35366 0.89735,1.92843 1.42861,4.352 0.95398,4.352 -0.75501,0 -2.94255,2.36369 -3.73209,4.0326 -0.69847,1.47642 -0.85736,2.21141 -0.84685,3.91741 0.007,1.155 0.20747,2.64 0.44525,3.3 0.23777,0.66 0.43434,1.23375 0.43683,1.275 0.002,0.0412 -1.28487,0.075 -2.8608,0.075 l -2.8653,0 -0.44674,-1.06921 c -0.24571,-0.58806 -0.64826,-3.05181 -0.89455,-5.475 -0.2463,-2.42319 -0.67081,-5.13508 -0.94337,-6.02642 -0.61614,-2.01496 -2.19447,-3.74138 -3.83473,-4.19452 -0.66046,-0.18246 -3.52675,-0.33226 -6.375,-0.33318 l -5.175,-0.002 0,8.55001 0,8.55 -6.00941,0 c -4.53119,0 -6.04463,-0.0923 -6.15256,-0.375 z m 25.63061,-26.77501 c 1.68156,-0.99047 2.24892,-2.01485 2.37305,-4.28459 0.0944,-1.72544 0.009,-2.16647 -0.59315,-3.06541 -0.38686,-0.5775 -1.30464,-1.35375 -2.03952,-1.725 -1.25151,-0.63224 -1.71218,-0.675 -7.27258,-0.675 l -5.93644,0 0,5.27172 0,5.27173 6.225,-0.0967 c 5.58151,-0.0867 6.3303,-0.15874 7.24364,-0.69672 z m 27.09154,25.57501 c 1.20029,-3.13749 0.27608,-7.08875 -2.24859,-9.61342 -1.14421,-1.14421 -1.17296,-1.22184 -0.84201,-2.27313 0.18846,-0.59865 3.07365,-8.31096 6.41154,-17.13846 l 6.06888,-16.05 6.19061,-0.081 c 5.68858,-0.0744 6.20725,-0.0379 6.39577,0.45 1.49664,3.87342 17.0899,45.37261 17.19275,45.75599 0.13087,0.48781 -0.30577,0.525 -6.16502,0.525 l -6.30587,0 -1.45412,-4.19795 -1.45412,-4.19795 -8.25,-0.001 -8.25,-10e-4 -1.45987,4.19932 -1.45987,4.19931 -2.48631,0 -2.4863,0 0.60253,-1.575 z m 19.56842,-19.95001 c -0.72196,-2.26875 -1.87903,-5.91375 -2.57129,-8.1 -0.69226,-2.18625 -1.33709,-3.97187 -1.43298,-3.96804 -0.0959,0.004 -1.30736,3.48008 -2.69217,7.725 -1.38481,4.24492 -2.57731,7.88679 -2.65,8.09304 -0.10255,0.291 1.07648,0.375 5.26346,0.375 l 5.39562,0 -1.31264,-4.125 z"
         id="path4212"
         inkscape:connector-curvature="0" />
    </g>
  </g>
</svg>
