<?xml version="1.0" encoding="UTF-8" standalone="no"?>
<svg
   xmlns:dc="http://purl.org/dc/elements/1.1/"
   xmlns:cc="http://creativecommons.org/ns#"
   xmlns:rdf="http://www.w3.org/1999/02/22-rdf-syntax-ns#"
   xmlns:svg="http://www.w3.org/2000/svg"
   xmlns="http://www.w3.org/2000/svg"
   xmlns:sodipodi="http://sodipodi.sourceforge.net/DTD/sodipodi-0.dtd"
   xmlns:inkscape="http://www.inkscape.org/namespaces/inkscape"
   width="744.09448"
   height="1052.3622"
   id="svg2"
   version="1.1"
   inkscape:version="0.48.4 r9939"
   sodipodi:docname="logo-cerny-napis.svg">
  <metadata
     id="metadata42">
    <rdf:RDF>
      <cc:Work
         rdf:about="">
        <dc:format>image/svg+xml</dc:format>
        <dc:type
           rdf:resource="http://purl.org/dc/dcmitype/StillImage" />
        <dc:title />
      </cc:Work>
    </rdf:RDF>
  </metadata>
  <sodipodi:namedview
     pagecolor="#ffffff"
     bordercolor="#666666"
     borderopacity="1"
     objecttolerance="10"
     gridtolerance="10"
     guidetolerance="10"
     inkscape:pageopacity="0"
     inkscape:pageshadow="2"
     inkscape:window-width="1854"
     inkscape:window-height="1048"
     id="namedview40"
     showgrid="false"
     inkscape:zoom="0.049472038"
     inkscape:cx="-2264.4035"
     inkscape:cy="836.84525"
     inkscape:window-x="0"
     inkscape:window-y="0"
     inkscape:window-maximized="0"
     inkscape:current-layer="svg2">
    <inkscape:grid
       type="xygrid"
       id="grid4288"
       empspacing="5"
       visible="true"
       enabled="true"
       snapvisiblegridlinesonly="true" />
  </sodipodi:namedview>
  <defs
     id="defs4">
    <marker
       id="ArrowEnd"
       viewBox="0 0 10 10"
       refX="0"
       refY="5"
       markerUnits="strokeWidth"
       markerWidth="4"
       markerHeight="3"
       orient="auto">
      <path
         d="M 0,0 10,5 0,10 z"
         id="path7"
         inkscape:connector-curvature="0" />
    </marker>
    <marker
       id="ArrowStart"
       viewBox="0 0 10 10"
       refX="10"
       refY="5"
       markerUnits="strokeWidth"
       markerWidth="4"
       markerHeight="3"
       orient="auto">
      <path
         d="M 10,0 0,5 10,10 z"
         id="path10"
         inkscape:connector-curvature="0" />
    </marker>
  </defs>
  <g
     inkscape:groupmode="layer"
     id="layer3"
     inkscape:label="whiteb"
     style="display:none" />
  <g
     inkscape:groupmode="layer"
     id="layer1"
     inkscape:label="green"
     style="display:none" />
  <g
     inkscape:groupmode="layer"
     id="layer2"
     inkscape:label="white"
     style="display:inline">
    <g
       id="g3013">
      <text
         sodipodi:linespacing="125%"
         id="text3938"
         y="420.82025"
         x="341.96982"
         style="font-size:46.44171905999999694px;font-style:normal;font-variant:normal;font-weight:500;font-stretch:normal;line-height:125%;letter-spacing:0px;word-spacing:0px;fill:#000000;fill-opacity:1;stroke:#000000;stroke-width:0.89908063000000005;stroke-opacity:1;display:inline;font-family:Century Schoolbook L;-inkscape-font-specification:Century Schoolbook L Medium"
         xml:space="preserve"><tspan
           style="stroke-width:0.89908063000000005;stroke:#000000;stroke-opacity:1;fill:#000000;fill-opacity:1"
           y="420.82025"
           x="341.96982"
           id="tspan3940"
           sodipodi:role="line">3</tspan></text>
      <text
         sodipodi:linespacing="125%"
         id="text4284"
         y="420.55359"
         x="379.07736"
         style="font-size:46.44171905999999694px;font-style:normal;font-variant:normal;font-weight:500;font-stretch:normal;line-height:125%;letter-spacing:0px;word-spacing:0px;fill:#000000;fill-opacity:1;stroke:#000000;stroke-width:0.89908063000000005;stroke-opacity:1;display:inline;font-family:Century Schoolbook L;-inkscape-font-specification:Century Schoolbook L Medium"
         xml:space="preserve"><tspan
           style="stroke-width:0.89908063000000005;stroke:#000000;stroke-opacity:1;fill:#000000;fill-opacity:1"
           y="420.55359"
           x="379.07736"
           id="tspan4286"
           sodipodi:role="line">0</tspan></text>
      <path
         sodipodi:nodetypes="cccccccccccccccccccccccc"
         style="fill:#000000;fill-opacity:1;stroke:#000000;stroke-width:0.89908063000000005;stroke-opacity:1;display:inline"
         d="m 357.50949,420.66428 -1.45176,3.31287 0.0297,4.05965 4.41416,45.3867 4.1498,44.47516 2.91415,33.5622 2.39529,29.95899 0.7018,10.91282 0.68655,8.23619 -1.25104,8.64791 -0.3204,-9.9863 -1.20528,-14.82507 -1.35784,-15.33981 -2.09028,-23.57591 -2.95979,-31.70907 -2.22746,-23.88483 -1.08322,-12.66307 -0.86964,-10.50175 -1.92081,-20.61631 -1.36596,-15.28224 -0.63895,-6.57646 -1.08501,-3.07994 1.23159,-0.1937 z"
         id="path24-7-6"
         inkscape:connector-curvature="0" />
      <path
         sodipodi:nodetypes="cccccccccccccccccc"
         style="fill:#000000;fill-opacity:1;stroke:#000000;stroke-width:0.89908063000000005;stroke-opacity:1;display:inline"
         d="m 389.65715,420.13532 1.47986,4.71519 -4.41458,37.98792 -2.13013,12.65676 -2.4316,17.24729 -6.13921,30.20003 -3.00427,17.14267 -3.17356,27.02309 -3.74937,8.46395 2.13618,8.33677 2.3826,-3.04496 5.80029,-31.64675 7.64135,-45.50026 4.29545,-34.07378 3.96188,-38.67166 0.92759,-6.91375 1.19109,-3.78989 z"
         id="path22-1-0"
         inkscape:connector-curvature="0" />
      <path
         sodipodi:nodetypes="cccccccccccccccccccccccccccccccc"
         style="fill:#009000;stroke:none;display:inline"
         d="m 442.76155,396.69212 3.98236,3.98219 2.19029,4.28118 0.89602,4.77882 -0.29867,5.97335 -0.79648,3.68385 -2.28984,6.27202 -18.51791,36.73714 -11.34969,21.30638 -9.45808,19.91174 -7.06866,14.83424 -13.14174,27.57776 -4.77882,11.05103 -6.86955,15.43157 -2.28985,7.06868 -1.57613,7.66601 1.53661,40.05719 c -4.27336,-16.74251 -6.75699,-25.18995 -10.71275,-39.86813 l 4.57885,-15.8792 5.07828,-10.50825 2.88721,-3.66922 11.34969,-29.27027 13.63953,-27.87642 16.22806,-32.15828 12.74351,-23.89389 12.54438,-22.50026 3.18589,-7.36734 2.48896,-6.86955 -0.19911,-3.38515 -1.79206,-4.28087 -1.99118,-1.99133 z"
         id="path18-8"
         inkscape:connector-curvature="0" />
      <path
         style="fill:#009d00;fill-opacity:1;stroke:none;display:inline"
         d="m 412.09749,587.44719 2.68808,-17.22364 2.88721,-15.63076 5.37617,-15.92934 4.87837,-12.24575 4.87837,-16.52675 1.69249,-9.95584 -0.29867,11.94701 -2.58852,16.52675 -5.67485,22.20159 -2.58852,12.44486 -1.09515,8.86074 -0.39824,5.07743 -8.76116,8.56208 -0.99558,1.89162 z"
         id="path20-2"
         inkscape:connector-curvature="0" />
      <path
         style="fill:#009000;stroke:none;display:inline"
         d="m 437.88318,390.12126 -7.96469,52.86548 -3.98235,15.73025 -5.17705,21.90374 -9.35851,37.53364 -4.57969,21.30552 -4.77882,25.78571 -5.7744,18.3188 7.06866,13.34085 3.28544,-4.28099 5.37616,-41.81469 11.64837,-56.5493 8.26336,-42.11397 6.2722,-46.69317 1.09514,-15.03336 -1.39382,-0.29851 z"
         id="path22-1"
         inkscape:connector-curvature="0" />
      <path
         style="fill:#004100;fill-opacity:1;stroke:none;display:inline"
         d="m 418.76792,449.2591 -0.49779,2.28985 -2.58853,5.97334 -6.27219,10.55321 -17.92056,27.57862 -10.25455,15.1329 -8.26337,14.73469 -4.18145,10.85183 4.18145,6.47135 3.98235,-8.16377 14.83424,-28.47384 15.03337,-25.08876 6.27218,-12.24638 5.17706,-10.15515 1.39383,-3.48454 0.29866,-3.38482 -0.59735,-2.58853 -0.59735,0 z"
         id="path16-5"
         inkscape:connector-curvature="0" />
      <path
         sodipodi:nodetypes="ccccccccccccc"
         style="fill:#004100;fill-opacity:1;stroke:none;display:inline"
         d="m 356.41418,583.82853 -3.10992,-31.68768 -2.40835,-20.04033 -6.89663,-48.81104 -1.86098,-24.0095 -0.4379,-29.0682 5.36406,31.84622 4.48828,34.32713 6.89663,41.96555 3.7229,30.55656 1.48732,15.95437 -6.28205,6.07029 z"
         id="path26-1"
         inkscape:connector-curvature="0" />
      <path
         sodipodi:nodetypes="ccccccccccc"
         style="fill:#004100;fill-opacity:1;stroke:none;display:inline"
         d="m 361.97465,588.11119 3.02261,-41.54351 4.29766,-28.39787 1.94445,-21.01527 1.99697,-36.33959 -0.80844,-59.92284 2.2134,0.33001 0.61367,64.78464 -0.69859,21.16236 -5.30164,54.31612 -4.30622,45.53136"
         id="path28"
         inkscape:connector-curvature="0" />
      <path
         sodipodi:nodetypes="ccccccccccccccccccccccccccccccccccccccccccccccccccccccccccccccccccccccccccccccccccccccccccc"
         style="fill:#004100;fill-opacity:1;stroke:none;display:inline"
         d="m 372.36555,400.96966 -0.45911,-6.97462 0.26353,-1.12779 0.26353,-0.96695 -0.10542,-2.25584 -0.26352,-0.80554 -0.47436,-0.32239 -0.52704,-1.77233 0.36893,-1.93358 -0.36893,-1.12807 -0.47434,-0.56382 -0.42164,-1.36977 0.15811,-0.96667 -0.15811,-0.5641 -0.47435,-0.16112 -0.52706,-1.12779 0.15811,-1.20863 -0.26353,-0.72497 -0.36892,-0.64466 -0.36894,-0.72511 0,-0.96665 -0.52705,-0.96694 -0.36894,-1.20848 0.15811,-1.1278 0.84329,-1.53089 -0.26353,-1.53077 -0.47435,-0.72508 -0.79057,-0.80552 -0.10542,-1.53077 0.26353,-0.56396 0.52705,-0.72523 0.21083,-1.04723 -0.10542,-0.72524 -0.63246,-0.80566 -0.47434,-0.88622 -0.52749,-0.9668 -0.15812,-0.96665 -0.10541,-0.96695 0.6329,-1.2085 -0.26397,-1.12778 0.6329,-0.72509 -0.15811,-1.20863 -0.21082,-0.48327 -0.52749,-1.04751 -0.26353,-1.28891 -0.31622,-0.96692 0,-1.2085 0.1054,-0.7251 -0.15811,-3.22265 0.36893,0.88623 0.52705,-2.65855 0.15812,-1.69191 0.31667,-1.53087 0.79058,-0.80554 0.36894,1.20835 0.52705,1.12806 1.00139,0.56384 1.10682,0.32228 0.63246,1.61131 0.10541,1.85303 -0.10541,1.77259 0.57976,1.61133 0.94869,0.72496 0.42165,1.12806 0.84327,0.96667 0.21083,2.09471 0.26352,3.62562 0,1.36964 -0.0527,1.20835 0.57976,0.80579 0.57976,1.45007 0,1.28919 0.52704,1.53076 1.26493,0.64439 -0.89598,2.25586 0.63246,2.90052 1.05411,1.12779 -0.68518,1.93358 0.79058,1.93359 -0.42164,1.53091 -0.57975,2.90025 -0.26354,1.28919 0,2.33629 0.31623,3.06165 -0.73787,2.09472 0.15812,3.22253 0,2.57812 -0.47435,1.28906 -0.42164,1.77245 -0.52705,1.93359 -0.59499,2.11647"
         id="path36"
         inkscape:connector-curvature="0" />
      <path
         style="fill:#009000;stroke:none;display:inline"
         d="m 296.80773,420.02444 6.76999,9.4579 29.56893,44.30442 27.07994,43.00938 19.01654,32.45609 15.63072,28.9716 4.57969,10.55317 4.48014,7.96475 -8.16382,8.36289 -2.09073,-9.65718 -7.86513,-14.33647 -8.86072,-14.83425 -13.64036,-22.79891 -19.31439,-30.66403 -14.53556,-23.09765 -7.06866,-12.24571 -5.67484,-10.15565 -9.45807,-20.21039 -5.37617,-12.24572 -3.68368,-9.15956 -1.99117,-5.67468 0.59735,0 z"
         id="path24-7"
         inkscape:connector-curvature="0" />
      <path
         sodipodi:nodetypes="cccccccccccccccccccccccccccccccccccccccc"
         style="fill:#009000;stroke:none;display:inline"
         d="m 292.22803,510.58791 3.98235,3.98234 4.28103,5.97351 7.9647,12.14619 8.56203,14.03773 12.14617,21.90293 8.56203,16.42719 3.98234,7.4669 1.39383,4.4801 21.90373,21.10641 -1.69332,-6.86949 -7.36735,-22.50025 -12.24571,-31.85884 -11.64835,-30.16626 -5.97353,-14.43595 -4.87837,-10.85191 -4.77882,-8.76119 -5.47572,-9.45807 -3.385,-5.37616 -2.78764,-4.87837 -4.28102,-4.77965 -7.16823,-7.36735 -4.48014,-5.4757 10.75234,9.95584 6.57087,6.5717 8.26337,10.8519 16.22807,26.38306 12.2457,25.3874 24.13278,51.96689 -1.73125,7.76839 9.15939,30.96269 -1.19469,0.89608 -8.46249,-7.96476 -44.30443,-42.71067 -3.78323,-11.64834 -3.78323,-8.56199 -8.46249,-19.31444 -5.67484,-13.14174 -6.27219,-11.94701 z"
         id="path34-2"
         inkscape:connector-curvature="0" />
      <path
         sodipodi:nodetypes="cccccccc"
         style="fill:#000000;fill-opacity:1;stroke:#000000;stroke-width:1.49337995000000001;stroke-opacity:1"
         d="m 373.3956,635.82941 -125.05829,-120.76639 -1.71387,2.32607 37.46347,36.25989 -2.37384,2.43009 37.87572,36.82953 -3.6612,3.78479 57.2696,53.57859"
         id="path30-0-2"
         inkscape:connector-curvature="0" />
      <path
         sodipodi:nodetypes="cccccccc"
         style="fill:#000000;fill-opacity:1;stroke:#000000;stroke-width:1.49337995;stroke-opacity:1"
         d="m 372.09578,636.98304 122.04169,-123.81407 1.77072,2.28308 -36.55776,37.17286 2.43305,2.37081 -36.95584,37.75249 3.75343,3.69333 -55.70738,54.61187"
         id="path30-0"
         inkscape:connector-curvature="0" />
      <text
         transform="matrix(0.69571746,-0.71831554,0.71831554,0.69571746,0,0)"
         sodipodi:linespacing="125%"
         id="text3023-6"
         y="734.11523"
         x="-115.18172"
         style="font-size:16.18345070000000163px;font-style:normal;font-variant:normal;font-weight:bold;font-stretch:normal;line-height:125%;letter-spacing:0px;word-spacing:0px;fill:#000000;fill-opacity:1;stroke:#000000;stroke-width:0.89908063000000005;stroke-opacity:1;font-family:Asana Math;-inkscape-font-specification:Asana Math Bold"
         xml:space="preserve"><tspan
           style="fill:#000000;fill-opacity:1;stroke:#000000;stroke-width:0.89908063000000005;stroke-opacity:1"
           y="734.11523"
           x="-115.18172"
           id="tspan3025-4"
           sodipodi:role="line">Sprint Prague  2013</tspan></text>
      <path
         style="fill:none;stroke:#000000;stroke-width:2.98662448000000014;stroke-miterlimit:4;stroke-opacity:1;stroke-dasharray:none"
         d="M 214.17407,473.65162 373.26962,627.07151 526.09216,472.35736 370.48197,318.73758 214.67188,474.84633"
         id="path38-3"
         inkscape:connector-curvature="0" />
      <text
         inkscape:transform-center-x="-8.2365489"
         inkscape:transform-center-y="323.87884"
         transform="matrix(0.72413658,0.68965659,-0.68965659,0.72413658,0,0)"
         sodipodi:linespacing="125%"
         id="text3019-2"
         y="224.17021"
         x="486.64044"
         style="font-size:16.18345070000000163px;font-style:normal;font-variant:normal;font-weight:bold;font-stretch:normal;line-height:125%;letter-spacing:0px;word-spacing:0px;fill:#000000;fill-opacity:1;stroke:#000000;stroke-width:0.89908063000000005;stroke-opacity:1;font-family:Asana Math;-inkscape-font-specification:Asana Math Bold"
         xml:space="preserve"><tspan
           style="fill:#000000;fill-opacity:1;stroke:#000000;stroke-width:0.89908063000000005;stroke-opacity:1"
           y="224.17021"
           x="486.64044"
           id="tspan3021-8"
           sodipodi:role="line">GRASS Community</tspan></text>
    </g>
  </g>
  <g
     inkscape:groupmode="layer"
     id="layer4"
     inkscape:label="bg"
     style="display:none" />
</svg>
