<?xml version="1.0" encoding="UTF-8" standalone="no"?>
<!-- Created with Inkscape (http://www.inkscape.org/) -->

<svg
   xmlns:dc="http://purl.org/dc/elements/1.1/"
   xmlns:cc="http://creativecommons.org/ns#"
   xmlns:rdf="http://www.w3.org/1999/02/22-rdf-syntax-ns#"
   xmlns:svg="http://www.w3.org/2000/svg"
   xmlns="http://www.w3.org/2000/svg"
   xmlns:sodipodi="http://sodipodi.sourceforge.net/DTD/sodipodi-0.dtd"
   xmlns:inkscape="http://www.inkscape.org/namespaces/inkscape"
   width="182.84399mm"
   height="29.253239mm"
   viewBox="0 0 647.87242 103.65321"
   id="svg4176"
   version="1.1"
   inkscape:version="0.91 r13725"
   sodipodi:docname="ascii_logo_bold.svg">
  <defs
     id="defs4178" />
  <sodipodi:namedview
     id="base"
     pagecolor="#ffffff"
     bordercolor="#666666"
     borderopacity="1.0"
     inkscape:pageopacity="0.0"
     inkscape:pageshadow="2"
     inkscape:zoom="1.4"
     inkscape:cx="337.1041"
     inkscape:cy="56.838953"
     inkscape:document-units="px"
     inkscape:current-layer="layer1"
     showgrid="false"
     fit-margin-top="0"
     fit-margin-left="0"
     fit-margin-right="0"
     fit-margin-bottom="0"
     inkscape:window-width="1612"
     inkscape:window-height="527"
     inkscape:window-x="120"
     inkscape:window-y="32"
     inkscape:window-maximized="0" />
  <metadata
     id="metadata4181">
    <rdf:RDF>
      <cc:Work
         rdf:about="">
        <dc:format>image/svg+xml</dc:format>
        <dc:type
           rdf:resource="http://purl.org/dc/dcmitype/StillImage" />
        <dc:title></dc:title>
      </cc:Work>
    </rdf:RDF>
  </metadata>
  <g
     inkscape:label="Layer 1"
     inkscape:groupmode="layer"
     id="layer1"
     transform="translate(-33.206643,-337.67845)">
    <path
       style="fill:none;fill-opacity:1;stroke:#2e9b2f;stroke-width:3.80000034;stroke-linecap:butt;stroke-linejoin:round;stroke-miterlimit:0;stroke-dasharray:none;stroke-opacity:1"
       d="m 155.65024,428.89797 0,-10.53369 0.8799,0 0.8799,0 0,10.53369 0,10.53369 -0.8799,0 -0.8799,0 0,-10.53369 z m 90.3344,0 0,-10.53369 0.8799,0 0.8798,0 0,10.53369 0,10.53369 -0.8798,0 -0.8799,0 0,-10.53369 z m -199.146297,9.52361 0,-0.72148 25.8099,0 25.8098,0 0,0.72148 0,0.72148 -25.8098,0 -25.8099,0 0,-0.72148 z m 64.524597,0 0,-0.72148 6.4524,0 6.4525,0 0,0.72148 0,0.72148 -6.4525,0 -6.4524,0 0,-0.72148 z m 51.6196,0 0,-0.72148 6.4525,0 6.4525,0 0,0.72148 0,0.72148 -6.4525,0 -6.4525,0 0,-0.72148 z m 25.8099,0 0,-0.72148 6.4524,0 6.4525,0 0,0.72148 0,0.72148 -6.4525,0 -6.4524,0 0,-0.72148 z m 64.5245,0 0,-0.72148 6.4525,0 6.4524,0 0,0.72148 0,0.72148 -6.4524,0 -6.4525,0 0,-0.72148 z m 25.8099,0 0,-0.72148 25.8098,0 25.8098,0 0,0.72148 0,0.72148 -25.8098,0 -25.8098,0 0,-0.72148 z m 64.5245,0 0,-0.72148 25.8098,0 25.8099,0 0,0.72148 0,0.72148 -25.8099,0 -25.8098,0 0,-0.72148 z m 116.1442,0 0,-0.72148 25.8098,0 25.8099,0 0,0.72148 0,0.72148 -25.8099,0 -25.8098,0 0,-0.72148 z m 64.5246,0 0,-0.72148 19.3573,0 19.3574,0 0,0.72148 0,0.72148 -19.3574,0 -19.3573,0 0,-0.72148 z m 64.5245,0 0,-0.72148 25.8099,0 25.8098,0 0,0.72148 0,0.72148 -25.8098,0 -25.8099,0 0,-0.72148 z M 39.198343,427.99769 c -2.1697,-4.54268 -3.9878,-8.43869 -4.0399,-8.65782 -0.067,-0.27959 0.2056,-0.39841 0.9126,-0.39841 l 1.0074,0 4.0019,8.44139 c 2.201,4.64276 4.001,8.53879 4,8.65782 0,0.11906 -0.4371,0.21645 -0.9693,0.21645 l -0.9675,0 -3.9452,-8.25943 z m 64.352297,-0.3984 4.1391,-8.65783 0.9567,0 c 0.5262,0 0.9575,0.0974 0.9585,0.21644 0.001,0.11906 -1.7991,4.01507 -4.0001,8.65783 l -4.0018,8.44139 -1.0958,0 -1.095797,0 4.139197,-8.65783 z m 21.8904,8.46121 c 0,-0.10811 1.8096,-4.00413 4.0214,-8.65783 l 4.0214,-8.46121 1.0776,0 1.0775,0 -4.1161,8.65783 -4.1162,8.65783 -0.9828,0 c -0.5406,0 -0.9828,-0.0885 -0.9828,-0.19662 z m 51.6196,0 c 0,-0.10811 1.8097,-4.00413 4.0215,-8.65783 l 4.0214,-8.46121 0.9645,0 c 0.5306,0 0.9656,0.0974 0.9669,0.21644 0.001,0.11906 -1.8016,4.01507 -4.0063,8.65783 l -4.0085,8.44139 -0.9797,0 c -0.5389,0 -0.9798,-0.0885 -0.9798,-0.19662 z m 25.8098,0.011 c 0,-0.10217 1.8096,-3.99819 4.0212,-8.65783 l 4.0212,-8.47207 0.9648,0 c 0.5307,0 0.9648,0.095 0.9648,0.21111 0,0.11613 -1.8038,4.01216 -4.0085,8.65784 l -4.0084,8.44672 -0.9775,0 c -0.5377,0 -0.9776,-0.0836 -0.9776,-0.18577 z m 64.6538,-0.31927 c 0.1055,-0.27777 1.9314,-4.1738 4.0575,-8.65783 l 3.8656,-8.1528 0.9599,0 c 0.5279,0 0.9598,0.0878 0.9598,0.19507 0,0.10727 -1.8048,4.0033 -4.0107,8.65783 l -4.0107,8.46277 -1.0067,0 c -0.8363,0 -0.9742,-0.0855 -0.8147,-0.50504 z m 64.3954,0.30841 c 0,-0.1081 1.8096,-4.00412 4.0214,-8.65782 l 4.0214,-8.46122 0.9646,0 c 0.5305,0 0.9656,0.0974 0.9668,0.21646 0,0.11903 -1.8015,4.01507 -4.0062,8.65782 l -4.0086,8.44139 -0.9797,0 c -0.5389,0 -0.9797,-0.0885 -0.9797,-0.19663 z m 64.5245,0 c 0,-0.1081 1.8097,-4.00412 4.0215,-8.65782 l 4.0214,-8.46122 0.9646,0 c 0.5305,0 0.9655,0.0974 0.9668,0.21646 0,0.11903 -1.8015,4.01507 -4.0062,8.65782 l -4.0086,8.44139 -0.9797,0 c -0.5389,0 -0.9798,-0.0885 -0.9798,-0.19663 z m 55.6411,-8.26458 c -2.2118,-4.6537 -4.0214,-8.54973 -4.0214,-8.65783 0,-0.10813 0.4409,-0.19663 0.9797,-0.19663 l 0.9797,0 4.0086,8.44139 c 2.2047,4.64276 4.0075,8.53879 4.0062,8.65783 0,0.11904 -0.4363,0.21645 -0.9668,0.21645 l -0.9645,0 -4.0215,-8.46121 z m 61.8639,5.08666 c 0.9062,-1.8741 2.7786,-5.77751 4.161,-8.67428 l 2.5134,-5.26684 0.9684,0 c 0.5326,0 0.9684,0.0992 0.9684,0.2204 0,0.12124 -1.7806,3.9848 -3.9568,8.58568 l -3.9569,8.36528 -1.1726,0.0886 -1.1725,0.0886 1.6476,-3.40741 z m 50.2589,3.17791 c 0,-0.1081 1.8096,-4.00412 4.0214,-8.65782 l 4.0215,-8.46121 0.9645,0 c 0.5305,0 0.9656,0.0974 0.9668,0.21644 0,0.11904 -1.8015,4.01507 -4.0062,8.65783 l -4.0085,8.44139 -0.9798,0 c -0.5388,0 -0.9797,-0.0885 -0.9797,-0.19663 z m 12.9049,0.011 c 0,-0.10216 1.8095,-3.99818 4.0212,-8.65783 l 4.0212,-8.47206 0.9648,0 c 0.5306,0 0.9662,0.0974 0.9678,0.21646 0,0.11903 -1.8041,4.01506 -4.013,8.65782 l -4.016,8.44139 -0.973,0 c -0.5351,0 -0.973,-0.0836 -0.973,-0.18578 z m 64.5245,-0.011 c 0,-0.1081 1.8097,-4.00412 4.0215,-8.65782 l 4.0215,-8.46121 0.9645,0 c 0.5305,0 0.9656,0.0974 0.9668,0.21644 0,0.11904 -1.8016,4.01507 -4.0062,8.65783 l -4.0086,8.44139 -0.9797,0 c -0.5389,0 -0.9798,-0.0885 -0.9798,-0.19663 z m -369.843,-31.69303 0,-10.5337 0.8799,0 0.8799,0 0,10.5337 0,10.53368 -0.8799,0 -0.8799,0 0,-10.53368 z m -199.146197,9.5236 0,-0.72148 6.4524,0 6.4525,0 0,0.72148 0,0.72149 -6.4525,0 -6.4524,0 0,-0.72149 z m 64.524497,0 0,-0.72148 6.4525,0 6.4524,0 0,0.72148 0,0.72149 -6.4524,0 -6.4525,0 0,-0.72149 z m 38.7148,0 0,-0.72148 6.4524,0 6.4525,0 0,0.72148 0,0.72149 -6.4525,0 -6.4524,0 0,-0.72149 z m 38.7147,0 0,-0.72148 19.3574,0 19.3573,0 0,0.72148 0,0.72149 -19.3573,0 -19.3574,0 0,-0.72149 z m 64.5246,0 0,-0.72148 19.3573,0 19.3574,0 0,0.72148 0,0.72149 -19.3574,0 -19.3573,0 0,-0.72149 z m 77.4294,0 0,-0.72148 12.9049,0 12.905,0 0,0.72148 0,0.72149 -12.905,0 -12.9049,0 0,-0.72149 z m 129.0491,0 0,-0.72148 6.4525,0 6.4525,0 0,0.72148 0,0.72149 -6.4525,0 -6.4525,0 0,-0.72149 z m 103.2393,0 0,-0.72148 19.3574,0 19.3574,0 0,0.72148 0,0.72149 -19.3574,0 -19.3574,0 0,-0.72149 z m -434.4895,-1.94803 c 0.5893,-1.81428 0.9952,-3.63326 0.9983,-4.47321 0,-0.91871 0.031,-0.93793 1.3233,-0.93793 l 1.3199,0 0,1.17963 c 0,0.81712 -0.3233,1.74835 -1.0518,3.03023 -0.9263,1.62985 -1.1561,1.85061 -1.9262,1.85061 -0.7737,0 -0.8501,-0.0747 -0.6635,-0.64933 z M 35.106643,411.5105 c 0,-0.1189 1.8117,-4.01492 4.0259,-8.65782 l 4.026,-8.44162 0.96,0 c 0.528,0 0.9611,0.0974 0.9624,0.21645 0,0.11904 -1.8016,4.01507 -4.0063,8.65783 l -4.0086,8.44138 -0.9797,0 c -0.5389,0 -0.9797,-0.0973 -0.9797,-0.21622 z m 25.8098,0 c 0,-0.1189 1.8117,-4.01492 4.026,-8.65782 l 4.0259,-8.44162 0.9601,0 c 0.528,0 0.961,0.0974 0.9623,0.21645 0.001,0.11904 -1.8016,4.01507 -4.0063,8.65783 l -4.0085,8.44138 -0.9798,0 c -0.5388,0 -0.9797,-0.0973 -0.9797,-0.21622 z m 25.8098,0.0196 c 0,-0.1081 1.8097,-4.00413 4.0215,-8.65783 l 4.0214,-8.4612 0.9646,0 c 0.5305,0 0.9656,0.0974 0.9668,0.21644 0.001,0.11904 -1.8015,4.01507 -4.0062,8.65784 l -4.0086,8.44137 -0.9797,0 c -0.5389,0 -0.9798,-0.0885 -0.9798,-0.19662 z m 25.978897,-0.45272 c 0.1147,-0.35714 1.5536,-3.44148 3.1975,-6.85411 1.6439,-3.41263 3.3587,-7.01645 3.8107,-8.00849 0.7989,-1.7535 0.8528,-1.80371 1.9345,-1.80371 l 1.1128,0 -1.5534,3.24669 c -0.8544,1.78567 -2.0769,4.35055 -2.7168,5.69973 -4.2855,9.03637 -3.8876,8.36923 -4.9918,8.36923 -0.9054,0 -0.982,-0.0626 -0.7935,-0.64934 z m 77.2604,0.45786 c 0,-0.10531 1.8131,-4.00134 4.029,-8.65782 l 4.0289,-8.46635 0.9571,0 c 0.5263,0 0.957,0.0861 0.957,0.19145 0,0.10528 -1.8018,4.00131 -4.004,8.65782 l -4.004,8.46638 -0.982,0 c -0.5401,0 -0.982,-0.0862 -0.982,-0.19148 z m 129.0492,-0.011 c 0,-0.11124 1.8131,-4.00727 4.0291,-8.65782 l 4.0292,-8.45553 0.9568,0 c 0.5263,0 0.9579,0.0974 0.9591,0.21644 0,0.11905 -1.8015,4.01507 -4.0062,8.65784 l -4.0086,8.44138 -0.9797,0 c -0.5389,0 -0.9797,-0.091 -0.9797,-0.20231 z m 25.9389,-0.30273 c 0.1056,-0.27778 1.9315,-4.1738 4.0576,-8.65783 l 3.8656,-8.15279 0.9598,0 c 0.5279,0 0.9599,0.0878 0.9599,0.19506 0,0.10727 -1.8049,4.0033 -4.0107,8.65783 l -4.0107,8.46277 -1.0067,0 c -0.8363,0 -0.9742,-0.0854 -0.8148,-0.50504 z m 38.5856,0.30842 c 0,-0.1081 1.8097,-4.00413 4.0215,-8.65783 l 4.0214,-8.46121 0.9645,0 c 0.5306,0 0.9656,0.0974 0.9669,0.21644 0,0.11905 -1.8016,4.01507 -4.0063,8.65784 l -4.0085,8.44138 -0.9798,0 c -0.5388,0 -0.9797,-0.0885 -0.9797,-0.19662 z m 25.8099,-0.006 c 0,-0.11125 1.8131,-4.00727 4.0291,-8.65782 l 4.0292,-8.45553 0.9568,0 c 0.5263,0 0.9568,0.0969 0.9568,0.21526 0,0.11841 -1.8024,4.01443 -4.0055,8.65783 l -4.0055,8.44256 -0.9805,0 c -0.5392,0 -0.9804,-0.091 -0.9804,-0.2023 z m 38.7147,0.006 c 0,-0.1081 1.8096,-4.00413 4.0214,-8.65783 l 4.0215,-8.46121 0.9645,0 c 0.5305,0 0.9656,0.0974 0.9668,0.21644 0,0.11905 -1.8015,4.01507 -4.0062,8.65784 l -4.0086,8.44138 -0.9797,0 c -0.5388,0 -0.9797,-0.0885 -0.9797,-0.19662 z m 25.8098,0 c 0,-0.1081 1.8096,-4.00413 4.0214,-8.65783 l 4.0215,-8.46121 0.9645,0 c 0.5305,0 0.9656,0.0974 0.9669,0.21644 0,0.11905 -1.8016,4.01507 -4.0063,8.65784 l -4.0085,8.44138 -0.9798,0 c -0.5388,0 -0.9797,-0.0885 -0.9797,-0.19662 z m 29.7292,-8.46121 4.1392,-8.65783 0.9567,0 c 0.5262,0 0.9567,0.11192 0.9567,0.24868 0,0.13677 -0.8065,1.92245 -1.7923,3.96817 -0.9857,2.04571 -2.292,4.82337 -2.9027,6.17254 -0.6108,1.34918 -1.5932,3.45954 -2.1831,4.68966 -1.0623,2.21532 -1.0832,2.23661 -2.1931,2.23661 l -1.1205,0 4.1391,-8.65783 z m 21.8905,8.46121 c 0,-0.1081 1.8096,-4.00413 4.0214,-8.65783 l 4.0214,-8.46121 0.9646,0 c 0.5305,0 0.9656,0.0974 0.9668,0.21644 0,0.11905 -1.8015,4.01507 -4.0062,8.65784 l -4.0086,8.44138 -0.9797,0 c -0.5389,0 -0.9797,-0.0885 -0.9797,-0.19662 z m 12.9049,0 c 0,-0.1081 1.8096,-4.00413 4.0214,-8.65783 l 4.0214,-8.46121 0.9646,0 c 0.5305,0 0.9652,0.0974 0.966,0.21644 0,0.11905 -1.8035,4.01507 -4.0093,8.65784 l -4.0106,8.44138 -0.9768,0 c -0.5372,0 -0.9767,-0.0885 -0.9767,-0.19662 z m 25.8098,0 c 0,-0.1081 1.8096,-4.00413 4.0214,-8.65783 l 4.0215,-8.46121 0.9645,0 c 0.5305,0 0.9656,0.0974 0.9668,0.21644 0,0.11905 -1.8015,4.01507 -4.0062,8.65784 l -4.0085,8.44138 -0.9798,0 c -0.5388,0 -0.9797,-0.0885 -0.9797,-0.19662 z m 64.5245,0 c 0,-0.1081 1.8097,-4.00413 4.0215,-8.65783 l 4.0214,-8.46121 0.9645,0 c 0.5306,0 0.967,0.0974 0.9697,0.21644 0.01,0.11905 -1.8006,4.01507 -4.0075,8.65784 l -4.0126,8.44138 -0.9785,0 c -0.5382,0 -0.9785,-0.0885 -0.9785,-0.19662 z m 25.8098,-0.0507 c 0,-0.13601 1.3638,-3.09049 3.0305,-6.56551 1.6666,-3.47503 3.468,-7.25978 4.0029,-8.41054 0.9253,-1.9909 1.02,-2.09231 1.9555,-2.09231 0.5407,0 0.9839,0.0974 0.9848,0.21644 0,0.11905 -1.7989,4.01507 -4,8.65784 l -4.0017,8.44138 -0.986,0 c -0.5423,0 -0.986,-0.11128 -0.986,-0.2473 z m -408.5577,-31.64237 0,-10.53369 0.8799,0 0.8798,0 0,10.53369 0,10.53369 -0.8798,0 -0.8799,0 0,-10.53369 z m 25.8098,0 0,-10.53369 0.8799,0 0.8799,0 0,10.53369 0,10.53369 -0.8799,0 -0.8799,0 0,-10.53369 z m -173.336397,9.52361 0,-0.72148 12.904897,0 12.9049,0 0,0.72148 0,0.7215 -12.9049,0 -12.904897,0 0,-0.7215 z m 64.524497,0 0,-0.72148 6.4525,0 6.4525,0 0,0.72148 0,0.7215 -6.4525,0 -6.4525,0 0,-0.7215 z m 141.9541,0 0,-0.72148 12.9049,0 12.9049,0 0,0.72148 0,0.7215 -12.9049,0 -12.9049,0 0,-0.7215 z m 64.5245,0 0,-0.72148 6.4525,0 6.4525,0 0,0.72148 0,0.7215 -6.4525,0 -6.4525,0 0,-0.7215 z m 141.9541,0 0,-0.72148 12.9049,0 12.9049,0 0,0.72148 0,0.7215 -12.9049,0 -12.9049,0 0,-0.7215 z m 103.2393,0 0,-0.72148 12.9049,0 12.9049,0 0,0.72148 0,0.7215 -12.9049,0 -12.9049,0 0,-0.7215 z M 48.011543,386.99945 c 0,-0.10814 1.8097,-4.00416 4.0214,-8.65784 l 4.0215,-8.4612 0.9645,0 c 0.5305,0 0.9656,0.0974 0.9668,0.21644 0,0.11905 -1.8015,4.01507 -4.0062,8.65783 l -4.0086,8.44138 -0.9797,0 c -0.5388,0 -0.9797,-0.0885 -0.9797,-0.19661 z m 25.8098,0 c 0,-0.10814 1.8097,-4.00416 4.0215,-8.65784 l 4.0214,-8.4612 0.9646,0 c 0.5305,0 0.9655,0.0974 0.9668,0.21644 0.001,0.11905 -1.8016,4.01507 -4.0063,8.65783 l -4.0085,8.44138 -0.9797,0 c -0.5389,0 -0.9798,-0.0885 -0.9798,-0.19661 z m 51.788697,-0.45272 c 0.1147,-0.35714 1.5536,-3.44149 3.1975,-6.85411 1.6439,-3.41264 3.3587,-7.01645 3.8107,-8.0085 0.7722,-1.69477 0.8814,-1.80371 1.8083,-1.80371 0.5425,0 0.9875,0.0974 0.9888,0.21644 0.001,0.11905 -1.8016,4.01507 -4.0063,8.65783 l -4.0086,8.44138 -0.9994,0 c -0.9028,0 -0.9794,-0.0628 -0.791,-0.64933 z m 25.6408,0.45272 c 0,-0.10814 1.8096,-4.00416 4.0214,-8.65784 l 4.0215,-8.4612 0.9645,0 c 0.5305,0 0.9656,0.0974 0.9669,0.21644 10e-4,0.11905 -1.8016,4.01507 -4.0063,8.65783 l -4.0085,8.44138 -0.9798,0 c -0.5388,0 -0.9797,-0.0885 -0.9797,-0.19661 z m 25.8098,0 c 0,-0.10814 1.8097,-4.00416 4.0215,-8.65784 l 4.0214,-8.4612 0.9645,0 c 0.5306,0 0.9656,0.0974 0.9669,0.21644 0.001,0.11905 -1.8016,4.01507 -4.0063,8.65783 l -4.0085,8.44138 -0.9797,0 c -0.5389,0 -0.9798,-0.0885 -0.9798,-0.19661 z m 25.9403,-0.30843 c 0.1063,-0.27777 1.9286,-4.17379 4.0496,-8.65783 l 3.8564,-8.15278 0.9677,0 c 0.5323,0 0.9692,0.0974 0.9709,0.21644 0,0.11905 -1.8042,4.01507 -4.013,8.65783 l -4.0161,8.44138 -1.0043,0 c -0.8347,0 -0.9718,-0.0854 -0.8112,-0.50504 z m 25.6794,0.30274 c 0,-0.11125 1.8131,-4.00727 4.0292,-8.65783 l 4.0292,-8.45552 0.9568,0 c 0.5262,0 0.9578,0.0974 0.9591,0.21644 0,0.11905 -1.8016,4.01507 -4.0063,8.65783 l -4.0086,8.44138 -0.9797,0 c -0.5388,0 -0.9797,-0.091 -0.9797,-0.2023 z m 68.5536,-8.23963 c -2.2201,-4.64248 -4.0348,-8.53824 -4.0328,-8.65728 0,-0.11905 0.4394,-0.21645 0.9718,-0.21645 0.8643,0 1.0407,0.14695 1.6455,1.37082 1.4597,2.95365 7.3584,15.58868 7.3584,15.76156 0,0.1008 -0.4289,0.18302 -0.9532,0.18273 l -0.9532,0 -4.0365,-8.44083 z m 51.6118,-0.0302 c -2.2117,-4.65965 -4.0212,-8.55568 -4.0212,-8.65784 0,-0.10216 0.4389,-0.18573 0.9753,-0.18573 l 0.9753,0 4.0107,8.46277 c 2.2058,4.6545 4.0107,8.55055 4.0107,8.65783 0,0.10726 -0.4342,0.19505 -0.9649,0.19505 l -0.9647,0 -4.0212,-8.47208 z m 13.0704,0.3193 c -2.1261,-4.48404 -3.952,-8.38006 -4.0575,-8.65783 -0.1595,-0.41974 -0.021,-0.50504 0.8169,-0.50504 l 1.0089,0 4.0085,8.4467 c 2.2047,4.6457 4.0085,8.54173 4.0085,8.65786 0,0.11609 -0.432,0.21109 -0.9599,0.21109 l -0.9598,0 -3.8656,-8.15278 z m 51.4619,-0.31359 c -2.2159,-4.65649 -4.0289,-8.55252 -4.0289,-8.65782 0,-0.10531 0.4419,-0.19146 0.982,-0.19146 l 0.982,0 4.0039,8.46636 c 2.2022,4.65651 4.004,8.55256 4.004,8.65784 0,0.10531 -0.4306,0.19145 -0.957,0.19145 l -0.9571,0 -4.0289,-8.46637 z m 47.5907,8.28841 c 0,-0.0979 1.8078,-3.99395 4.0174,-8.65787 l 4.0174,-8.47982 0.9686,0 c 0.5327,0 0.9686,0.0934 0.9686,0.20752 0,0.11415 -1.8008,4.01017 -4.0018,8.65784 l -4.0018,8.45029 -0.9842,0 c -0.5413,0 -0.9842,-0.0801 -0.9842,-0.17796 z m 25.8098,-0.0243 c 0,-0.11128 1.8131,-4.00731 4.0292,-8.65786 l 4.0292,-8.4555 0.9568,0 c 0.5262,0 0.9568,0.088 0.9568,0.19561 0,0.10759 -1.8005,4.00361 -4.001,8.65783 l -4.001,8.46222 -0.985,0 c -0.5417,0 -0.985,-0.091 -0.985,-0.2023 z m 64.5246,0.006 c 0,-0.10814 1.8096,-4.00416 4.0214,-8.65786 l 4.0214,-8.46118 0.9646,0 c 0.5305,0 0.9656,0.0974 0.9668,0.21644 0,0.11904 -1.8015,4.01507 -4.0062,8.65782 l -4.0086,8.44139 -0.9797,0 c -0.5388,0 -0.9797,-0.0885 -0.9797,-0.19661 z m 25.8098,0 c 0,-0.10814 1.8097,-4.00416 4.0214,-8.65786 l 4.0215,-8.46118 0.9645,0 c 0.5305,0 0.9656,0.0974 0.9669,0.21644 0,0.11904 -1.8016,4.01507 -4.0063,8.65782 l -4.0085,8.44139 -0.9798,0 c -0.5388,0 -0.9797,-0.0885 -0.9797,-0.19661 z m 29.8278,-8.26154 c -2.2099,-4.65197 -4.018,-8.54798 -4.018,-8.65783 0,-0.10984 0.4409,-0.1997 0.9797,-0.1997 l 0.9798,0 4.0085,8.44138 c 2.2047,4.64276 4.0075,8.53878 4.0063,8.65783 0,0.11905 -0.4379,0.21645 -0.9703,0.21645 l -0.9681,0 -4.0179,-8.45813 z m 51.6094,0 c -2.2043,-4.65214 -4.0078,-8.54817 -4.0078,-8.65774 0,-0.10954 0.4448,-0.19919 0.9885,-0.19919 l 0.9884,0 4.0004,8.44138 c 2.2002,4.64277 3.9992,8.53879 3.9977,8.65784 0,0.11904 -0.4431,0.21645 -0.9813,0.21645 l -0.9782,0 -4.0077,-8.45865 z m -386.7557,-23.43113 0,-10.5337 0.8799,0 0.8799,0 0,10.5337 0,10.53369 -0.8799,0 -0.8799,0 0,-10.53369 z m -186.241297,9.52362 0,-0.72149 25.809797,0 25.8098,0 0,0.72149 0,0.72148 -25.8098,0 -25.809797,0 0,-0.72148 z m 77.429397,0 0,-0.72149 12.905,0 12.9049,0 0,0.72149 0,0.72148 -12.9049,0 -12.905,0 0,-0.72148 z m 154.859,0 0,-0.72149 19.3573,0 19.3574,0 0,0.72149 0,0.72148 -19.3574,0 -19.3573,0 0,-0.72148 z m 64.5246,0 0,-0.72149 19.3573,0 19.3574,0 0,0.72149 0,0.72148 -19.3574,0 -19.3573,0 0,-0.72148 z m 116.1442,0 0,-0.72149 25.8098,0 25.8098,0 0,0.72149 0,0.72148 -25.8098,0 -25.8098,0 0,-0.72148 z m 90.3343,0 0,-0.72149 6.4525,0 6.4525,0 0,0.72149 0,0.72148 -6.4525,0 -6.4525,0 0,-0.72148 z m 38.7148,0 0,-0.72149 19.3574,0 19.3572,0 0,0.72149 0,0.72148 -19.3572,0 -19.3574,0 0,-0.72148 z M 60.916443,362.46945 c 0,-0.10813 1.8097,-4.00416 4.0214,-8.65783 l 4.0215,-8.46122 0.9645,0 c 0.5305,0 0.9656,0.0974 0.9669,0.21646 0.001,0.11904 -1.8016,4.01507 -4.0063,8.65783 l -4.0085,8.44138 -0.9798,0 c -0.5388,0 -0.9797,-0.0885 -0.9797,-0.19662 z m 77.429497,0 c 0,-0.10813 1.8096,-4.00416 4.0214,-8.65783 l 4.0215,-8.46122 0.9645,0 c 0.5305,0 0.9656,0.0974 0.9669,0.21646 10e-4,0.11904 -1.8016,4.01507 -4.0063,8.65783 l -4.0086,8.44138 -0.9797,0 c -0.5388,0 -0.9797,-0.0885 -0.9797,-0.19662 z m 68.5425,-8.2615 c -2.2099,-4.65197 -4.018,-8.54799 -4.018,-8.65783 0,-0.10984 0.4409,-0.19972 0.9798,-0.19972 l 0.9797,0 4.0086,8.4414 c 2.2047,4.64277 4.0075,8.53878 4.0062,8.65783 -0.001,0.11904 -0.4379,0.21644 -0.9703,0.21644 l -0.9681,0 -4.0179,-8.45812 z m 8.887,8.2615 c 0,-0.10813 1.8096,-4.00416 4.0214,-8.65783 l 4.0214,-8.46122 0.9646,0 c 0.5305,0 0.9656,0.0974 0.9668,0.21646 0.001,0.11904 -1.8015,4.01507 -4.0062,8.65783 l -4.0086,8.44138 -0.9797,0 c -0.5389,0 -0.9797,-0.0885 -0.9797,-0.19662 z m 77.4294,0 c 0,-0.10813 1.8097,-4.00416 4.0215,-8.65783 l 4.0214,-8.46122 0.9646,0 c 0.5305,0 0.9656,0.0974 0.9668,0.21646 0,0.11904 -1.8015,4.01507 -4.0062,8.65783 l -4.0086,8.44138 -0.9797,0 c -0.5389,0 -0.9798,-0.0885 -0.9798,-0.19662 z m 64.5246,0 c 0,-0.10813 1.8096,-4.00416 4.0214,-8.65783 l 4.0215,-8.46122 0.9645,0 c 0.5305,0 0.9656,0.0974 0.9669,0.21646 0,0.11904 -1.8016,4.01507 -4.0063,8.65783 l -4.0085,8.44138 -0.9798,0 c -0.5388,0 -0.9797,-0.0885 -0.9797,-0.19662 z m 64.5297,-0.0199 c 0,-0.11904 1.5274,-3.39819 3.388,-7.287 1.8606,-3.88881 3.6563,-7.68743 3.9904,-8.44139 0.5526,-1.24669 0.6973,-1.37082 1.598,-1.37082 0.5447,0 0.9904,0.0896 0.9904,0.19921 0,0.10956 -1.8034,4.00558 -4.0077,8.65784 l -4.0077,8.45861 -0.9783,0 c -0.538,0 -0.976,-0.0974 -0.9731,-0.21645 z m 51.6145,0.0199 c 0,-0.10813 1.8096,-4.00416 4.0214,-8.65783 l 4.0215,-8.46122 0.9645,0 c 0.5305,0 0.9656,0.0974 0.9669,0.21646 0,0.11904 -1.8016,4.01507 -4.0063,8.65783 l -4.0085,8.44138 -0.9798,0 c -0.5388,0 -0.9797,-0.0885 -0.9797,-0.19662 z m 77.4295,-0.0196 c 0,-0.11889 1.8117,-4.01492 4.0259,-8.65782 l 4.026,-8.44162 0.96,0 c 0.528,0 0.9611,0.0974 0.9623,0.21645 0,0.11904 -1.8015,4.01507 -4.0062,8.65783 l -4.0086,8.44138 -0.9797,0 c -0.5388,0 -0.9797,-0.0973 -0.9797,-0.21622 z m 51.6196,0.0196 c 0,-0.10813 1.8097,-4.00416 4.0215,-8.65783 l 4.0214,-8.46122 0.9646,0 c 0.5305,0 0.9655,0.0974 0.9668,0.21646 0,0.11904 -1.8016,4.01507 -4.0063,8.65783 l -4.0085,8.44138 -0.9798,0 c -0.5388,0 -0.9797,-0.0885 -0.9797,-0.19662 z m 64.5215,-0.0199 c 0,-0.11904 1.8042,-4.01506 4.013,-8.65782 l 4.0161,-8.44139 0.9729,0 c 0.5352,0 0.9756,0.0974 0.9787,0.21645 0.01,0.11904 -1.7964,4.01507 -3.9989,8.65782 l -4.0045,8.44139 -0.9871,0 c -0.5429,0 -0.9886,-0.0974 -0.9902,-0.21645 z m -594.795997,-22.14962 0,-0.72148 64.524497,0 64.5246,0 0,0.72148 0,0.72149 -64.5246,0 -64.524497,0 0,-0.72149 z m 154.858897,0 0,-0.72148 19.3574,0 19.3573,0 0,0.72148 0,0.72149 -19.3573,0 -19.3574,0 0,-0.72149 z m 77.4295,0 0,-0.72148 64.5245,0 64.5246,0 0,0.72148 0,0.72149 -64.5246,0 -64.5245,0 0,-0.72149 z m 180.6687,0 0,-0.72148 96.7869,0 96.7868,0 0,0.72148 0,0.72149 -96.7868,0 -96.7869,0 0,-0.72149 z"
       id="path3614"
       inkscape:connector-curvature="0" />
  </g>
</svg>
