<?xml version="1.0" encoding="UTF-8" standalone="no"?>
<!-- Created with Inkscape (http://www.inkscape.org/) -->

<svg
   xmlns:dc="http://purl.org/dc/elements/1.1/"
   xmlns:cc="http://creativecommons.org/ns#"
   xmlns:rdf="http://www.w3.org/1999/02/22-rdf-syntax-ns#"
   xmlns:svg="http://www.w3.org/2000/svg"
   xmlns="http://www.w3.org/2000/svg"
   xmlns:sodipodi="http://sodipodi.sourceforge.net/DTD/sodipodi-0.dtd"
   xmlns:inkscape="http://www.inkscape.org/namespaces/inkscape"
   id="svg2"
   version="1.1"
   inkscape:version="0.48.4 r9939"
   width="291.25"
   height="132.5"
   xml:space="preserve"
   sodipodi:docname="LOGO_CRI_COL.eps"><metadata
     id="metadata8"><rdf:RDF><cc:Work
         rdf:about=""><dc:format>image/svg+xml</dc:format><dc:type
           rdf:resource="http://purl.org/dc/dcmitype/StillImage" /><dc:title></dc:title></cc:Work></rdf:RDF></metadata><defs
     id="defs6" /><sodipodi:namedview
     pagecolor="#ffffff"
     bordercolor="#666666"
     borderopacity="1"
     objecttolerance="10"
     gridtolerance="10"
     guidetolerance="10"
     inkscape:pageopacity="0"
     inkscape:pageshadow="2"
     inkscape:window-width="640"
     inkscape:window-height="480"
     id="namedview4"
     showgrid="false"
     inkscape:zoom="1.2738197"
     inkscape:cx="145.625"
     inkscape:cy="66.25"
     inkscape:window-x="0"
     inkscape:window-y="31"
     inkscape:window-maximized="0"
     inkscape:current-layer="g10" /><g
     id="g10"
     inkscape:groupmode="layer"
     inkscape:label="ink_ext_XXXXXX"
     transform="matrix(1.25,0,0,-1.25,0,132.5)"><g
       id="g12"
       transform="scale(0.1,0.1)"><path
         d="m 1850.66,515.188 128.13,0 0,-164.915 165.47,0 0,-227.371 -1349.69,0 0,227.371 1056.09,0 0,164.915"
         style="fill:#e5df1b;fill-opacity:1;fill-rule:nonzero;stroke:none"
         id="path14" /><path
         d="m 1685.74,515.188 128.12,0 0,-128.157 -128.12,0 0,128.157"
         style="fill:#9ad536;fill-opacity:1;fill-rule:nonzero;stroke:none"
         id="path16" /><path
         d="m 793.652,572.785 0,-1.656 97.578,0 0,1.656 -97.578,0 0,0 z m 125.168,0 0,-1.656 42.848,0 c 8.164,0 15.734,0.523 22.758,1.566 l -65.606,0.09 0,0 z m 151.13,0 0,-1.656 14.29,0 0,1.656 -14.29,0 0,0 z m 74.52,0 0.88,-1.656 14.29,0 0.84,1.656 -16.01,0 0,0 z m 76.26,0 0,-1.656 14.29,0 0,1.656 -14.29,0 0,0 z m 69.57,0 c 7.73,-2.769 16.85,-4.305 27.48,-4.305 10.62,0 19.8,1.536 27.46,4.325 l -54.94,-0.02 0,0 z m 118.16,0 0,-1.656 14.29,0 0,1.656 -14.29,0 0,0 z m 99.16,0 1.28,-1.656 18.03,0 0,1.656 -19.31,0 0,0 z m 57.05,0 0,-1.656 42.86,0 c 8.11,0 15.73,0.523 22.75,1.566 l -65.61,0.09 0,0 z m -304.92,-80.461 c -9.93,23.617 -30.73,32.328 -56.69,32.328 -47.97,0 -68.43,-31.359 -68.43,-66.234 0,-35.234 20.24,-66.219 68.43,-66.219 25.52,0 47.05,12.246 58.46,33.555 l -15.39,0 c -10.4,-15.695 -25.49,-22.988 -43.07,-22.988 -40.69,0 -53.04,29.589 -53.04,55.652 0,26.066 12.35,55.68 53.04,55.68 18.02,0 34.79,-7.336 41.32,-21.774 l 15.37,0 0,0 z m 41.46,-97.129 0,60.703 86.62,0 0,-60.703 14.29,0 0,127.016 -14.29,0 0,-55.754 -86.62,0 0,55.754 -14.3,0 0,-127.016 14.3,0 0,0 z m -308.105,0 16.715,34.317 78.87,0 16.92,-34.317 15.62,0 -63.26,127.016 -16.71,0 -62.881,-127.016 14.726,0 0,0 z m 21.345,44.875 34.91,71.602 34.3,-71.602 -69.21,0 0,0 z m -207.614,-44.875 0,116.821 61.055,-116.821 14.336,0 60.625,117.356 0.437,-117.356 14.289,0 0,127.016 -21.726,0 -60.903,-110.648 -59.558,110.648 -22.832,0 0,-127.016 14.277,0 0,0"
         style="fill:#161315;fill-opacity:1;fill-rule:evenodd;stroke:none"
         id="path18" /><path
         d="m 891.23,572.785 0,8.895 -83.289,0 0,49.785 76.883,0 0,10.562 -76.883,0 0,45.571 79.969,0 0,10.55 -94.258,0 0,-125.363 97.578,0 0,0 z m 93.196,0 c 37.914,5.559 59.034,26.375 59.034,61.844 0,42.055 -29.67,63.519 -81.792,63.519 l -42.848,0 0,-125.363 65.606,0 0,0 z m 99.814,0 0,115.16 60.23,-115.16 16.01,0 59.81,115.692 0.44,-115.692 14.29,0 0,125.363 -21.78,0 -60.88,-110.656 -59.52,110.656 -22.89,0 0,-125.363 14.29,0 0,0 z m 261,0 c 20.15,7.336 30.25,23.285 30.55,43.031 l 0,82.332 -14.27,0 0,-82.156 c -1.11,-23.047 -17.59,-36.949 -43.74,-36.949 -26.15,0 -42.63,13.902 -43.74,36.949 l 0,82.156 -14.29,0 0,-82.332 c 0.32,-19.746 10.45,-35.695 30.55,-43.011 l 54.94,-0.02 0,0 z m 77.51,0 0,108.113 84.87,-108.113 19.31,0 0,125.363 -14.28,0 0,-111.718 -87.91,111.718 -16.28,0 0,-125.363 14.29,0 0,0 z m 207.53,0 c 37.86,5.559 58.99,26.375 58.99,61.844 0,42.055 -29.67,63.519 -81.74,63.519 l -42.86,0 0,-125.363 65.61,0 0,0 z m 510.58,174.266 0,10.562 -83.27,0 0,49.785 76.93,0 0,10.551 -76.93,0 0,45.567 80.01,0 0,10.558 -94.3,0 0,-127.023 97.56,0 0,0 z m -256.14,0 14.27,0 0,109.785 86.16,-109.785 18.03,0 0,127.023 -14.28,0 0,-111.711 -87.91,111.711 -16.27,0 0,-127.023 z m -32.68,63.515 c 0,39.59 -25.27,66.149 -70.76,66.149 -45.5,0 -70.76,-26.559 -70.76,-66.149 0,-39.578 25.26,-66.156 70.76,-66.156 45.49,0 70.76,26.578 70.76,66.156 l 0,0 z m -126.14,0 c 0,27.793 15.78,55.59 55.38,55.59 39.55,0 55.37,-27.797 55.37,-55.59 0,-27.796 -15.82,-55.593 -55.37,-55.593 -39.6,0 -55.38,27.797 -55.38,55.593 l 0,0 z m -51.14,-63.515 0,127.554 -14.27,0 0,-127.554 14.27,0 0,0 z m -44.1,0 0,10.562 -88.34,0 88.34,105.903 0,10.558 -105.05,0 0,-10.558 88.13,0 -88.13,-105.903 0,-10.562 105.05,0 0,0 z m -241.32,0 16.7,34.316 78.92,0 16.93,-34.316 15.6,0 -63.3,127.023 -16.72,0 -62.86,-127.023 14.73,0 0,0 z m 21.34,44.867 34.96,71.598 34.25,-71.598 -69.21,0 0,0 z m -174.43,82.156 0,-127.023 42.86,0 c 52.07,0 81.75,21.461 81.75,63.515 0,42.047 -29.68,63.508 -81.75,63.508 l -42.86,0 0,0 z m 14.3,-116.461 0,105.903 22.4,0 c 45.05,1.054 72.51,-15.477 72.51,-52.95 0,-32.019 -18.25,-52.953 -62.81,-52.953 l -32.1,0 0,0 z m -170.49,-10.562 14.28,0 0,109.785 86.15,-109.785 18.03,0 0,127.023 -14.29,0 0,-111.711 -87.91,111.711 -16.26,0 0,-127.023 z m -32.69,63.515 c 0,39.59 -25.25,66.149 -70.749,66.149 -45.5,0 -70.762,-26.559 -70.762,-66.149 0,-39.578 25.262,-66.156 70.762,-66.156 45.499,0 70.749,26.578 70.749,66.156 l 0,0 z m -126.12,0 c 0,27.793 15.82,55.59 55.371,55.59 39.539,0 55.379,-27.797 55.379,-55.59 0,-27.796 -15.84,-55.593 -55.379,-55.593 -39.551,0 -55.371,27.797 -55.371,55.593 l 0,0 z m -114.852,-63.515 0,61.047 72.743,0 0,10.558 -72.743,0 0,44.86 75.387,0 0,10.558 -89.668,0 0,-127.023 14.281,0 0,0 z m 772.552,-165.371 0,105.918 22.4,0 c 45.06,1.047 72.53,-15.485 72.53,-52.969 0,-32.012 -18.22,-52.949 -62.83,-52.949 l -32.1,0 0,0 z m -645.845,0 0,105.918 22.442,0 c 45.063,1.047 72.523,-15.485 72.523,-52.969 0,-32.012 -18.25,-52.949 -62.867,-52.949 l -32.098,0 0,0"
         style="fill:#161315;fill-opacity:1;fill-rule:evenodd;stroke:none"
         id="path20" /><path
         d="m 2015.61,515.188 128.12,0 0,-128.157 -128.12,0 0,128.157"
         style="fill:#87531c;fill-opacity:1;fill-rule:nonzero;stroke:none"
         id="path22" /><path
         d="m 398.313,641.723 c 0.125,-0.168 0.261,-0.493 0.359,-0.821 l 0,-52.211 -23.809,0 c -4.414,6.211 -9.754,5.02 -19.179,-0.566 4.718,22.848 -6.532,29.996 -6.532,29.996 0,0 -12.121,-9.723 -4.757,-27.848 -16.797,6.438 -22.657,-8.496 -19.051,-18.121 3.523,0 6.082,10.731 15.203,9.871 6.094,-0.578 3.75,-13.398 3.75,-13.398 -0.301,-4.723 -8.984,-10.305 -8.984,-10.305 l -11.29,-4.789 c 0,0 -7.8,-1.75 -16.796,-3.363 -7.762,-1.387 -14.727,-0.535 -21.602,-0.543 -0.398,6.449 -5.254,14.277 -5.645,18.148 4.805,3.09 9.61,4.122 16.836,6.528 7.239,2.41 8.067,6.609 5.645,9.012 -2.383,2.402 -14.238,5.257 -18.516,6.55 1.282,4.7 -5.683,7.282 -9.121,9.008 0.528,0.91 3.391,5.992 0.442,6.102 -4.328,0.16 -11.692,-5.586 -11.692,-5.586 0,0 -4.715,-12.282 -4.715,-19.504 0,-7.231 -6.964,-16.875 -6.129,-25.957 1.719,-18.121 2.157,-66.66 2.157,-66.66 0,0 1.367,-17.012 -3.438,-20.625 -4.804,-3.614 -16.094,4.289 -14.894,12.714 1.183,8.43 -3.614,9.641 -6.043,-2.402 -1.059,-5.273 2.906,-9.609 7.629,-12.832 l -30.641,0.02 c -27.559,46.324 -48.59,104.644 -55.027,177.492 l -24.602,0.09 c 23.324,-278.266 249.102,-361.164 275.07,-361.164 25.086,0 252.45,82.859 275.946,361.144 l -24.602,0.02 c -4.363,-49.102 -15.418,-91.7 -30.594,-128.426 l -41.132,-0.109 c -10.36,2.574 -30.907,8.398 -32.403,9.16 -2.422,1.199 -5.293,2.609 -1.679,7.429 3.613,4.817 26.855,33.965 23.632,36.879 -2.121,1.91 -37.519,-20.332 -37.519,-20.332 -1.367,-0.48 -2.774,0.449 -4.141,2.27 l -13.281,48.066 0,-20.269 c -0.254,-3.008 -2.148,-4.125 -3.301,-3.703 -32.851,12.089 -91.258,-3.254 -91.258,-62.18 0,-1.84 0.039,-3.653 0.125,-5.414 l -14.636,0 0,136.117 c 0.047,0.176 0.086,0.352 0.183,0.527 l -9.968,-0.015 0,0 z M 283.418,587.266 c -2.996,-3.094 -5.605,0 -6.035,2.148 2.16,0 6.035,-2.148 6.035,-2.148 l 0,0 z m 62.344,-25.235 c 0,-6.406 0.429,-26.472 0.429,-26.472 0,0 -1.367,-4.039 -6.171,-4.485 -8.719,-0.769 -28.954,1.293 -32.832,2.153 3.878,5.156 7.832,7.73 14.277,11.687 6.484,3.996 7.851,1.238 13.398,5.149 4.278,3.015 6.485,9.089 10.899,11.968 l 0,0 z m 187.949,-69.597 -2.43,-2.903 25,-22.519 -22.57,25.422 0,0 z m 2.734,20.371 -0.097,-4.02 39.863,1.871 -39.766,2.149 0,0 z m -4.98,15.566 2.187,-2.305 18.926,22.938 -21.113,-20.633 0,0 z m -87.254,-11.183 c 1.805,-3.52 9.519,-4.301 9.961,-2.153 0.437,2.153 -5.645,6.11 -9.961,2.153 l 0,0 z m 72.215,50.664 c -40.469,13.253 -58.809,-27.809 -57.664,-47.204 0.574,-9.605 10.398,-15.394 10.398,-20.214 0,-4.809 -14.277,-0.102 -10.535,-10.473 17.637,-48.906 58.375,-46.231 57.801,-29.395 l 0,107.286 z M 281.523,374.395 c -25.085,21.894 -48.89,48.488 -70.679,83.839 l 37.785,0 3.133,-0.558 c 0,0 2.383,-3.594 12.039,-10.821 9.609,-7.226 15.652,-18.828 15.652,-26.042 0,-4.59 0.481,-12.083 2.07,-18.477 l 0,-27.941 z m 117.149,208.398 0,-276.992 c -14.91,3.672 -63.008,23.535 -111.289,63.703 l 0,30.633 c 2.558,-0.547 10.676,-7.02 14.238,-16.492 1.289,-3.438 8.516,-3.938 10.41,-6.008 4.278,-3.867 6.438,-2.149 5.157,1.699 l -10.84,6.113 c 0,0 -12.52,13.918 -12.52,21.145 0,7.215 1.27,26.258 1.27,26.258 l -1.27,12.226 c 0,0 6.953,1.719 11.231,-2.148 3.886,-3.094 9.531,-13.828 9.531,-13.828 0,0 9.211,2.753 16.398,-0.86 7.235,-3.601 11.278,-6.113 15.567,-4.394 15.293,6.113 9.968,6.972 -1.282,3.437 -3.613,-1.133 -22.929,8.684 -28.964,13.399 -2.469,1.972 -3.008,8.691 -4.805,10.41 -9.883,9.355 -21.211,20.351 -22.441,26.367 -1.192,6.027 5.546,17.148 7.753,23.812 3.086,9.434 0.969,7.997 4.805,14.688 1.719,3.004 18.125,4.121 28.535,7.301 10.391,3.164 16.27,1.234 16.27,1.234 l 0,-10.226 8.418,0 0,61.316 c 0.84,9.016 17.676,7.727 20.676,-1.285 0.398,1.402 4.277,3.433 3.875,8.492 l 19.277,0 0,0 z M 517.57,368.105 c -0.754,-0.585 -1.593,-1.16 -2.511,-1.699 -47.051,-38.691 -91.485,-56.23 -106.961,-60.371 l 0,193.184 16.23,0 c 6.258,-48.692 55.457,-60.848 88.211,-51.239 1.602,0.477 5.645,-2.101 5.031,-14.367 l 0,-65.508 z m 103.66,139.192 c -0.71,-1.563 -1.152,-2.461 -1.152,-2.461 C 594.512,446.914 558.66,404.199 523.391,373.477 l -0.266,80.605 4.895,17.91 c 2.156,1.914 3.093,3.156 6.57,2.832 0,0 33.906,-25.254 36.328,-21.66 2.422,3.625 -19.93,35.078 -23.367,41.945 -0.266,0.536 0.711,3.094 4.324,4.286 1.984,0.664 18.477,5.812 27.246,7.902 l 42.109,0 0,0"
         style="fill:#161315;fill-opacity:1;fill-rule:evenodd;stroke:none"
         id="path24" /><path
         d="m 175.094,822.316 c -4.981,-11.144 -9.301,-23.328 -12.883,-36.457 l 35.68,0 c -0.094,1.758 -0.137,3.559 -0.137,5.422 0,12.133 2.465,22.426 6.699,31 l 33.645,0.035 c -3.18,-7.488 -4.547,-15.148 -4.192,-20.906 0.571,-9.617 10.364,-15.398 10.364,-20.219 0,-4.82 -14.239,-0.101 -10.5,-10.484 17.636,-48.887 58.378,-46.215 57.804,-29.383 l 0,80.992 28.485,0 -12.481,-12.179 2.246,-2.309 11.953,14.488 10.93,0 c -4.102,-5.39 -7.805,-10.089 -9.082,-11.785 -3.605,-4.816 -0.754,-6.23 1.68,-7.429 1.492,-0.762 22.039,-6.582 32.351,-9.161 l 41.016,0 0,28.375 9.426,0 0,-149.617 c 1.98,-5.402 6.621,-9.57 12.254,-10.98 l 95.019,0 0,34.25 c -2.519,-0.547 -10.683,-7.031 -14.199,-16.5 -1.317,-3.442 -8.555,-3.938 -10.41,-6.02 -4.317,-3.859 -6.426,-2.14 -5.157,1.719 l 10.84,6.113 c 0,0 12.532,13.907 12.532,21.125 0,7.219 -1.282,26.266 -1.282,26.266 l 1.282,12.23 c 0,0 -6.965,1.719 -11.243,-2.148 -3.886,-3.094 -9.57,-13.832 -9.57,-13.832 0,0 -9.168,2.758 -16.394,-0.859 -7.239,-3.61 -11.25,-6.11 -15.52,-4.391 -15.301,6.109 -10.02,6.969 1.27,3.433 3.613,-1.136 22.929,8.688 28.925,13.399 2.512,1.969 3.039,8.691 4.844,10.41 9.883,9.356 21.211,20.356 22.402,26.379 1.231,6.008 -5.507,17.137 -7.714,23.809 -3.086,9.425 -1.016,8 -4.805,14.687 -1.719,2.996 -18.164,4.121 -28.524,7.289 -10.402,3.168 -16.269,1.246 -16.269,1.246 l 0,-10.23 -8.43,0 0,12.222 100.703,0 c -0.566,-19.07 -0.789,-39.23 -0.789,-39.23 0,0 -1.32,-17.008 3.485,-20.625 4.804,-3.609 16.093,4.293 14.902,12.711 -1.199,8.433 3.613,9.637 5.996,-2.399 1.055,-5.273 -2.871,-9.609 -7.637,-12.832 l 85.762,0 c -4.238,23.293 -10.547,43.985 -18.613,62.239 l 26.406,0.136 c 14.375,-36.425 22.656,-80.64 22.656,-133.253 0,-16.375 -0.656,-32.157 -1.933,-47.36 l -24.602,0.02 c 0.317,3.574 0.578,7.058 0.793,10.578 l -235.605,0 c -5.196,-1.563 -9.297,-5.504 -11.192,-10.563 l -9.968,-0.015 c -1.887,5.144 -5.989,9.035 -11.153,10.578 l -235.523,0 c 0.269,-3.594 0.527,-7.153 0.836,-10.668 l -24.602,0.09 c -1.277,15.156 -1.937,30.953 -1.937,47.34 0,52.613 8.242,96.816 22.66,133.277 l 26.5,-0.024 0,0 z m 135.746,-49.121 -2.383,-2.918 25,-22.504 -22.617,25.422 0,0 z m 2.773,20.36 -0.078,-4.008 39.844,1.875 -39.766,2.133 0,0 z m -94.258,4.394 c 1.813,-3.535 9.524,-4.293 9.961,-2.148 0.442,2.148 -5.683,6.097 -9.961,2.148 l 0,0 z m -58.679,-17.976 c -6.613,-26.453 -10.231,-56.637 -10.231,-90.91 0,-9.321 0.219,-18.438 0.66,-27.344 l 141.61,0 0,52.656 c 0.625,12.258 -3.438,14.836 -5.067,14.359 -32.71,-9.597 -81.953,2.551 -88.218,51.239 l -38.754,0 0,0 z m 237.996,8.086 0,-113.75 c -1.641,-6.172 -6.57,-11.032 -12.793,-12.59 l -87.254,0 -0.344,73.117 4.883,17.91 c 2.121,1.922 3.086,3.156 6.574,2.84 0,0 33.907,-25.262 36.328,-21.656 2.391,3.613 -19.921,35.07 -23.371,41.941 -0.254,0.535 0.715,3.078 4.328,4.297 1.942,0.648 18.426,5.789 27.196,7.891 l 44.453,0 0,0 z M 656.32,689.063 c 0,23.55 -1.718,45.171 -4.933,64.992 l -97.219,0 -3.133,-0.543 c 0,0 -2.422,-3.614 -12.031,-10.832 -9.656,-7.231 -15.652,-18.821 -15.652,-26.047 0,-4.586 -0.489,-12.078 -2.082,-18.469 l 0,-36.445 134.394,0 c 0.43,8.906 0.656,18.023 0.656,27.344 l 0,0"
         style="fill:#161315;fill-opacity:1;fill-rule:evenodd;stroke:none"
         id="path26" /><path
         d="m 148.594,822.316 c 38.047,96.571 118.949,138.793 202.285,138.793 2.5,0 4.883,1.391 5.773,2.012 10.496,14.559 28.075,24.027 47.176,24.027 19.258,0 37.16,-10.351 47.61,-24.793 0.613,-0.48 1.941,-1.246 4.46,-1.246 83.321,0 164.18,-42.222 202.266,-138.761 l -26.406,-0.032 c -35.891,81.086 -105.899,114.286 -175.86,114.286 -9.668,0 -19.668,4.25 -25.222,12.3 -5.246,7.266 -13.313,12.282 -22.578,13.473 l 0,-77.871 19.843,0 c 4.403,6.223 9.747,5.023 19.168,-0.547 -4.707,22.844 6.536,29.988 6.536,29.988 0,0 12.117,-9.711 4.714,-27.84 16.836,6.43 22.707,-8.503 19.102,-18.136 -3.535,0 -6.094,10.734 -15.215,9.875 -6.133,-0.567 -3.797,-13.406 -3.797,-13.406 0.36,-4.711 9.031,-10.301 9.031,-10.301 l 11.25,-4.789 c 0,0 7.805,-1.739 16.836,-3.356 7.715,-1.398 14.688,-0.539 21.563,-0.547 0.441,6.45 5.242,14.282 5.695,18.149 -4.816,3.09 -9.621,4.121 -16.847,6.523 -7.227,2.406 -8.067,6.606 -5.684,9.016 2.422,2.41 14.277,5.262 18.555,6.543 -1.278,4.711 5.683,7.289 9.082,9.015 -0.481,0.911 -3.352,5.993 -0.399,6.102 4.285,0.164 11.688,-5.582 11.688,-5.582 0,0 4.726,-12.285 4.726,-19.512 0,-7.226 6.953,-16.871 6.125,-25.953 -0.617,-6.449 -1.066,-16.726 -1.418,-27.324 l -100.703,-0.106 0,49.09 c -0.84,9.016 -17.676,7.727 -20.664,-1.289 -0.41,1.406 -4.324,3.438 -3.887,8.496 l -15.3,0 0,-56.297 -9.426,0 0,139.926 c -9.09,-1.39 -17.07,-6.39 -22.09,-13.34 -5.652,-8.05 -16.094,-12.3 -25.703,-12.3 -69.883,0 -139.859,-33.125 -175.785,-114.18 l -26.5,-0.106 0,0 z m 55.859,0 c 16.27,33.032 58.461,40.727 84.563,31.133 1.14,-0.418 3.035,0.688 3.308,3.696 l 0,20.269 13.223,-48.066 c 1.418,-1.809 2.773,-2.731 4.191,-2.266 0,0 35.399,22.234 37.52,20.324 2.117,-1.879 -6.965,-14.808 -14.551,-24.968 l -10.93,-0.122 6.961,8.45 -8.679,-8.45 -28.485,0 0,26.297 c -28.476,9.313 -45.988,-8.226 -53.476,-26.191 l -33.645,-0.106 0,0 z m 314.922,60.782 c 2.996,-3.106 5.605,0 5.996,2.148 -2.109,0 -5.996,-2.148 -5.996,-2.148 l 0,0 z m -60.613,-26.5 c 0,-6.422 -1.203,-24.965 -1.203,-24.965 0,0 0.363,-4.305 5.214,-4.735 8.723,-0.769 28.965,1.29 32.793,2.149 -3.828,5.164 -7.8,7.726 -14.238,11.699 -6.473,3.977 -7.851,1.227 -13.398,5.145 -4.317,2.996 -4.715,7.824 -9.168,10.707 l 0,0"
         style="fill:#161315;fill-opacity:1;fill-rule:evenodd;stroke:none"
         id="path28" /><path
         d="m 848.633,183.117 c -0.305,2.977 -1.317,5.321 -2.957,7.039 -1.633,1.778 -3.75,2.657 -6.352,2.657 -2.469,0 -4.531,-0.879 -6.129,-2.657 -1.574,-1.718 -2.636,-4.062 -3.125,-7.039 l 18.563,0 0,0 z m -7.715,-32.414 c -4.188,0 -8.074,0.656 -11.555,1.953 -3.496,1.387 -6.531,3.282 -9.129,5.645 -2.461,2.441 -4.445,5.371 -5.898,8.808 -1.367,3.418 -2.078,7.219 -2.078,11.36 l 0,0.203 c 0,3.898 0.66,7.512 1.98,10.879 1.336,3.449 3.133,6.398 5.508,8.918 2.473,2.547 5.352,4.578 8.606,6.015 3.308,1.454 6.921,2.176 10.886,2.176 4.637,0 8.594,-0.781 11.992,-2.371 3.399,-1.574 6.219,-3.742 8.379,-6.418 2.246,-2.644 3.879,-5.73 4.93,-9.305 1.156,-3.507 1.731,-7.207 1.731,-11.183 0,-0.586 0,-1.211 0,-1.875 0,-0.653 -0.047,-1.309 -0.137,-1.973 l -35.801,0 c 0.75,-2.957 2.07,-5.183 4.063,-6.621 2.058,-1.453 4.531,-2.187 7.531,-2.187 2.254,0 4.285,0.429 6.121,1.289 1.902,0.859 3.801,2.246 5.742,4.16 l 10.371,-8.613 c -2.566,-3.282 -5.754,-5.938 -9.582,-7.911 -3.75,-1.972 -8.328,-2.949 -13.66,-2.949 l 0,0"
         style="fill:#161315;fill-opacity:1;fill-rule:evenodd;stroke:none"
         id="path30" /><path
         d="m 899.551,221.211 19.308,0 0,-69.238 -19.308,0 0,69.238"
         style="fill:#161315;fill-opacity:1;fill-rule:nonzero;stroke:none"
         id="path32" /><path
         d="m 929.707,221.211 17.902,0 28.473,-36.59 0,36.59 19.008,0 0,-69.238 -16.789,0 -29.59,37.98 0,-37.98 -19.004,0 0,69.238"
         style="fill:#161315;fill-opacity:1;fill-rule:nonzero;stroke:none"
         id="path34" /><path
         d="m 1005.59,221.211 17.89,0 28.48,-36.59 0,36.59 19.02,0 0,-69.238 -16.86,0 -29.53,37.98 0,-37.98 -19,0 0,69.238"
         style="fill:#161315;fill-opacity:1;fill-rule:nonzero;stroke:none"
         id="path36" /><path
         d="m 1116.41,167.891 c 2.66,0 5.08,0.507 7.24,1.496 2.17,0.984 4.01,2.293 5.57,3.953 1.49,1.719 2.67,3.691 3.51,5.918 0.89,2.246 1.33,4.64 1.33,7.129 l 0,0.195 c 0,2.52 -0.44,4.895 -1.33,7.148 -0.84,2.219 -2.05,4.2 -3.66,5.918 -1.57,1.7 -3.43,3.067 -5.64,4.063 -2.16,1.035 -4.53,1.562 -7.18,1.562 -2.64,0 -5.08,-0.488 -7.23,-1.484 -2.13,-0.976 -3.97,-2.332 -5.56,-4.043 -1.5,-1.66 -2.69,-3.594 -3.53,-5.848 -0.8,-2.226 -1.18,-4.601 -1.18,-7.121 l 0,-0.195 c 0,-2.488 0.38,-4.871 1.27,-7.129 0.84,-2.215 2.03,-4.199 3.59,-5.918 1.53,-1.726 3.43,-3.086 5.59,-4.148 2.2,-0.989 4.58,-1.496 7.21,-1.496 l 0,0 z m -0.16,-17.305 c -5.33,0 -10.31,0.918 -14.85,2.773 -4.54,1.914 -8.48,4.473 -11.79,7.715 -3.25,3.223 -5.9,7.012 -7.79,11.367 -1.86,4.356 -2.79,9.004 -2.79,13.946 l 0,0.195 c 0,4.961 0.93,9.59 2.79,13.945 1.89,4.414 4.54,8.243 7.94,11.465 3.35,3.313 7.32,5.871 11.85,7.727 4.55,1.914 9.48,2.859 14.8,2.859 5.34,0 10.33,-0.945 14.86,-2.859 4.55,-1.856 8.49,-4.395 11.78,-7.61 3.27,-3.242 5.86,-7.031 7.72,-11.375 1.91,-4.347 2.86,-8.996 2.86,-13.957 l 0,-0.195 c 0,-4.941 -0.95,-9.609 -2.86,-14.043 -1.86,-4.344 -4.45,-8.184 -7.85,-11.465 -3.35,-3.242 -7.32,-5.801 -11.87,-7.715 -4.53,-1.855 -9.47,-2.773 -14.8,-2.773 l 0,0"
         style="fill:#161315;fill-opacity:1;fill-rule:evenodd;stroke:none"
         id="path38" /><path
         d="m 1156.28,221.211 21.46,0 15.76,-43.828 15.69,43.828 21.08,0 -28.09,-69.727 -17.8,0 -28.1,69.727 0,0"
         style="fill:#161315;fill-opacity:1;fill-rule:nonzero;stroke:none"
         id="path40" /><path
         d="m 1275.94,179.258 -7.72,19.687 -7.79,-19.687 15.51,0 0,0 z m -16.79,42.441 18.46,0 29.49,-69.726 -20.58,0 -5.04,12.363 -26.7,0 -4.96,-12.363 -20.17,0 29.5,69.726 0,0"
         style="fill:#161315;fill-opacity:1;fill-rule:evenodd;stroke:none"
         id="path42" /><path
         d="m 1309.89,165.93 34.69,39.05 -33.51,0 0,16.231 60,0 0,-13.953 -34.68,-39.063 34.68,0 0,-16.222 -61.18,0 0,13.957"
         style="fill:#161315;fill-opacity:1;fill-rule:nonzero;stroke:none"
         id="path44" /><path
         d="m 1379.68,221.211 19.3,0 0,-69.238 -19.3,0 0,69.238"
         style="fill:#161315;fill-opacity:1;fill-rule:nonzero;stroke:none"
         id="path46" /><path
         d="m 1444.83,167.891 c 2.65,0 5.08,0.507 7.24,1.496 2.21,0.984 4,2.293 5.56,3.953 1.49,1.719 2.68,3.691 3.57,5.918 0.84,2.246 1.28,4.64 1.28,7.129 l 0,0.195 c 0,2.52 -0.44,4.895 -1.28,7.148 -0.89,2.219 -2.12,4.2 -3.71,5.918 -1.53,1.7 -3.44,3.067 -5.6,4.063 -2.2,1.035 -4.57,1.562 -7.23,1.562 -2.64,0 -5.02,-0.488 -7.23,-1.484 -2.12,-0.976 -3.91,-2.332 -5.52,-4.043 -1.53,-1.66 -2.72,-3.594 -3.56,-5.848 -0.8,-2.226 -1.18,-4.601 -1.18,-7.121 l 0,-0.195 c 0,-2.488 0.44,-4.871 1.27,-7.129 0.84,-2.215 2.07,-4.199 3.58,-5.918 1.57,-1.726 3.44,-3.086 5.64,-4.148 2.16,-0.989 4.58,-1.496 7.17,-1.496 l 0,0 z m -0.17,-17.305 c -5.32,0 -10.27,0.918 -14.8,2.773 -4.59,1.914 -8.52,4.473 -11.77,7.715 -3.31,3.223 -5.91,7.012 -7.86,11.367 -1.81,4.356 -2.73,9.004 -2.73,13.946 l 0,0.195 c 0,4.961 0.92,9.59 2.73,13.945 1.95,4.414 4.55,8.243 7.93,11.465 3.36,3.313 7.33,5.871 11.86,7.727 4.56,1.914 9.48,2.859 14.81,2.859 5.4,0 10.33,-0.945 14.86,-2.859 4.55,-1.856 8.47,-4.395 11.77,-7.61 3.32,-3.242 5.87,-7.031 7.72,-11.375 1.9,-4.347 2.87,-8.996 2.87,-13.957 l 0,-0.195 c 0,-4.941 -0.97,-9.609 -2.87,-14.043 -1.85,-4.344 -4.44,-8.184 -7.8,-11.465 -3.39,-3.242 -7.33,-5.801 -11.91,-7.715 -4.54,-1.855 -9.47,-2.773 -14.81,-2.773 l 0,0"
         style="fill:#161315;fill-opacity:1;fill-rule:evenodd;stroke:none"
         id="path48" /><path
         d="m 1490.25,221.211 17.91,0 28.48,-36.59 0,36.59 18.99,0 0,-69.238 -16.84,0 -29.54,37.98 0,-37.98 -19,0 0,69.238"
         style="fill:#161315;fill-opacity:1;fill-rule:nonzero;stroke:none"
         id="path50" /><path
         d="m 1566.09,221.211 55.67,0 0,-16.336 -36.67,0 0,-10.469 33.24,0 0,-15.148 -33.24,0 0,-10.977 37.21,0 0,-16.308 -56.21,0 0,69.238"
         style="fill:#161315;fill-opacity:1;fill-rule:nonzero;stroke:none"
         id="path52" /><path
         d="m 848.848,249.492 c -4.934,0 -9.61,0.879 -13.938,2.676 -4.351,1.758 -8.14,4.219 -11.367,7.402 -3.172,3.243 -5.73,7.032 -7.637,11.368 -1.832,4.425 -2.769,9.218 -2.769,14.355 l 0,0.187 c 0,5.02 0.937,9.696 2.769,14.051 1.867,4.414 4.367,8.242 7.637,11.465 3.227,3.301 7.016,5.879 11.469,7.715 4.453,1.855 9.343,2.773 14.636,2.773 3.528,0 6.79,-0.359 9.7,-1.082 2.859,-0.664 5.507,-1.652 7.89,-2.98 2.43,-1.238 4.625,-2.762 6.532,-4.551 1.972,-1.777 3.742,-3.711 5.246,-5.82 l -14.477,-11.172 c -1.969,2.5 -4.129,4.473 -6.512,5.93 -2.343,1.433 -5.254,2.168 -8.593,2.168 -2.442,0 -4.676,-0.481 -6.707,-1.477 -1.985,-0.926 -3.704,-2.215 -5.157,-3.855 -1.457,-1.653 -2.609,-3.594 -3.449,-5.852 -0.781,-2.227 -1.18,-4.609 -1.18,-7.109 l 0,-0.204 c 0,-2.57 0.399,-5 1.18,-7.304 0.84,-2.246 1.992,-4.192 3.449,-5.84 1.453,-1.652 3.172,-2.961 5.157,-3.957 2.031,-0.938 4.265,-1.387 6.707,-1.387 1.796,0 3.379,0.196 4.843,0.586 1.536,0.402 2.852,0.957 4.051,1.699 1.242,0.774 2.422,1.661 3.481,2.657 1.109,1.054 2.207,2.207 3.269,3.468 l 14.414,-10.285 c -1.629,-2.246 -3.437,-4.316 -5.429,-6.23 -1.934,-1.914 -4.129,-3.555 -6.614,-4.961 -2.469,-1.367 -5.242,-2.469 -8.316,-3.262 -3.051,-0.781 -6.485,-1.172 -10.285,-1.172 l 0,0"
         style="fill:#161315;fill-opacity:1;fill-rule:nonzero;stroke:none"
         id="path54" /><path
         d="m 885.938,320.109 55.675,0 0,-16.328 -36.691,0 0,-10.48 33.215,0 0,-15.125 -33.215,0 0,-10.988 37.18,0 0,-16.309 -56.164,0 0,69.23"
         style="fill:#161315;fill-opacity:1;fill-rule:nonzero;stroke:none"
         id="path56" /><path
         d="m 950.117,320.109 17.91,0 28.477,-36.601 0,36.601 18.956,0 0,-69.23 -16.8,0 -29.578,37.969 0,-37.969 -18.965,0 0,69.23"
         style="fill:#161315;fill-opacity:1;fill-rule:nonzero;stroke:none"
         id="path58" /><path
         d="m 1042.88,303.301 -20.8,0 0,16.808 60.75,0 0,-16.808 -20.77,0 0,-52.422 -19.18,0 0,52.422"
         style="fill:#161315;fill-opacity:1;fill-rule:nonzero;stroke:none"
         id="path60" /><path
         d="m 1121.27,286.875 c 3.31,0 5.87,0.723 7.63,2.168 1.78,1.523 2.69,3.535 2.69,6.035 l 0,0.195 c 0,2.774 -0.91,4.817 -2.77,6.133 -1.87,1.387 -4.37,2.09 -7.63,2.09 l -12.58,0 0,-16.621 12.66,0 0,0 z m -31.82,33.234 32.76,0 c 5.33,0 9.82,-0.675 13.53,-1.984 3.69,-1.309 6.69,-3.164 8.99,-5.535 4.11,-3.957 6.12,-9.348 6.12,-16.125 l 0,-0.203 c 0,-5.332 -1.27,-9.758 -3.83,-13.254 -2.59,-3.485 -6.04,-6.153 -10.4,-8.008 l 16.54,-24.121 -22.18,0 -13.94,20.957 -8.43,0 0,-20.957 -19.16,0 0,69.23"
         style="fill:#161315;fill-opacity:1;fill-rule:evenodd;stroke:none"
         id="path62" /><path
         d="m 1193.75,266.797 c 2.65,0 5.08,0.488 7.24,1.476 2.21,1.004 4,2.313 5.56,3.954 1.49,1.718 2.68,3.703 3.57,5.949 0.83,2.234 1.28,4.609 1.28,7.117 l 0,0.187 c 0,2.52 -0.45,4.891 -1.28,7.118 -0.89,2.246 -2.08,4.238 -3.67,5.937 -1.58,1.719 -3.48,3.078 -5.65,4.063 -2.15,1.054 -4.57,1.582 -7.23,1.582 -2.63,0 -5.02,-0.508 -7.22,-1.485 -2.12,-0.984 -3.92,-2.343 -5.52,-4.05 -1.53,-1.653 -2.72,-3.594 -3.56,-5.852 -0.81,-2.227 -1.2,-4.609 -1.2,-7.109 l 0,-0.204 c 0,-2.5 0.45,-4.875 1.27,-7.101 0.9,-2.254 2.09,-4.238 3.59,-5.945 1.58,-1.731 3.45,-3.098 5.64,-4.161 2.16,-0.988 4.58,-1.476 7.18,-1.476 l 0,0 z m -0.18,-17.305 c -5.32,0 -10.26,0.93 -14.8,2.754 -4.6,1.926 -8.52,4.504 -11.77,7.715 -3.31,3.242 -5.91,7.031 -7.85,11.379 -1.82,4.344 -2.74,9.012 -2.74,13.953 l 0,0.187 c 0,4.95 0.92,9.598 2.74,13.954 1.94,4.414 4.58,8.234 7.93,11.464 3.36,3.301 7.33,5.879 11.87,7.715 4.55,1.926 9.48,2.871 14.8,2.871 5.39,0 10.32,-0.945 14.86,-2.871 4.55,-1.836 8.46,-4.383 11.78,-7.617 3.3,-3.223 5.86,-7.019 7.72,-11.355 1.89,-4.368 2.86,-9.016 2.86,-13.957 l 0,-0.204 c 0,-4.933 -0.97,-9.621 -2.86,-14.035 -1.86,-4.355 -4.46,-8.172 -7.82,-11.484 -3.38,-3.211 -7.32,-5.789 -11.85,-7.715 -4.59,-1.824 -9.53,-2.754 -14.87,-2.754 l 0,0"
         style="fill:#161315;fill-opacity:1;fill-rule:evenodd;stroke:none"
         id="path64" /><path
         d="m 1296.61,286.875 c 3.31,0 5.81,0.723 7.64,2.168 1.76,1.523 2.64,3.535 2.64,6.035 l 0,0.195 c 0,2.774 -0.92,4.817 -2.75,6.133 -1.84,1.387 -4.39,2.09 -7.62,2.09 l -12.56,0 0,-16.621 12.65,0 0,0 z m -31.82,33.234 32.71,0 c 5.36,0 9.87,-0.675 13.57,-1.984 3.68,-1.309 6.66,-3.164 9,-5.535 4.09,-3.957 6.13,-9.348 6.13,-16.125 l 0,-0.203 c 0,-5.332 -1.28,-9.758 -3.88,-13.254 -2.56,-3.485 -6,-6.153 -10.37,-8.008 l 16.49,-24.121 -22.13,0 -13.93,20.957 -8.42,0 0,-20.957 -19.17,0 0,69.23"
         style="fill:#161315;fill-opacity:1;fill-rule:evenodd;stroke:none"
         id="path66" /><path
         d="m 1334.48,320.109 19.32,0 0,-69.23 -19.32,0 0,69.23"
         style="fill:#161315;fill-opacity:1;fill-rule:nonzero;stroke:none"
         id="path68" /><path
         d="m 1397.97,249.492 c -4.93,0 -9.57,0.879 -13.93,2.676 -4.36,1.758 -8.16,4.219 -11.38,7.402 -3.16,3.243 -5.68,7.032 -7.61,11.368 -1.87,4.425 -2.79,9.218 -2.79,14.355 l 0,0.187 c 0,5.02 0.92,9.696 2.79,14.051 1.84,4.414 4.4,8.242 7.61,11.465 3.22,3.301 7.06,5.879 11.47,7.715 4.49,1.855 9.35,2.773 14.63,2.773 3.57,0 6.8,-0.359 9.7,-1.082 2.92,-0.664 5.56,-1.652 7.9,-2.98 2.46,-1.238 4.62,-2.762 6.52,-4.551 1.98,-1.777 3.75,-3.711 5.26,-5.82 l -14.42,-11.172 c -1.98,2.5 -4.15,4.473 -6.53,5.93 -2.39,1.433 -5.26,2.168 -8.6,2.168 -2.47,0 -4.68,-0.481 -6.75,-1.477 -1.98,-0.926 -3.7,-2.215 -5.16,-3.855 -1.41,-1.653 -2.6,-3.594 -3.44,-5.852 -0.78,-2.227 -1.18,-4.609 -1.18,-7.109 l 0,-0.204 c 0,-2.57 0.4,-5 1.18,-7.304 0.84,-2.246 2.03,-4.192 3.44,-5.84 1.46,-1.652 3.18,-2.961 5.16,-3.957 2.07,-0.938 4.28,-1.387 6.75,-1.387 1.77,0 3.39,0.196 4.85,0.586 1.49,0.402 2.87,0.957 4.06,1.699 1.23,0.774 2.38,1.661 3.44,2.657 1.14,1.054 2.2,2.207 3.26,3.468 l 14.46,-10.285 c -1.68,-2.246 -3.48,-4.316 -5.46,-6.23 -1.9,-1.914 -4.11,-3.555 -6.63,-4.961 -2.41,-1.367 -5.19,-2.469 -8.28,-3.262 -3.04,-0.781 -6.47,-1.172 -10.32,-1.172 l 0,0"
         style="fill:#161315;fill-opacity:1;fill-rule:nonzero;stroke:none"
         id="path70" /><path
         d="m 1435.06,320.109 55.67,0 0,-16.328 -36.68,0 0,-10.48 33.24,0 0,-15.125 -33.24,0 0,-10.988 37.17,0 0,-16.309 -56.16,0 0,69.23"
         style="fill:#161315;fill-opacity:1;fill-rule:nonzero;stroke:none"
         id="path72" /><path
         d="m 1531.07,286.875 c 3.32,0 5.86,0.723 7.63,2.168 1.77,1.523 2.69,3.535 2.69,6.035 l 0,0.195 c 0,2.774 -0.92,4.817 -2.78,6.133 -1.84,1.387 -4.4,2.09 -7.61,2.09 l -12.57,0 0,-16.621 12.64,0 0,0 z m -31.82,33.234 32.76,0 c 5.33,0 9.81,-0.675 13.53,-1.984 3.71,-1.309 6.69,-3.164 8.99,-5.535 4.1,-3.957 6.13,-9.348 6.13,-16.125 l 0,-0.203 c 0,-5.332 -1.27,-9.758 -3.84,-13.254 -2.59,-3.485 -6.04,-6.153 -10.4,-8.008 l 16.53,-24.121 -22.18,0 -13.92,20.957 -8.42,0 0,-20.957 -19.18,0 0,69.23"
         style="fill:#161315;fill-opacity:1;fill-rule:evenodd;stroke:none"
         id="path74" /><path
         d="m 1601.89,249.492 c -4.94,0 -9.57,0.879 -13.94,2.676 -4.36,1.758 -8.15,4.219 -11.38,7.402 -3.17,3.243 -5.68,7.032 -7.58,11.368 -1.84,4.425 -2.78,9.218 -2.78,14.355 l 0,0.187 c 0,5.02 0.94,9.696 2.78,14.051 1.81,4.414 4.36,8.242 7.58,11.465 3.23,3.301 7.06,5.879 11.48,7.715 4.48,1.855 9.37,2.773 14.64,2.773 3.56,0 6.77,-0.359 9.69,-1.082 2.91,-0.664 5.55,-1.652 7.92,-2.98 2.44,-1.238 4.6,-2.762 6.54,-4.551 1.99,-1.777 3.71,-3.711 5.24,-5.82 l -14.45,-11.172 c -1.99,2.5 -4.15,4.473 -6.52,5.93 -2.39,1.433 -5.26,2.168 -8.61,2.168 -2.42,0 -4.68,-0.481 -6.75,-1.477 -1.98,-0.926 -3.66,-2.215 -5.11,-3.855 -1.46,-1.653 -2.59,-3.594 -3.48,-5.852 -0.79,-2.227 -1.19,-4.609 -1.19,-7.109 l 0,-0.204 c 0,-2.57 0.4,-5 1.19,-7.304 0.89,-2.246 2.02,-4.192 3.48,-5.84 1.45,-1.652 3.13,-2.961 5.11,-3.957 2.07,-0.938 4.33,-1.387 6.75,-1.387 1.77,0 3.39,0.196 4.84,0.586 1.51,0.402 2.87,0.957 4.07,1.699 1.23,0.774 2.38,1.661 3.45,2.657 1.13,1.054 2.19,2.207 3.25,3.468 l 14.45,-10.285 c -1.68,-2.246 -3.48,-4.316 -5.45,-6.23 -1.91,-1.914 -4.11,-3.555 -6.62,-4.961 -2.42,-1.367 -5.2,-2.469 -8.29,-3.262 -3.04,-0.781 -6.48,-1.172 -10.31,-1.172 l 0,0"
         style="fill:#161315;fill-opacity:1;fill-rule:nonzero;stroke:none"
         id="path76" /><path
         d="m 1679.75,278.176 -7.73,19.676 -7.8,-19.676 15.53,0 0,0 z m -16.85,42.422 18.53,0 29.44,-69.719 -20.55,0 -5.02,12.355 -26.71,0 -4.95,-12.355 -20.19,0 29.45,69.719 0,0"
         style="fill:#161315;fill-opacity:1;fill-rule:evenodd;stroke:none"
         id="path78" /></g></g></svg>