<?xml version="1.0" encoding="UTF-8" standalone="no"?>
<!-- Created with Inkscape (http://www.inkscape.org/) -->

<svg
   xmlns:dc="http://purl.org/dc/elements/1.1/"
   xmlns:cc="http://creativecommons.org/ns#"
   xmlns:rdf="http://www.w3.org/1999/02/22-rdf-syntax-ns#"
   xmlns:svg="http://www.w3.org/2000/svg"
   xmlns="http://www.w3.org/2000/svg"
   xmlns:sodipodi="http://sodipodi.sourceforge.net/DTD/sodipodi-0.dtd"
   xmlns:inkscape="http://www.inkscape.org/namespaces/inkscape"
   id="svg2"
   version="1.1"
   inkscape:version="0.48.4 r9939"
   width="372.8"
   height="166.3"
   xml:space="preserve"
   sodipodi:docname="Project.eps"><metadata
     id="metadata8"><rdf:RDF><cc:Work
         rdf:about=""><dc:format>image/svg+xml</dc:format><dc:type
           rdf:resource="http://purl.org/dc/dcmitype/StillImage" /><dc:title></dc:title></cc:Work></rdf:RDF></metadata><defs
     id="defs6" /><sodipodi:namedview
     pagecolor="#ffffff"
     bordercolor="#666666"
     borderopacity="1"
     objecttolerance="10"
     gridtolerance="10"
     guidetolerance="10"
     inkscape:pageopacity="0"
     inkscape:pageshadow="2"
     inkscape:window-width="640"
     inkscape:window-height="480"
     id="namedview4"
     showgrid="false"
     inkscape:zoom="0.87714595"
     inkscape:cx="186.39999"
     inkscape:cy="83.150002"
     inkscape:window-x="0"
     inkscape:window-y="31"
     inkscape:window-maximized="0"
     inkscape:current-layer="g10" /><g
     id="g10"
     inkscape:groupmode="layer"
     inkscape:label="ink_ext_XXXXXX"
     transform="matrix(1.25,0,0,-1.25,0,166.3)"><g
       id="g12"
       transform="scale(0.1,0.1)"><path
         d="m 565.363,150.539 c -265.05,0 -479.9333,214.871 -479.9333,479.93 0,265.078 214.8833,479.921 479.9333,479.921 265.047,0 479.957,-214.843 479.957,-479.921 0,-265.059 -214.91,-479.93 -479.957,-479.93 m 0,991.981 c -283.152,0 -512.6716,-229.532 -512.6716,-512.676 0,-283.125 229.5196,-512.664 512.6716,-512.664 283.129,0 512.677,229.539 512.677,512.664 0,283.144 -229.548,512.676 -512.677,512.676"
         style="fill:#48af3a;fill-opacity:1;fill-rule:evenodd;stroke:none"
         id="path14" /><path
         d="M 1103.23,874.844 966.133,757.285 968.594,577.617 871.82,368.32 l -93.312,-86.648 -20.922,-65.25 63.25,-63.281 68.906,0 194.558,194.535 50.28,175.711 -31.35,351.457"
         style="fill:#ffffff;fill-opacity:1;fill-rule:nonzero;stroke:none"
         id="path16" /><path
         d="m 1183.49,439.16 c -21.3,36.328 -32.1,82.305 -32.1,136.621 0,56.465 10.53,101.641 31.23,134.239 20.51,32.246 50.85,48.593 90.16,48.593 90.46,0 134.41,-59.804 134.41,-182.832 0,-60.332 -11.65,-107.793 -34.62,-141.054 -22.74,-32.93 -56.34,-49.61 -99.79,-49.61 -38.21,0 -68.23,18.184 -89.29,54.043 m -53.57,312.442 c -34.9,-46.993 -52.62,-106.133 -52.62,-175.821 0,-74.004 17.34,-135.566 51.63,-182.968 34.45,-47.696 82.83,-71.903 143.82,-71.903 66.78,0 118.82,22.899 154.71,68.016 35.71,44.961 53.85,107.832 53.85,186.855 0,77.149 -18.08,138.184 -53.74,181.465 -35.74,43.477 -87.83,65.527 -154.82,65.527 -59.67,0 -107.69,-23.964 -142.83,-71.171"
         style="fill:#48af3a;fill-opacity:1;fill-rule:nonzero;stroke:none"
         id="path18" /><path
         d="m 1565.46,786.66 c -25.86,-24.004 -38.96,-54.668 -38.96,-91.113 0,-29.824 6.68,-55.801 19.91,-77.09 13.19,-21.328 36.65,-39.961 69.78,-55.391 L 1654.8,545 c 34.08,-16.055 55.6,-30.996 63.92,-44.375 8.32,-13.398 12.53,-28.105 12.53,-43.711 0,-20.762 -7.51,-38.105 -22.37,-51.484 -14.88,-13.457 -34.95,-20.313 -59.71,-20.313 -14.03,0 -30.17,2.949 -48.05,8.887 -17.85,5.879 -32.94,13.301 -44.85,22.09 l -2.79,2.07 -25.91,-65.449 1.76,-1.172 c 30.44,-20.332 67.64,-30.633 110.56,-30.633 48.91,0 88.52,12.918 117.82,38.387 29.4,25.527 44.35,57.07 44.35,93.769 0,33.555 -6.81,61.602 -20.26,83.477 -13.45,21.855 -37.07,40.879 -70.19,56.543 l -39.36,18.691 c -25.07,12.11 -41.87,21.563 -49.83,28.184 -7.85,6.484 -14.08,14.648 -18.47,24.297 -4.42,9.687 -6.66,20.566 -6.66,32.383 0,19.082 6.21,34.902 18.45,47.011 12.23,12.149 29.38,18.282 50.94,18.282 14.95,0 31.5,-2.969 49.15,-8.77 17.61,-5.82 30.86,-11.914 39.42,-18.086 l 2.89,-2.148 21.12,62.187 -1.37,1.153 c -21.21,17.578 -59.13,26.503 -112.75,26.503 -40.34,0 -73.89,-12.148 -99.68,-36.113"
         style="fill:#48af3a;fill-opacity:1;fill-rule:nonzero;stroke:none"
         id="path20" /><path
         d="m 1911.61,752.578 c -42.22,-46.484 -63.65,-107.93 -63.65,-182.519 0,-74.805 19.54,-135.645 58.07,-180.84 38.64,-45.293 92,-68.309 158.63,-68.309 29.52,0 60.38,4.668 91.7,13.758 31.43,9.102 56.29,21.387 73.97,36.426 l 0.95,0.761 0,213.028 -137.1,0 0,-60.86 66.31,0 0,-108.75 c -20.89,-19.941 -48.46,-30.156 -82.08,-30.156 -48.04,0 -86.46,16.758 -114.27,49.883 -27.91,33.223 -42.05,77.793 -42.05,132.402 0,57.5 14.41,104.278 42.86,139.043 28.32,34.629 67.53,52.168 116.59,52.168 30.85,0 62.87,-12.168 95.16,-36.093 l 2.54,-1.875 29.49,58.652 -1.58,1.348 c -31.76,27.929 -73.38,42.128 -123.72,42.128 -71.72,0 -129.55,-23.652 -171.82,-70.195"
         style="fill:#48af3a;fill-opacity:1;fill-rule:nonzero;stroke:none"
         id="path22" /><path
         d="m 2389.43,608.145 c 18.14,17.324 40.98,26.113 67.82,26.113 28.75,0 51.79,-8.945 68.41,-26.621 14.55,-15.606 21.79,-35.391 22.36,-58.399 l -187.42,0 c 2.85,23.164 12.21,43.145 28.83,58.907 m -48.54,36.043 c -35.5,-35.321 -53.52,-82.762 -53.52,-141.063 0,-56.211 17.57,-101.543 52.19,-134.902 31.15,-30.254 69.51,-45.614 114.1,-45.614 30.75,0 58.98,4.711 84.08,14.051 20.07,7.102 35.28,15.742 45.13,25.703 l 1.42,1.446 -28.85,49.296 -2.38,-2.148 c -23.16,-20.449 -52.51,-30.82 -87.25,-30.82 -30.39,0 -55.49,9.453 -74.74,28.086 -21.33,20.937 -32.22,51.328 -32.71,90.097 l 252.06,0 0.53,1.953 c 3.32,11.778 5,24.805 5,38.731 0,45.312 -14.12,82.246 -42.06,109.726 -28.77,28.575 -68.95,43.067 -119.44,43.067 -43.56,0 -81.72,-16.035 -113.56,-47.609"
         style="fill:#48af3a;fill-opacity:1;fill-rule:nonzero;stroke:none"
         id="path24" /><path
         d="m 2730.44,508.027 c 0,39.922 8.38,71.621 24.88,94.219 16.34,22.324 38.48,33.652 65.89,33.652 60.83,0 90.43,-41.828 90.43,-127.871 0,-40.156 -8.16,-72.187 -24.28,-95.273 -15.88,-22.754 -38.14,-34.258 -66.15,-34.258 -61.09,0 -90.77,42.363 -90.77,129.531 m -26.4,132.911 c -29.46,-33.653 -44.41,-78.34 -44.41,-132.911 0,-56.269 14.32,-101.738 42.58,-135.039 28.34,-33.418 68.36,-50.379 119,-50.379 49.51,0 89.17,16.766 117.97,49.871 28.71,33.008 43.24,78.594 43.24,135.547 0,57.129 -14.21,102.52 -42.26,134.864 -28.14,32.461 -68.14,48.906 -118.95,48.906 -48.2,0 -87.64,-17.109 -117.17,-50.859"
         style="fill:#48af3a;fill-opacity:1;fill-rule:nonzero;stroke:none"
         id="path26" /><path
         d="m 883.691,623.066 c 0,-177.031 -143.511,-320.554 -320.546,-320.554 -177.051,0 -320.559,143.523 -320.559,320.554 0,177.051 143.508,320.567 320.559,320.567 177.035,0 320.546,-143.516 320.546,-320.567"
         style="fill:#95d04f;fill-opacity:1;fill-rule:nonzero;stroke:none"
         id="path28" /><path
         d="M 387.559,695.488 266.488,1291.91 618.32,806.25 558.438,625.332 387.559,695.488"
         style="fill:#ffffff;fill-opacity:1;fill-rule:nonzero;stroke:none"
         id="path30" /><path
         d="M 387.559,695.488 266.488,1291.91 618.32,806.25 558.438,625.332 387.559,695.488 z"
         style="fill:none;stroke:#95d04f;stroke-opacity:1;stroke-width:20;stroke-linecap:butt;stroke-linejoin:miter;stroke-miterlimit:4;stroke-dasharray:none"
         id="path32" /><path
         d="m 734.824,565.156 67.539,-462.605 -298.32,351.824 59.902,180.918 170.879,-70.137"
         style="fill:#ffffff;fill-opacity:1;fill-rule:nonzero;stroke:none"
         id="path34" /><path
         d="m 734.824,565.156 67.539,-462.605 -298.32,351.824 59.902,180.918 170.879,-70.137 z"
         style="fill:none;stroke:#95d04f;stroke-opacity:1;stroke-width:20;stroke-linecap:butt;stroke-linejoin:miter;stroke-miterlimit:4;stroke-dasharray:none"
         id="path36" /><path
         d="M 625.52,798.34 1088.09,865.859 736.281,567.578 555.367,627.461 625.52,798.34"
         style="fill:#ffffff;fill-opacity:1;fill-rule:nonzero;stroke:none"
         id="path38" /><path
         d="M 625.52,798.34 1088.09,865.859 736.281,567.578 555.367,627.461 625.52,798.34 z"
         style="fill:none;stroke:#95d04f;stroke-opacity:1;stroke-width:20;stroke-linecap:butt;stroke-linejoin:miter;stroke-miterlimit:4;stroke-dasharray:none"
         id="path40" /><path
         d="M 495.645,461.172 33.0781,393.633 384.883,691.953 565.785,632.07 495.645,461.172"
         style="fill:#ffffff;fill-opacity:1;fill-rule:nonzero;stroke:none"
         id="path42" /><path
         d="M 495.645,461.172 33.0781,393.633 384.883,691.953 565.785,632.07 495.645,461.172 z"
         style="fill:none;stroke:#95d04f;stroke-opacity:1;stroke-width:20;stroke-linecap:butt;stroke-linejoin:miter;stroke-miterlimit:4;stroke-dasharray:none"
         id="path44" /><path
         d="m 258.789,1290.29 -8.141,40.14 22.379,-34.14 -14.238,-6"
         style="fill:#95d04f;fill-opacity:1;fill-rule:nonzero;stroke:none"
         id="path46" /><path
         d="m 359.805,658.867 37.609,27.793 -0.281,46.875 197.742,89.903 26.047,-38.594 90.945,11.699 60.696,-188.34 -44.368,-44.355 0,-55.332 -187.332,-81.016 -41.867,41.875 -105.137,0 -34.054,189.492"
         style="fill:#ffffff;fill-opacity:1;fill-rule:nonzero;stroke:none"
         id="path48" /><path
         d="m 597.832,667.5 178.93,57.52 -162.949,-91.348 93.339,-63.399 -106.199,28.067 59.418,-184.629 -94.035,169.023 -56.883,-94.55 21.348,108.769 -177.809,-59.375 163.469,94.004 -102.816,58.496 117.156,-24.297 -65.84,173.907 98.98,-159.727 57.993,100.879 -24.102,-113.34"
         style="fill:#48af3a;fill-opacity:1;fill-rule:evenodd;stroke:none"
         id="path50" /><g
         id="g52"
         transform="scale(10,10)"><text
           transform="matrix(1,0,0,-1,230.919,9.70195)"
           id="text54"><tspan
             style="fill:#2c50a3;fill-opacity:1;fill-rule:nonzero;stroke:none;font-family:TheSansSemiBold;font-style:italic;font-variant:normal;font-size:22;writing-mode:lr;-inkscape-font-specification:TheSansSemiBold-Italic"
             x="0 11.15273236 18.3918 30.117558 35.661316 46.0231 54.9991"
             y="0"
             sodipodi:role="line"
             id="tspan56">Project</tspan></text>
</g></g></g></svg>