<?xml version="1.0" encoding="UTF-8" standalone="no"?>
<!-- Created with Inkscape (http://www.inkscape.org/) -->

<svg
   xmlns:dc="http://purl.org/dc/elements/1.1/"
   xmlns:cc="http://creativecommons.org/ns#"
   xmlns:rdf="http://www.w3.org/1999/02/22-rdf-syntax-ns#"
   xmlns:svg="http://www.w3.org/2000/svg"
   xmlns="http://www.w3.org/2000/svg"
   xmlns:xlink="http://www.w3.org/1999/xlink"
   xmlns:sodipodi="http://sodipodi.sourceforge.net/DTD/sodipodi-0.dtd"
   xmlns:inkscape="http://www.inkscape.org/namespaces/inkscape"
   width="210mm"
   height="297mm"
   viewBox="0 0 744.09448819 1052.3622047"
   id="svg4205"
   version="1.1"
   inkscape:version="0.92.1 r15371"
   sodipodi:docname="splash_screen_3.svg">
  <defs
     id="defs4207" />
  <sodipodi:namedview
     id="base"
     pagecolor="#ffffff"
     bordercolor="#666666"
     borderopacity="1.0"
     inkscape:pageopacity="0.0"
     inkscape:pageshadow="2"
     inkscape:zoom="0.7"
     inkscape:cx="-359.83374"
     inkscape:cy="549.39335"
     inkscape:document-units="px"
     inkscape:current-layer="layer1"
     showgrid="false"
     inkscape:window-width="3200"
     inkscape:window-height="1671"
     inkscape:window-x="0"
     inkscape:window-y="55"
     inkscape:window-maximized="1" />
  <metadata
     id="metadata4210">
    <rdf:RDF>
      <cc:Work
         rdf:about="">
        <dc:format>image/svg+xml</dc:format>
        <dc:type
           rdf:resource="http://purl.org/dc/dcmitype/StillImage" />
        <dc:title></dc:title>
      </cc:Work>
    </rdf:RDF>
  </metadata>
  <g
     inkscape:label="Layer 1"
     inkscape:groupmode="layer"
     id="layer1">
    <rect
       style="fill:#e9e9e9;fill-opacity:1;stroke:none;stroke-width:4.5999999;stroke-linecap:round;stroke-linejoin:round;stroke-miterlimit:4;stroke-dasharray:none;stroke-opacity:1"
       id="rect4891"
       width="588.57141"
       height="588.57141"
       x="74.285713"
       y="195.21935"
       rx="40.140701"
       ry="38.535099" />
    <g
       style="display:inline"
       id="g4272"
       transform="matrix(1.6889285,0,0,1.6889285,135.48175,-567.62254)"
       inkscape:export-filename="/home/vincent/Documents/developpement/grass/grass_splash/welcome_final/20160522/startup_banner_isis.png"
       inkscape:export-xdpi="90"
       inkscape:export-ydpi="90">
      <path
         id="path4274"
         d="m 134.37279,582.48696 2.78764,2.82933 0.95078,-1.02041 -1.69948,-12.66273 0.14458,-2.04472 0.86745,-3.05676 0.90877,-2.80891 0.99138,-2.20995 3.22199,5.41128 3.13937,5.72109 0.69707,3.35753 4.38114,-4.29856 2.21253,-16.63532 4.6471,-22.5126 2.9948,-15.28378 6.0722,-12.04114 0.90877,-2.49911 0.33046,-1.46642 0.12392,-2.37518 -0.37177,-1.90015 -0.86745,-1.71426 -1.59034,-1.59034 0.0826,0.43373 0.78484,0.8055 0.72289,1.69361 0.0826,1.36315 -0.99138,2.72629 -1.28053,2.93284 -2.74695,4.93625 1.52838,-11.40088 0.43372,-5.98959 -0.55765,-0.10327 -3.07741,20.48853 -0.5783,1.03269 -5.06018,9.52139 -6.46462,12.80532 -5.43194,11.11173 -3.01545,7.74516 -1.71427,-2.93284 1.074,-2.20995 5.90698,-11.33891 5.98959,-9.99643 2.4991,-4.87428 2.06538,-4.04814 0.55765,-1.3838 0.12392,-1.34249 -0.24784,-1.03269 -0.24785,0 -0.18588,0.90876 -1.03269,2.37519 -2.4991,4.21337 -7.14621,10.98779 -4.06879,6.0309 -2.78826,4.93625 1.71427,-16.99805 0.64026,-7.24946 0.2685,-15.3251 -0.0413,0 0.12395,-0.51634 0.39242,-0.95007 0.30981,-0.86746 0.37177,-0.64027 0,-1.25988 -0.12393,-1.59034 0.55766,-1.03268 -0.24785,-1.50773 0,-1.13596 0.20654,-0.64026 0.43373,-1.42511 0.3098,-0.76419 -0.5783,-0.95008 0.49569,-0.95007 -0.78484,-0.55765 -0.47504,-1.42511 0.68157,-1.1153 -0.95007,-0.30981 -0.41308,-0.74353 0,-0.64027 -0.43372,-0.72288 -0.43373,-0.39242 0.0413,-0.59896 0,-0.66092 -0.20653,-1.79688 -0.14458,-1.03269 -0.64027,-0.47504 -0.3098,-0.55765 -0.72288,-0.35111 -0.43373,-0.78485 0.0826,-0.88811 -0.0826,-0.90876 -0.47504,-0.78485 -0.82615,-0.16523 -0.76419,-0.26849 -0.39242,-0.55766 -0.2685,-0.59896 -0.59896,0.39243 -0.24784,0.76419 -0.12393,0.82615 -0.39242,1.30118 -0.2685,-0.43373 0.12392,1.59034 -0.0826,0.35112 0,0.59896 0.22719,0.47503 0.20654,0.64027 0.39242,0.51634 0.16523,0.2272 0.12392,0.59895 -0.49569,0.37177 0.20654,0.537 -0.47504,0.59896 0.0826,0.47504 0.12392,0.47503 0.39242,0.47504 0.35112,0.43373 0.47503,0.41307 0.0826,0.35112 -0.16523,0.51634 -0.39242,0.35112 -0.18589,0.28915 0.0619,0.74353 0.59896,0.39243 0.35111,0.37176 0.20654,0.74354 -0.64026,0.76419 -0.10327,0.537 0.2685,0.59895 0.39242,0.47504 0,0.47504 0.28915,0.37177 0.2685,0.3098 0.20654,0.35112 -0.12393,0.59896 0.39243,0.55765 0.35111,0.0826 0.12392,0.2685 -0.12392,0.47504 0.33046,0.68157 0.35111,0.2685 0.2685,0.55765 -0.2685,0.95008 0.39242,0.86745 0.37177,0.16523 0.18589,0.39243 0.0826,1.1153 -0.20654,0.47503 -0.18588,0.55766 0.55765,2.80891 0.99138,0.64026 -0.0826,12.18573 -1.15661,13.15644 -0.68158,7.62124 -1.1153,9.25288 -0.43373,1.1153 -3.67637,-6.29939 -1.25988,-8.44739 -1.63165,-13.7141 -1.94145,-12.72271 0.14458,11.60741 0.6816,9.604 1.17727,9.14961 -8.19955,-12.99121 -11.77264,-17.65897 -2.70565,-3.75898 -0.22719,0 0.78485,2.25126 1.46641,3.65572 2.148,4.87428 3.75898,8.05497 2.27191,4.04813 2.80892,4.87429 5.8037,9.19093 5.24606,8.34412 0.8055,7.47666 2.4991,17.08066 -0.001,-0.0106 -2.88997,-8.97377 -6.11352,-15.0566 -4.87429,-10.12034 -6.46462,-10.51277 -3.28395,-4.31663 -2.62303,-2.62302 -4.27533,-3.96553 1.77622,2.1893 2.87088,2.93284 1.69361,1.90014 1.1153,1.94145 1.34249,2.14799 2.1893,3.75899 1.90015,3.49048 1.94145,4.31664 2.37519,5.7624 4.64709,12.02049 4.87429,12.68141 2.93283,8.96373 z m -8.55271,-8.51526 -0.85054,-2.27657 -1.56968,-2.97414 -3.42853,-6.54724 -4.83298,-8.71589 -3.40787,-5.59717 -3.16002,-4.83298 -1.71427,-2.37519 -1.42511,-1.42511 2.4578,4.66776 2.25126,5.2254 3.38722,7.70385 1.48707,3.40787 1.48967,4.43009 z m -20.389,-34.74429 -0.0413,-0.0826 -0.12393,-0.0826 z m 51.8616,-15.55227 -0.82615,3.44917 -3.73833,14.95332 -1.81753,8.4887 -1.90014,10.26492 -2.10669,6.69182 -0.74353,-1.73491 -4.79168,-8.88112 1.611,-3.73833 5.24605,-10.98781 2.80891,-5.90697 3.75899,-7.93105 z m 4.6471,11.13237 -0.68157,3.96552 -1.94146,6.58855 -1.94145,4.87429 -2.14799,6.34071 -1.13596,6.23743 -1.07399,6.63115 3.8829,-3.94616 0.16523,-2.02407 0.43373,-3.51114 1.03269,-4.9569 2.25126,-8.86046 1.03269,-6.5679 z m -27.79996,18.07204 1.56968,2.62303 -0.33046,6.11351 -0.24784,0.18589 z m 2.64368,4.39925 0.90876,1.50773 -0.70223,1.6523 -0.51634,0.37177 z"
         style="display:inline;fill:#009000;stroke:none"
         inkscape:connector-curvature="0"
         sodipodi:nodetypes="cccccccccccccccccccccccccccccccccccccccccccccccccccccccccccccccccccccccccccccccccccccccccccccccccccccccccccccccccccccccccccccccccccccccccccccccccccccccccccccccccccccccccccccccccccccccccccccccccccccccccccccccccccccccccccccccccccccccccccccccccccccccccccc" />
      <path
         inkscape:connector-curvature="0"
         style="color:#000000;display:inline;overflow:visible;visibility:visible;fill:#343434;fill-opacity:1;stroke:none;stroke-width:0.82688445;marker:none;enable-background:accumulate"
         d="m 87.903645,540.57803 -1.982761,1.98276 14.891366,14.89136 -1.96211,1.96211 14.87071,14.87071 -1.98276,1.98276 25.42478,25.42478 25.44544,-25.42478 -1.98276,-1.98276 14.87071,-14.87071 -1.96211,-1.96211 14.89136,-14.89136 -1.98276,-1.98276 -49.27988,49.25922 -49.259225,-49.25922 z"
         id="path4276" />
      <path
         inkscape:connector-curvature="0"
         style="color:#000000;display:inline;overflow:visible;visibility:visible;fill:#343434;fill-opacity:1;stroke:none;stroke-width:0.80000001;marker:none;enable-background:accumulate"
         d="m 137.16287,462.36222 -61.713444,61.7341 61.713444,61.7341 61.7341,-61.7341 -61.7341,-61.7341 z m 0,1.09465 60.63945,60.63945 -60.63945,60.63945 -60.639448,-60.63945 60.639448,-60.63945 z"
         id="path4278" />
    </g>
    <flowRoot
       xml:space="preserve"
       id="flowRoot4767"
       style="font-style:normal;font-weight:normal;line-height:0.01%;font-family:sans-serif;letter-spacing:0px;word-spacing:0px;fill:#343434;fill-opacity:0.77300613;stroke:none;stroke-width:1px;stroke-linecap:butt;stroke-linejoin:miter;stroke-opacity:1"
       transform="translate(125.71429,154.28571)"><flowRegion
         id="flowRegion4769"><rect
           id="rect4771"
           width="579.72968"
           height="243.48645"
           x="26.078327"
           y="337.42102"
           style="fill:#343434;fill-opacity:0.77300613" /></flowRegion><flowPara
         id="flowPara4773"
         style="font-style:normal;font-variant:normal;font-weight:normal;font-stretch:normal;font-size:81.16215515px;line-height:1.25;font-family:Sawasdee;-inkscape-font-specification:Sawasdee;fill:#343434;fill-opacity:0.77300613">GRASS GIS</flowPara><flowPara
         style="font-style:normal;font-variant:normal;font-weight:normal;font-stretch:normal;font-size:81.16215515px;line-height:1.25;font-family:Sawasdee;-inkscape-font-specification:Sawasdee;fill:#343434;fill-opacity:0.77300613"
         id="flowPara4799"> </flowPara></flowRoot>    <flowRoot
       xml:space="preserve"
       id="flowRoot4801"
       style="font-style:normal;font-weight:normal;line-height:0.01%;font-family:sans-serif;text-align:center;letter-spacing:0px;word-spacing:0px;text-anchor:middle;fill:#343434;fill-opacity:0.77300613;stroke:none;stroke-width:1px;stroke-linecap:butt;stroke-linejoin:miter;stroke-opacity:1"><flowRegion
         id="flowRegion4803"><rect
           id="rect4805"
           width="402.85715"
           height="197.14285"
           x="162.85715"
           y="595.21936"
           style="text-align:center;text-anchor:middle;fill:#343434;fill-opacity:0.77300613" /></flowRegion><flowPara
         id="flowPara4807"
         style="font-style:normal;font-variant:normal;font-weight:normal;font-stretch:semi-condensed;font-size:40px;line-height:1.25;font-family:'Monoid Loose';-inkscape-font-specification:'Monoid Loose Semi-Condensed';text-align:center;text-anchor:middle;fill:#343434;fill-opacity:0.77300613">Your tool for geospatial technologies</flowPara></flowRoot>    <path
       style="fill:none;fill-rule:evenodd;stroke:#008300;stroke-width:4.5999999;stroke-linecap:round;stroke-linejoin:miter;stroke-miterlimit:4;stroke-dasharray:none;stroke-opacity:1"
       d="m 97.323482,746.63518 c 31.819798,-31.12653 1.51523,-42.62491 1.51523,-67.59765 0,-24.97274 17.172588,-35.2406 17.172588,-35.2406"
       id="path4809"
       inkscape:connector-curvature="0"
       sodipodi:nodetypes="csc" />
    <path
       style="fill:none;fill-rule:evenodd;stroke:#008300;stroke-width:4.5999999;stroke-linecap:round;stroke-linejoin:miter;stroke-miterlimit:4;stroke-dasharray:none;stroke-opacity:1"
       d="m 97.323482,647.03923 c 31.819798,-31.12653 1.51523,-42.62491 1.51523,-67.59765 0,-24.97274 17.172588,-35.2406 17.172588,-35.2406"
       id="path4809-0"
       inkscape:connector-curvature="0"
       sodipodi:nodetypes="csc" />
    <use
       x="0"
       y="0"
       xlink:href="#path4809"
       id="use4826"
       transform="translate(-3.6938228e-8,-199.59595)"
       width="100%"
       height="100%" />
    <use
       x="0"
       y="0"
       xlink:href="#path4809-0"
       id="use4828"
       transform="translate(4.3657912e-7,-200)"
       width="100%"
       height="100%" />
    <use
       x="0"
       y="0"
       xlink:href="#path4809"
       id="use4826-8"
       transform="translate(4.3658142e-7,-399.59595)"
       width="100%"
       height="100%" />
    <path
       style="fill:none;fill-rule:evenodd;stroke:#008300;stroke-width:4.5999999;stroke-linecap:round;stroke-linejoin:miter;stroke-miterlimit:4;stroke-dasharray:none;stroke-opacity:1"
       d="m 608.86712,745.63523 c 31.8198,-31.12653 1.51523,-42.62491 1.51523,-67.59765 0,-24.97274 17.17259,-35.2406 17.17259,-35.2406"
       id="path4809-3"
       inkscape:connector-curvature="0"
       sodipodi:nodetypes="csc" />
    <path
       style="fill:none;fill-rule:evenodd;stroke:#008300;stroke-width:4.5999999;stroke-linecap:round;stroke-linejoin:miter;stroke-miterlimit:4;stroke-dasharray:none;stroke-opacity:1"
       d="m 608.86712,646.03928 c 31.8198,-31.12653 1.51523,-42.62491 1.51523,-67.59765 0,-24.97274 17.17259,-35.2406 17.17259,-35.2406"
       id="path4809-0-5"
       inkscape:connector-curvature="0"
       sodipodi:nodetypes="csc" />
    <use
       x="0"
       y="0"
       xlink:href="#path4809-3"
       id="use4826-6"
       transform="translate(-5.1257144e-6,-199.59595)"
       width="100%"
       height="100%" />
    <use
       x="0"
       y="0"
       xlink:href="#path4809-0-5"
       id="use4828-5"
       transform="translate(4.8742856e-6,-200)"
       width="100%"
       height="100%" />
    <use
       x="0"
       y="0"
       xlink:href="#path4809-3"
       id="use4826-8-9"
       transform="translate(4.8742856e-6,-399.59595)"
       width="100%"
       height="100%" />
  </g>
</svg>
