<?xml version="1.0" encoding="utf-8"?>
<!-- Generator: Adobe Illustrator 12.0.0, SVG Export Plug-In . SVG Version: 6.00 Build 51448)  -->
<!DOCTYPE svg PUBLIC "-//W3C//DTD SVG 1.1//EN" "http://www.w3.org/Graphics/SVG/1.1/DTD/svg11.dtd" [
	<!ENTITY ns_svg "http://www.w3.org/2000/svg">
	<!ENTITY ns_xlink "http://www.w3.org/1999/xlink">
]>
<svg  version="1.1" id="Layer_1" xmlns="&ns_svg;" xmlns:xlink="&ns_xlink;" width="175.748" height="54.743"
	 viewBox="0 0 175.748 54.743" overflow="visible" enable-background="new 0 0 175.748 54.743" xml:space="preserve">
<g>
	<polygon fill-rule="evenodd" clip-rule="evenodd" fill="#952230" points="0,0 175.748,0 175.748,54.743 0,54.743 0,0 	"/>
	<path fill-rule="evenodd" clip-rule="evenodd" fill="#FFFFFF" d="M52.242,19.111V8.93h1.697c1.429,0,2.054,0.089,2.857,0.268
		c2.143,0.625,2.947,2.143,2.947,4.376c0,2.768-1.964,5.537-5.179,5.537H52.242L52.242,19.111z M46.884,32.149h9.555
		c1.697,0,2.858-0.179,3.929-0.536c2.501-0.803,3.751-3.661,3.751-5.894c0-2.947-2.322-5.447-5.715-6.162v-0.089
		c1.429-0.447,1.875-0.714,2.679-1.34c1.518-1.25,1.875-2.947,1.875-4.465c0-1.786-0.983-3.75-2.947-4.733
		c-1.25-0.625-3.036-0.893-5.269-0.893h-7.858v0.625h0.268c1.697,0,2.233,2.054,2.233,4.554V26.97c0,2.5-0.625,4.465-2.233,4.465
		h-0.268V32.149L46.884,32.149z M52.242,20.272h2.144c3.84,0,6.34,2.947,6.34,6.072c0,1.34-0.357,2.501-1.072,3.305
		c-0.893,1.161-1.875,1.607-3.75,1.607h-1.161c-1.964,0-2.5-0.715-2.5-3.751V20.272L52.242,20.272z"/>
	<path fill-rule="evenodd" clip-rule="evenodd" fill="#FFFFFF" d="M71.353,28.845c0,2.232,0.268,2.59,2.322,2.59v0.714h-7.501
		v-0.714h0.714c1.34,0,1.875-0.447,1.875-1.876v-8.483c0-1.161-0.536-1.697-1.786-1.697h-0.803v-0.714l5.179-0.447V28.845
		L71.353,28.845z"/>
	<path fill-rule="evenodd" clip-rule="evenodd" fill="#FFFFFF" d="M80.909,21.076c2.59-2.232,3.661-2.858,4.644-2.858
		c0.804,0,1.786,0.268,2.5,0.804l-1.071,2.59l-0.269-0.178c-1.428-0.715-2.143-0.983-2.947-0.983c-0.893,0-1.607,0.357-2.857,1.608
		v6.787c0,2.143,0.357,2.59,1.875,2.59h0.357v0.714h-7.233v-0.714h0.357c1.607,0,1.964-0.447,1.964-2.59v-7.323
		c0-1.875-0.447-2.322-2.143-2.322H75.55v-0.625l5.358-0.446V21.076L80.909,21.076z"/>
	<path fill-rule="evenodd" clip-rule="evenodd" fill="#FFFFFF" d="M93.054,25.094l3.661-3.215c0.625-0.536,0.982-1.161,0.982-1.607
		c0-0.714-0.446-1.072-1.607-1.072v-0.625h7.412V19.2h-0.625c-1.518,0-2.5,0.536-4.376,2.233l-2.947,2.589l5.716,5.715
		c1.25,1.25,1.965,1.607,3.305,1.697v0.714h-4.466l-7.055-6.876v3.572c0,2.232,0.268,2.59,2.232,2.59v0.714h-7.144v-0.714
		c1.964,0,2.232-0.357,2.232-2.59V10.984c0-1.697-0.269-1.965-2.412-1.965V8.395l5.091-0.446V25.094L93.054,25.094z"/>
	<path fill-rule="evenodd" clip-rule="evenodd" fill="#FFFFFF" d="M109.128,21.165c1.072-1.34,2.144-1.965,3.483-1.965
		c2.59,0,4.554,2.5,4.554,5.894c0,4.019-2.143,6.519-5.715,6.519c-1.965,0-2.322-0.535-2.322-3.571V21.165L109.128,21.165z
		 M109.128,7.859l-5.001,0.357V8.93c2.232,0,2.322,0.179,2.411,2.5v20.451c1.786,0.357,2.858,0.357,4.019,0.357
		c2.322,0,4.02-0.357,5.537-1.161c2.501-1.25,3.93-3.661,3.93-6.251c0-3.75-2.769-6.608-6.341-6.608
		c-1.696,0-3.394,0.715-4.555,1.965V7.859L109.128,7.859z"/>
	<path fill-rule="evenodd" clip-rule="evenodd" fill="#FFFFFF" d="M124.935,23.13c0.357-2.858,1.519-4.197,3.751-4.197
		s3.572,1.518,3.572,4.197H124.935L124.935,23.13z M134.848,23.844v-0.536c0.089-2.679-2.769-5.09-5.805-5.09
		c-3.84,0-6.876,3.126-6.876,7.234c0,4.107,3.036,7.055,7.322,7.055c2.411,0,3.93-0.804,5.626-2.857v-1.072
		c-1.786,2.144-3.215,3.036-4.822,3.036c-1.429,0-3.036-0.893-4.019-2.411c-0.982-1.428-1.34-2.679-1.429-5.357H134.848
		L134.848,23.844z"/>
	<path fill-rule="evenodd" clip-rule="evenodd" fill="#FFFFFF" d="M149.851,22.951h-0.625c-0.536-2.5-2.322-4.107-4.644-4.107
		c-2.68,0-4.555,2.322-4.555,5.715c0,3.75,2.321,6.787,5.09,6.787c1.965,0,3.394-0.804,5.09-2.769v0.982
		c-1.339,1.786-3.482,2.947-5.982,2.947c-4.019,0-6.877-2.857-6.877-6.876c0-4.108,3.126-7.413,7.056-7.413
		c0.893,0,1.965,0.179,2.946,0.447c0.357,0.179,0.625,0.179,0.804,0.179c0.357,0,0.715-0.179,0.982-0.625h0.715V22.951
		L149.851,22.951z"/>
	<path fill-rule="evenodd" clip-rule="evenodd" fill="#FFFFFF" d="M155.834,25.094l3.661-3.215c0.625-0.536,0.982-1.161,0.982-1.607
		c0-0.714-0.446-1.072-1.607-1.072v-0.625h7.412V19.2h-0.625c-1.519,0-2.501,0.536-4.376,2.233l-2.947,2.589l5.716,5.715
		c1.25,1.25,1.965,1.607,3.304,1.697v0.714h-4.465l-7.055-6.876v3.572c0,2.232,0.268,2.59,2.232,2.59v0.714h-7.145v-0.714
		c1.965,0,2.232-0.357,2.232-2.59V10.984c0-1.697-0.268-1.965-2.411-1.965V8.395l5.091-0.446V25.094L155.834,25.094z"/>
	<path fill-rule="evenodd" clip-rule="evenodd" fill="#FFFFFF" d="M51.26,45.456c-0.536,0.625-1.071,0.804-1.875,0.804
		c-1.429,0-2.233-0.894-2.144-2.232v-2.858c0-0.714-0.179-0.893-0.625-0.893h-0.089v-0.269h2.322v0.269H48.76
		c-0.447,0-0.536,0.179-0.536,0.893v2.769c0,0.715,0,0.982,0.179,1.25c0.268,0.357,0.714,0.536,1.25,0.536
		c0.714,0,1.161-0.268,1.607-0.894v-3.482v-0.179c0-0.535-0.089-0.893-0.536-0.893h-0.089v-0.269h2.322v0.269h-0.178
		c-0.268,0-0.536,0.179-0.536,0.893v3.751c0,0.625,0.089,0.894,0.536,0.894h0.178v0.356H51.26V45.456L51.26,45.456z"/>
	<path fill-rule="evenodd" clip-rule="evenodd" fill="#FFFFFF" d="M60.637,40.276h-0.089c-0.536,0-0.715,0.179-0.715,0.893v5.001
		h-0.268l-4.197-5.09l0,0v3.75c0,0.805,0.178,0.983,0.714,0.983h0.089v0.356h-1.965v-0.356h0.089c0.446,0,0.625-0.269,0.625-0.983
		v-3.393c0-0.804-0.179-1.072-0.893-1.161v-0.269h1.697l3.662,4.555l0,0v-3.125c0-0.982-0.179-1.161-0.625-1.161h-0.089v-0.269
		h1.964V40.276L60.637,40.276z"/>
	<path fill-rule="evenodd" clip-rule="evenodd" fill="#FFFFFF" d="M145.563,40.276h-0.089c-0.536,0-0.715,0.179-0.715,0.893v5.001
		h-0.268l-4.197-5.09l0,0v3.75c0,0.805,0.179,0.983,0.715,0.983h0.089v0.356h-1.965v-0.356h0.09c0.446,0,0.625-0.269,0.625-0.983
		v-3.393c0-0.804-0.179-1.072-0.894-1.161v-0.269h1.697l3.661,4.555l0,0v-3.125c0-0.982-0.179-1.161-0.625-1.161h-0.09v-0.269h1.965
		V40.276L145.563,40.276z"/>
	<path fill-rule="evenodd" clip-rule="evenodd" fill="#FFFFFF" d="M167.8,40.276h-0.089c-0.536,0-0.715,0.179-0.715,0.893v5.001
		h-0.268l-4.197-5.09l0,0v3.75c0,0.805,0.179,0.983,0.715,0.983h0.089v0.356h-1.965v-0.356h0.09c0.446,0,0.625-0.269,0.625-0.983
		v-3.393c0-0.804-0.179-1.072-0.894-1.161v-0.269h1.697l3.661,4.555l0,0v-3.125c0-0.982-0.179-1.161-0.625-1.161h-0.09v-0.269h1.965
		V40.276L167.8,40.276z"/>
	<path fill-rule="evenodd" clip-rule="evenodd" fill="#FFFFFF" d="M64.03,46.169h-2.322v-0.356h0.089
		c0.446,0,0.625-0.179,0.625-0.894v-3.751c-0.089-0.714-0.179-0.893-0.625-0.893h-0.089v-0.269h2.322v0.269h-0.089
		c-0.357,0-0.536,0.268-0.536,0.893v3.751c0,0.715,0.179,0.894,0.536,0.894h0.089V46.169L64.03,46.169z"/>
	<path fill-rule="evenodd" clip-rule="evenodd" fill="#FFFFFF" d="M91.625,46.169h-2.322v-0.356h0.09
		c0.446,0,0.625-0.179,0.625-0.894v-3.751c-0.09-0.714-0.179-0.893-0.625-0.893h-0.09v-0.269h2.322v0.269h-0.089
		c-0.447,0-0.626,0.268-0.626,0.893v3.751c0,0.715,0.179,0.894,0.626,0.894h0.089V46.169L91.625,46.169z"/>
	<path fill-rule="evenodd" clip-rule="evenodd" fill="#FFFFFF" d="M70.996,40.276c-0.536,0.089-0.804,0.268-1.072,1.161
		l-1.786,4.822h-0.357l-1.875-5.001c-0.268-0.715-0.536-0.894-0.982-0.982v-0.269h2.322v0.269c-0.268,0-0.536,0.179-0.536,0.357
		c0,0.089,0,0.089,0.178,0.357v0.268l1.34,3.304l1.25-3.304c0.089-0.268,0.089-0.446,0.089-0.625s-0.089-0.269-0.536-0.357v-0.269
		h1.965V40.276L70.996,40.276z"/>
	<path fill-rule="evenodd" clip-rule="evenodd" fill="#FFFFFF" d="M76.265,41.168h-0.357c-0.089-0.625-0.268-0.804-0.982-0.804
		h-1.607v2.501h1.339c0.714,0,0.714-0.09,0.804-0.536c0,0,0,0,0.089-0.089h0.268v1.607h-0.357c-0.089-0.446-0.089-0.536-0.804-0.536
		h-1.339v2.054c0,0.447,0,0.447,0.625,0.447h0.893c0.893,0,0.982-0.179,1.25-0.894h0.446l-0.357,1.25H71.71v-0.356l0,0
		c0.446,0,0.625-0.179,0.625-0.894v-3.572v-0.179c0-0.714-0.179-0.893-0.625-0.893l0,0v-0.269h4.465L76.265,41.168L76.265,41.168z"
		/>
	<path fill-rule="evenodd" clip-rule="evenodd" fill="#FFFFFF" d="M79.301,40.365h0.536c0.893,0,1.429,0.536,1.429,1.34
		c0,0.446-0.089,0.714-0.446,0.982c-0.179,0.179-0.446,0.268-0.804,0.268h-0.714V40.365L79.301,40.365z M79.301,43.402h0.268
		c0.357,0,0.447,0,0.625,0.089c0.179,0.089,0.357,0.268,0.357,0.357c0.268,0.179,0.536,0.625,0.893,1.339
		c0.446,0.715,0.536,0.715,0.714,0.982h1.429v-0.356h-0.089c-0.357,0-0.714-0.269-1.161-1.161l-0.447-0.715
		c-0.357-0.446-0.357-0.535-0.714-0.804c0.803-0.179,1.161-0.804,1.161-1.429c0-0.714-0.357-1.161-0.893-1.429
		c-0.357-0.269-0.804-0.269-1.518-0.269h-2.322v0.269h0.089c0.447,0,0.625,0.179,0.625,0.893v3.751c0,0.625-0.179,0.894-0.625,0.894
		h-0.089v0.356h2.411v-0.356h-0.089c-0.447,0-0.625-0.179-0.625-0.894V43.402L79.301,43.402z"/>
	<path fill-rule="evenodd" clip-rule="evenodd" fill="#FFFFFF" d="M87.785,41.437h-0.357v-0.09
		c-0.089-0.446-0.179-0.714-0.446-0.893c-0.269-0.179-0.536-0.269-0.804-0.269c-0.625,0-0.982,0.447-0.982,0.894
		c0,0.268,0.089,0.536,0.357,0.804c0.179,0.089,0.357,0.268,0.536,0.357c0.179,0.089,0.357,0.268,0.714,0.446
		c0.447,0.268,0.715,0.446,0.893,0.804c0.268,0.268,0.447,0.714,0.447,1.071c0,0.982-0.804,1.786-1.876,1.786
		c-0.268,0-0.446-0.089-0.982-0.179c-0.179-0.089-0.268-0.179-0.357-0.179s-0.089,0.09-0.179,0.269H84.48v-1.786h0.357v0.089
		c0,0.536,0.089,0.804,0.447,1.072c0.268,0.179,0.536,0.268,0.893,0.268c0.715,0,1.161-0.357,1.161-0.982
		c0-0.268-0.179-0.536-0.536-0.893c-0.178-0.179-0.446-0.357-0.714-0.447c-0.357-0.268-0.625-0.446-0.803-0.535
		c-0.089-0.09-0.268-0.269-0.447-0.447c-0.268-0.356-0.357-0.714-0.357-1.16c0-0.982,0.715-1.607,1.697-1.607
		c0.357,0,0.536,0,0.893,0.089c0.179,0.089,0.268,0.089,0.268,0.179c0.089,0,0.179-0.09,0.179-0.179l0,0h0.268V41.437L87.785,41.437
		z"/>
	<path fill-rule="evenodd" clip-rule="evenodd" fill="#FFFFFF" d="M98.145,39.918l0.089,1.429h-0.357v-0.089
		c-0.179-0.625-0.357-0.804-1.161-0.804h-0.893v4.465c0,0.715,0.179,0.894,0.625,0.894h0.089v0.356h-2.321v-0.356h0.089
		c0.447,0,0.625-0.179,0.625-0.894v-4.465h-0.804c-0.893,0-1.071,0.179-1.25,0.804h-0.268v-1.34H98.145L98.145,39.918z"/>
	<path fill-rule="evenodd" clip-rule="evenodd" fill="#FFFFFF" d="M104.396,40.276c-0.447,0.089-0.536,0.089-0.804,0.446
		l-0.09,0.179l-1.429,2.232v1.786c0,0.715,0.179,0.894,0.536,0.894h0.089v0.356h-2.321v-0.356h0.089
		c0.446,0,0.625-0.179,0.625-0.894v-1.786l-1.25-2.054c-0.446-0.625-0.625-0.715-1.071-0.804v-0.269h2.5v0.269h-0.089
		c-0.357,0-0.536,0.089-0.536,0.268c0,0,0,0.09,0.089,0.269l0.09,0.179l1.071,1.518l0.894-1.34c0.089-0.268,0.179-0.446,0.179-0.535
		c0-0.269-0.09-0.357-0.357-0.357v-0.269h1.786V40.276L104.396,40.276z"/>
	<path fill-rule="evenodd" clip-rule="evenodd" fill="#FFFFFF" d="M112.433,40.186c1.429,0,2.144,1.251,2.144,2.947
		c0,1.607-0.804,2.769-2.233,2.769c-1.429,0-2.232-1.25-2.232-2.947C110.11,41.347,110.914,40.186,112.433,40.186L112.433,40.186z
		 M112.433,39.83c-1.876,0-3.394,1.339-3.394,3.215c0,1.875,1.518,3.304,3.304,3.304c1.876,0,3.305-1.429,3.305-3.304
		C115.647,41.258,114.219,39.83,112.433,39.83L112.433,39.83z"/>
	<path fill-rule="evenodd" clip-rule="evenodd" fill="#FFFFFF" d="M134.848,40.186c1.429,0,2.143,1.251,2.143,2.947
		c0,1.607-0.803,2.769-2.232,2.769c-1.339,0-2.143-1.25-2.143-2.947C132.615,41.347,133.419,40.186,134.848,40.186L134.848,40.186z
		 M134.848,39.83c-1.875,0-3.305,1.339-3.305,3.215c0,1.875,1.43,3.304,3.305,3.304c1.786,0,3.304-1.429,3.304-3.304
		C138.151,41.258,136.723,39.83,134.848,39.83L134.848,39.83z"/>
	<path fill-rule="evenodd" clip-rule="evenodd" fill="#FFFFFF" d="M157.263,40.186c1.429,0,2.232,1.251,2.232,2.947
		c0,1.607-0.804,2.769-2.232,2.769s-2.232-1.25-2.232-2.947C155.03,41.347,155.834,40.186,157.263,40.186L157.263,40.186z
		 M157.352,39.83c-1.964,0-3.394,1.339-3.394,3.215c0,1.875,1.43,3.304,3.305,3.304s3.304-1.429,3.304-3.304
		C160.566,41.258,159.138,39.83,157.352,39.83L157.352,39.83z"/>
	<path fill-rule="evenodd" clip-rule="evenodd" fill="#FFFFFF" d="M120.827,41.168h-0.357c-0.089-0.625-0.179-0.804-0.894-0.804
		h-1.429v2.411h1.251c0.714,0,0.804-0.089,0.804-0.714h0.357v1.875h-0.357c0-0.625-0.09-0.714-0.804-0.714h-1.251v1.696
		c0,0.715,0.179,0.894,0.625,0.894h0.09v0.356h-2.411v-0.356h0.089c0.447,0,0.625-0.269,0.625-0.983v-3.661
		c0-0.714-0.178-0.893-0.625-0.893h-0.089v-0.269h4.376V41.168L120.827,41.168z"/>
	<path fill-rule="evenodd" clip-rule="evenodd" fill="#FFFFFF" d="M130.472,46.169h-4.555v-0.356h0.09
		c0.446,0,0.625-0.179,0.625-1.072v-3.394V41.08c0-0.625-0.179-0.804-0.625-0.804h-0.09v-0.269h2.322v0.269l0,0
		c-0.536,0-0.625,0.179-0.625,1.071v3.394v0.357c0,0.536,0,0.625,0.446,0.625h0.357h0.982c0.714,0,0.893-0.179,1.16-0.982h0.357
		L130.472,46.169L130.472,46.169z"/>
	<path fill-rule="evenodd" clip-rule="evenodd" fill="#FFFFFF" d="M148.153,40.365h0.804c0.804,0,1.25,0.09,1.697,0.357
		c0.714,0.446,1.071,1.34,1.071,2.411c0,0.804-0.089,1.429-0.535,1.876c-0.447,0.535-0.983,0.804-1.876,0.804h-0.446
		c-0.625,0-0.715-0.269-0.715-1.072V40.365L148.153,40.365z M146.457,46.169h2.857c0.715,0,1.251-0.089,1.697-0.268
		c1.16-0.446,1.875-1.519,1.875-2.769c0-1.161-0.715-2.232-1.696-2.769c-0.269-0.179-0.536-0.268-0.715-0.268
		c-0.446-0.09-0.715-0.09-1.429-0.09h-2.59v0.269h0.089c0.447,0,0.625,0.179,0.625,0.893v3.751c0,0.715-0.178,0.894-0.625,0.894
		h-0.089V46.169L146.457,46.169z"/>
	<path fill-rule="evenodd" clip-rule="evenodd" fill="#FFFFFF" d="M71.353,13.664c-1.339,0-2.5-1.072-2.5-2.5
		c0-0.536,0.179-0.982,0.447-1.429l0,0c-1.161,0.179-2.054,1.25-2.054,2.501c0,1.429,1.072,2.5,2.411,2.5
		c0.893,0,1.607-0.447,2.144-1.072H71.353L71.353,13.664z"/>
	<path fill-rule="evenodd" clip-rule="evenodd" fill="#952230" d="M25.63,47.42c14.735-7.591,15.092-14.468,15.628-24.023V7.948
		V6.341H8.663v1.607v15.449l0,0v0.089C9.198,32.953,9.556,39.83,24.291,47.42l0.625,0.356L25.63,47.42L25.63,47.42z"/>
	<path fill-rule="evenodd" clip-rule="evenodd" fill="#FFFFFF" d="M10.27,7.948v15.449c0.536,9.555,0.982,15.539,14.735,22.683
		c2.5-1.161,4.823-2.679,7.055-4.287c6.519-4.465,7.591-12.056,7.591-19.11L39.74,7.948H10.27L10.27,7.948z"/>
	<polygon fill-rule="evenodd" clip-rule="evenodd" fill="#952230" points="39.249,22.147 39.427,8.409 10.672,8.409 10.583,22.147 
		39.249,22.147 	"/>
	<path fill-rule="evenodd" clip-rule="evenodd" fill="#FFFFFF" d="M17.593,18.843c0-0.357-0.179-0.625-0.179-0.625
		c-0.803-0.179-1.429-1.339-0.178-2.054c1.25-0.714,1.071-1.339,1.071-1.339h-1.518c-0.804,0-0.804-0.268-0.804-0.268
		s0,0.268-0.804,0.268h-1.518c0,0-0.179,0.625,1.072,1.339c1.25,0.715,0.625,1.875-0.089,2.054c0,0-0.268,0.268-0.268,0.625H17.593
		L17.593,18.843z"/>
	<path fill-rule="evenodd" clip-rule="evenodd" fill="#FFFFFF" d="M15.985,14.289c0,0-1.161-0.982-0.625-1.697
		c0,0,0.536-0.804,0.446-1.518c0,0,1.161,1.875,0.625,2.59C15.985,14.467,15.985,14.289,15.985,14.289L15.985,14.289z"/>
	<path fill-rule="evenodd" clip-rule="evenodd" fill="#FFFFFF" d="M35.632,18.754c0-0.268-0.268-0.536-0.268-0.536
		c-0.714-0.268-1.34-1.429-0.089-2.143s0.982-1.25,0.982-1.25h-1.429c-0.804,0-0.804-0.357-0.804-0.357s-0.089,0.357-0.804,0.357
		h-1.518c0,0-0.179,0.536,1.072,1.25c1.25,0.714,0.536,1.875-0.179,2.143c0,0-0.179,0.268-0.179,0.536H35.632L35.632,18.754z"/>
	<path fill-rule="evenodd" clip-rule="evenodd" fill="#FFFFFF" d="M34.024,14.199c0,0-1.161-0.893-0.625-1.697
		c0,0,0.536-0.804,0.446-1.429c0,0,1.161,1.786,0.625,2.59C33.935,14.378,34.024,14.199,34.024,14.199L34.024,14.199z"/>
	<path fill-rule="evenodd" clip-rule="evenodd" fill="#FFFFFF" d="M26.97,9.288c0,0-0.804,0.268-1.161,0.446
		c0,0-0.536-0.268-1.875-0.268c-1.25,0-1.786,0.268-1.786,0.268c-0.357-0.178-1.161-0.446-1.161-0.446
		c-0.089,0.893,0.536,1.25,0.536,1.25c-0.089,0.268-0.268,0.714-0.179,1.339c0.089,0.982,1.071,1.072,1.786,0.893
		c0.804-0.179,0.804,0.536,0.804,0.536s0.089-0.714,0.893-0.536c0.715,0.179,1.697,0.089,1.786-0.893
		c0.089-0.625-0.089-1.072-0.179-1.339C26.434,10.538,27.059,10.181,26.97,9.288L26.97,9.288z M23.487,11.788
		c-1.518,0.357-1.339-0.804-1.339-0.804s0.089-0.089,0.803,0C23.666,11.074,23.487,11.788,23.487,11.788L23.487,11.788z
		 M24.469,11.788c0,0-0.268-0.714,0.536-0.804s0.804,0,0.804,0S26.077,12.235,24.469,11.788L24.469,11.788z"/>
	<path fill-rule="evenodd" clip-rule="evenodd" fill="#FFFFFF" d="M26.702,13.306c-0.446,0.804-1.786,0.536-2.054,0.446
		c-0.625,0-0.714,0.625-0.714,0.715c0-0.089,0-0.715-0.625-0.715c0.178,0-1.786,0.357-1.965-0.536l-0.089-0.178
		c0,0-0.804,1.518,0.446,3.214c1.072,1.429,1.608,2.144,1.697,3.305c0.179,1.25-0.625,0.982-1.25,1.071
		c-0.714,0-0.625,0.804-0.625,0.804c0.089-0.089,0.536-0.089,0.536-0.089c1.339,0.446,1.518,0.089,1.786-0.447
		c0.268-0.536,0.982-0.714,1.161-1.161c0.089-0.178-0.446-0.446-0.625-0.536c-0.089-0.089,0-0.268,0.179-0.179
		c0.268,0.089,0.357-0.178,0.357-0.268c-0.089-0.179-0.268-0.357-0.357-0.447s-0.268-0.446,0.089-0.268
		c0.536,0.179,0.536-0.178,0.536-0.446c0,0,0.357,0.268,0.625,1.607c0.268,1.339,0.179,1.25-0.714,1.429
		c-0.893,0.089-0.625,0.982-0.625,0.982c0.089-0.178,0.268-0.268,0.446-0.268s0.268,0,0.804,0.089c0.625,0,1.071-0.179,1.786-0.179
		c0.625,0,0.982,0.179,0.982,0.089c0.179-0.625-0.536-0.715-0.982-0.804c-0.536,0-0.804-0.357-0.446-0.625
		c0.268-0.179,0.268-0.179,0.178-0.357c-0.178-0.179-0.446-0.357-0.357-0.447c0.089-0.178,0.179,0.089,0.357-0.178
		c0.089-0.179-0.357-0.536-0.357-0.536c0.357-0.089,0.714-0.179,0.893,0.357c0.179,0.446,0.179,0.536,0.357,0.893
		c0.089,0.357,0.268,0.357,0.714,0.268c0.714-0.179,1.25-0.179,1.25-0.179c-0.804-2.143-0.982-1.964-0.982-1.964
		c-3.304,0.446-4.287-1.875-4.287-1.875l0.089-0.357c1.875,1.697,4.019,1.25,4.019,1.25C28.042,13.574,27.059,13.574,26.702,13.306
		L26.702,13.306z"/>
	<polygon fill-rule="evenodd" clip-rule="evenodd" fill="#952230" points="24.916,45.098 28.042,43.491 28.042,23.308 
		21.879,23.308 21.879,43.402 24.916,45.098 	"/>
	<path fill-rule="evenodd" clip-rule="evenodd" fill="#F7FCFE" d="M25.094,39.026V28.219c0-1.428,0.179-2.5,0.357-3.304
		c0.268,1.25,0.357,3.304,0.357,3.304v10.807H25.094L25.094,39.026z"/>
	<path fill-rule="evenodd" clip-rule="evenodd" fill="#F7FCFE" d="M25.273,24.112c-0.268,0.357-0.714,2.054-0.804,4.107v10.628
		h-0.536c0,0,0-9.823,0-10.628c0-0.803,0.625-4.464,1.071-4.464C25.184,23.755,25.184,23.755,25.273,24.112L25.273,24.112z"/>
	<polygon fill-rule="evenodd" clip-rule="evenodd" fill="#F7FCFE" points="26.434,38.757 24.916,38.847 23.397,38.757 22.594,38.49 
		22.594,39.382 23.934,39.74 25.898,39.74 27.327,39.382 27.327,38.49 26.434,38.757 	"/>
	<path fill-rule="evenodd" clip-rule="evenodd" fill="#FFFFFF" d="M25.898,39.74c0,0.09,0,0.268,0,0.268c0,0.09,0,0.269-0.178,0.269
		c-0.268,0-0.804,0-0.804,0s-0.446,0-0.714,0c-0.179,0-0.179-0.179-0.179-0.269c0,0,0-0.178,0-0.268H25.898L25.898,39.74z"/>
	<path fill-rule="evenodd" clip-rule="evenodd" fill="#FFFFFF" d="M24.916,44.116c0.982,0,0.982-1.161,0.982-1.161h-1.964
		C23.934,42.955,23.934,44.116,24.916,44.116L24.916,44.116L24.916,44.116z"/>
	<path fill-rule="evenodd" clip-rule="evenodd" fill="#FFFFFF" d="M25.452,43.312c0.268-0.625,0.179-2.947,0.179-2.947h-1.34
		c0,0-0.089,2.322,0.089,2.947H25.452L25.452,43.312z"/>
	<path fill-rule="evenodd" clip-rule="evenodd" fill="#952230" d="M16.01,39.026h4.798v3.756
		C18.838,41.519,17.267,40.277,16.01,39.026L16.01,39.026z M12.393,33.756h3.503v-5.269h-4.822v-5.18h4.822v5.18h4.912v5.269h-4.912
		v5.155C14.238,37.236,13.139,35.542,12.393,33.756L12.393,33.756z M29.023,42.959c0.975-0.621,1.928-1.277,2.864-1.951
		c0.792-0.543,1.501-1.134,2.137-1.764v-0.219h0.216c1.504-1.556,2.576-3.345,3.333-5.27h-3.548v-5.269h4.887
		c0.008-0.06,0.017-0.119,0.025-0.179v-5.09h-4.912v5.269h-5.001v5.269h5.001v5.27h-5.001V42.959L29.023,42.959z"/>
</g>
</svg>
